<svg id="Layer_1" data-name="Layer 1" xmlns="http://www.w3.org/2000/svg" viewBox="0 0 336.28 87.89"><defs><style>.cls-1{fill:#0059a6;}</style></defs><title>Qualcomm</title><path class="cls-1" d="M99.45,33.44A1.53,1.53,0,0,1,101,35V63.4a1.51,1.51,0,0,1-1.5,1.44H95.59a1.44,1.44,0,0,1-1.44-1.38V60.85c-2,2.87-5.3,4.84-10.2,4.84-8.18,0-13.21-5.43-13.21-13.48V34.88a1.51,1.51,0,0,1,1.5-1.44H76.1a1.45,1.45,0,0,1,1.44,1.44V51.1c0,5.23,2.75,8.7,8.17,8.7s8.44-3.6,8.44-8.63V34.88a1.5,1.5,0,0,1,1.44-1.44h3.86M42.55,17.68a23.62,23.62,0,0,0-23.87,24,23.62,23.62,0,0,0,23.87,24,24.47,24.47,0,0,0,6.51-.88l2.58,6.7a1.68,1.68,0,0,0,1.77,1.17h4.12c1,0,1.7-.65,1.24-1.89L55.41,62a23.71,23.71,0,0,0,11-20.35,23.62,23.62,0,0,0-23.87-24M52.94,55.59l-3-7.82a1.89,1.89,0,0,0-2-1.25H44.05a1.29,1.29,0,0,0-1.31,1.9l4,10.29a17.11,17.11,0,0,1-4.16.5C32.87,59.21,26,51.62,26,41.68s6.87-17.52,16.55-17.52S59.1,31.74,59.1,41.68a17.7,17.7,0,0,1-6.16,13.91m265,7.68a1.07,1.07,0,0,1-1.05,1.57h-4.32a1.7,1.7,0,0,1-1.7-1.18l-8-21.45-8.11,21.45a1.66,1.66,0,0,1-1.7,1.18h-3.86a1.67,1.67,0,0,1-1.7-1.18L279.3,42.08l-8.05,21.58a1.74,1.74,0,0,1-1.7,1.18H265.5a1.75,1.75,0,0,1-1.7-1.18l-8-21.58-8.24,21.58a1.67,1.67,0,0,1-1.7,1.18H242a1.66,1.66,0,0,1-1.7-1.18l-8-21.58-8,21.58a1.7,1.7,0,0,1-1.7,1.18h-4.19a1.06,1.06,0,0,1-1-1.57l10.92-28.58a1.72,1.72,0,0,1,1.7-1.25h4.71a1.72,1.72,0,0,1,1.7,1.25l7.72,20.86,7.78-20.86a1.72,1.72,0,0,1,1.7-1.25h4.64a1.71,1.71,0,0,1,1.7,1.25l7.72,20.86,7.72-20.86a1.72,1.72,0,0,1,1.7-1.25h4.64a1.71,1.71,0,0,1,1.7,1.25l7.85,20.86,7.65-20.86a1.73,1.73,0,0,1,1.71-1.25h4.7a1.71,1.71,0,0,1,1.7,1.25l10.93,28.58m-181-29.83H133A1.53,1.53,0,0,0,131.5,35v2.61a12.26,12.26,0,0,0-10.27-5c-8.5,0-15.83,6.73-15.83,16.54s7.33,16.62,15.76,16.62a12.39,12.39,0,0,0,10.34-5V63.4a1.51,1.51,0,0,0,1.5,1.44h3.86a1.46,1.46,0,0,0,1.44-1.44V35a1.48,1.48,0,0,0-1.44-1.51M122,59.41c-5.63,0-9.62-4.58-9.62-10.27s4-10.2,9.62-10.2,9.61,4.44,9.61,10.2-4,10.27-9.61,10.27m61,1a1.38,1.38,0,0,1-.32,2.16,16.71,16.71,0,0,1-10.08,3.14c-9.74,0-16.22-7.13-16.22-16.55s6.48-16.61,16.22-16.61a16.64,16.64,0,0,1,10.08,3.14,1.39,1.39,0,0,1,.32,2.15l-1.83,2.56c-.72,1-1.57.71-2.29.26a11.49,11.49,0,0,0-6.08-1.9c-5.69,0-9.48,4.58-9.48,10.4S167,59.47,172.7,59.47a11.65,11.65,0,0,0,6-1.89c.72-.4,1.51-.72,2.29.32Zm18.19-27.8a16.55,16.55,0,1,0,16.48,16.55,16.35,16.35,0,0,0-16.48-16.55m0,26.75c-5.63,0-9.62-4.51-9.62-10.2s4-10.2,9.62-10.2,9.61,4.44,9.61,10.2-4,10.2-9.61,10.2M150.4,18.53a1.47,1.47,0,0,1,1.44,1.5v43.3a1.47,1.47,0,0,1-1.44,1.51h-3.86a1.56,1.56,0,0,1-1.5-1.51V20a1.56,1.56,0,0,1,1.5-1.5h3.86"/></svg>