<svg id="Layer_1" data-name="Layer 1" xmlns="http://www.w3.org/2000/svg" viewBox="0 0 126.29 77.42"><defs><style>.cls-1{fill:#fff;}</style></defs><path class="cls-1" d="M45.51,74.58H16.28c0-.81.1-1.62.2-2.41a10.47,10.47,0,0,1,10.17-9c2.77-.13,5.56-.13,8.34,0A10.8,10.8,0,0,1,45.45,73.42Z"/><path class="cls-1" d="M39.49,52.54A8.63,8.63,0,0,1,30.65,61a8.47,8.47,0,0,1-8.34-8.86,8.63,8.63,0,0,1,8.76-8.32A8.77,8.77,0,0,1,39.49,52.54Z"/><path class="cls-1" d="M60.06,39.81H1.76A1.75,1.75,0,0,0,0,41.56v34.1a1.76,1.76,0,0,0,1.76,1.76h58.3a1.76,1.76,0,0,0,1.76-1.76V41.56A1.75,1.75,0,0,0,60.06,39.81Zm1,33.55a1,1,0,0,1-1,1H1.75a1,1,0,0,1-1-1V41.56a1,1,0,0,1,1-1H60.07a1,1,0,0,1,1,1Z"/><path class="cls-1" d="M45.51,34.77H16.28c0-.81.1-1.61.2-2.41a10.47,10.47,0,0,1,10.17-9c2.77-.13,5.56-.12,8.34,0A10.79,10.79,0,0,1,45.45,33.61Z"/><path class="cls-1" d="M39.49,12.73a8.62,8.62,0,0,1-8.84,8.45,8.47,8.47,0,0,1-8.34-8.86A8.61,8.61,0,0,1,31.07,4,8.76,8.76,0,0,1,39.49,12.73Z"/><path class="cls-1" d="M60.06,0H1.76A1.76,1.76,0,0,0,0,1.76v34.1a1.75,1.75,0,0,0,1.76,1.75h58.3a1.75,1.75,0,0,0,1.76-1.75V1.76A1.76,1.76,0,0,0,60.06,0Zm1,33.56a1,1,0,0,1-1,1H1.75a1,1,0,0,1-1-1V1.75a1,1,0,0,1,1-1H60.07a1,1,0,0,1,1,1Z"/><path class="cls-1" d="M110,74.58H80.75c0-.81.09-1.62.19-2.41a10.47,10.47,0,0,1,10.17-9c2.78-.13,5.57-.13,8.34,0a10.79,10.79,0,0,1,10.46,10.26C109.94,73.81,110,74.19,110,74.58Z"/><path class="cls-1" d="M104,52.54A8.63,8.63,0,0,1,95.12,61a8.48,8.48,0,0,1-8.35-8.86,8.63,8.63,0,0,1,8.76-8.32A8.77,8.77,0,0,1,104,52.54Z"/><path class="cls-1" d="M124.53,39.81H66.22a1.75,1.75,0,0,0-1.76,1.75v34.1a1.76,1.76,0,0,0,1.76,1.76h58.31a1.76,1.76,0,0,0,1.76-1.76V41.56A1.75,1.75,0,0,0,124.53,39.81Zm1,33.55a1,1,0,0,1-1,1H66.22a1,1,0,0,1-1-1V41.56a1,1,0,0,1,1-1h58.32a1,1,0,0,1,1,1Z"/><path class="cls-1" d="M110,34.77H80.75c0-.81.09-1.61.19-2.41a10.47,10.47,0,0,1,10.17-9c2.78-.13,5.57-.12,8.34,0a10.78,10.78,0,0,1,10.46,10.25C109.94,34,110,34.38,110,34.77Z"/><path class="cls-1" d="M104,12.73a8.62,8.62,0,0,1-8.84,8.45,8.48,8.48,0,0,1-8.35-8.86A8.62,8.62,0,0,1,95.53,4,8.76,8.76,0,0,1,104,12.73Z"/><path class="cls-1" d="M124.53,0H66.22a1.76,1.76,0,0,0-1.76,1.76v34.1a1.75,1.75,0,0,0,1.76,1.75h58.31a1.75,1.75,0,0,0,1.76-1.75V1.76A1.76,1.76,0,0,0,124.53,0Zm1,33.56a1,1,0,0,1-1,1H66.22a1,1,0,0,1-1-1V1.75a1,1,0,0,1,1-1h58.32a1,1,0,0,1,1,1Z"/></svg>