<svg id="Layer_1" data-name="Layer 1" xmlns="http://www.w3.org/2000/svg" xmlns:xlink="http://www.w3.org/1999/xlink" viewBox="0 0 574.08 224.23"><defs><style>.cls-1,.cls-55{fill:none;}.cls-2{isolation:isolate;}.cls-3{clip-path:url(#clip-path);}.cls-4{fill:#627d2a;}.cls-5{fill:#8cb02e;}.cls-6{clip-path:url(#clip-path-2);}.cls-7{fill:#6c872b;}.cls-8{fill:#6f8a2a;}.cls-9{fill:#728d2b;}.cls-10{fill:#74902b;}.cls-11{fill:#77922a;}.cls-12{fill:#6a842a;}.cls-13{fill:#67812a;}.cls-14{fill:#63802b;}.cls-15{fill:#93ba30;}.cls-16{clip-path:url(#clip-path-3);}.cls-17{fill:#79952a;}.cls-18{fill:#7c982a;}.cls-19{fill:#7d9b2a;}.cls-20{fill:#819e29;}.cls-21{fill:#81a22c;}.cls-22{fill:#82a52b;}.cls-23{fill:#85a82d;}.cls-24{fill:#87a92d;}.cls-25{fill:#8aad2d;}.cls-26{fill:#8baf2d;}.cls-27{fill:#8eb22f;}.cls-28{fill:#8fb52f;}.cls-29{fill:#91b72f;}.cls-30{fill:#93bb30;}.cls-31{fill:#97be2f;}.cls-32{fill:#99c130;}.cls-33{fill:#a6c64d;}.cls-34{fill:#abc959;}.cls-35{fill:#b1cc61;}.cls-36{fill:#b3ce69;}.cls-37{fill:#b6d070;}.cls-38{fill:#bad175;}.cls-39{fill:#bcd27a;}.cls-40{fill:#bed47f;}.cls-41{fill:#c0d580;}.cls-42{clip-path:url(#clip-path-4);}.cls-43{clip-path:url(#clip-path-5);}.cls-44{fill:#69902d;}.cls-45{clip-path:url(#clip-path-6);}.cls-46{fill:#9bc332;}.cls-47{fill:#7b972a;}.cls-48{clip-path:url(#clip-path-7);}.cls-49{clip-path:url(#clip-path-8);}.cls-50{clip-path:url(#clip-path-9);}.cls-51{fill:url(#radial-gradient);}.cls-52{opacity:0.2;}.cls-53,.cls-56{fill:#fff;}.cls-54{fill:#0083ae;}.cls-55{stroke:#fff;stroke-miterlimit:10;stroke-width:0.92px;}.cls-56{font-size:24.04px;font-family:Lato-Heavy, Lato;font-weight:800;letter-spacing:0.22em;}.cls-57{letter-spacing:0.2em;}.cls-58{letter-spacing:0.22em;}.cls-59{letter-spacing:0.2em;}.cls-60{letter-spacing:0.19em;}.cls-61{font-size:16.72px;letter-spacing:0.22em;}</style><clipPath id="clip-path"><path class="cls-1" d="M551.18,124.09l-.52,1.73a21.54,21.54,0,0,0,.77-8.27,26.76,26.76,0,0,0-2.6-9.06,36.07,36.07,0,0,0-4.74-7.36l.51-1.73a36.55,36.55,0,0,1,4.75,7.36,27.22,27.22,0,0,1,2.6,9.06A21.94,21.94,0,0,1,551.18,124.09Z"/></clipPath><clipPath id="clip-path-2"><path class="cls-1" d="M572.77,130.51l-.51,1.74c-5.76,19.38-29.93,31.55-60.29,28.39a97.94,97.94,0,0,1-18.62-3.82,96.37,96.37,0,0,1-20-8.73l.51-1.74a96.62,96.62,0,0,0,20,8.74,97.31,97.31,0,0,0,18.62,3.81C542.85,162.07,567,149.9,572.77,130.51Z"/></clipPath><clipPath id="clip-path-3"><path class="cls-1" d="M497.65,201.66l-2.14-.26a21.78,21.78,0,0,1-4.34-1c-23.58-7.94-35.77-54-27.22-102.8a169.1,169.1,0,0,1,6-24.15,124.05,124.05,0,0,1,12.22-26.68l2.13.26a124.63,124.63,0,0,0-12.22,26.69,170.64,170.64,0,0,0-6,24.14c-8.55,48.84,3.64,94.87,27.23,102.81A22.13,22.13,0,0,0,497.65,201.66Z"/></clipPath><clipPath id="clip-path-4"><path class="cls-1" d="M517.82,22.56l2.13.27a22.7,22.7,0,0,0-7.91.43c-6,1.34-11.85,5-17.38,10.52l-2.13-.27C498.05,28,504,24.33,509.91,23A22.94,22.94,0,0,1,517.82,22.56Z"/></clipPath><clipPath id="clip-path-5"><path class="cls-1" d="M494.84,224l-2.13-.26a28.87,28.87,0,0,0,10.29-.63c7.62-1.83,15.16-6.67,22.2-14l2.13.27c-7,7.29-14.57,12.13-22.2,14A28.42,28.42,0,0,1,494.84,224Z"/></clipPath><clipPath id="clip-path-6"><path class="cls-1" d="M522.82.62l6.06,1.45c29.47,9.92,44,67.11,33.28,128.15a214.67,214.67,0,0,1-7.3,29.46,153.16,153.16,0,0,1-17.16,36.66l-2.13-.27a152.77,152.77,0,0,0,17.15-36.66A212.86,212.86,0,0,0,560,130"/></clipPath><clipPath id="clip-path-7"><path class="cls-1" d="M464.27,100.13l.52-1.74c3.83-12.92,19.94-21,40.18-18.92A65.63,65.63,0,0,1,528,86.37l-.51,1.74a63.59,63.59,0,0,0-11-4.45,65.38,65.38,0,0,0-12.1-2.46C484.22,79.09,468.11,87.2,464.27,100.13Z"/></clipPath><clipPath id="clip-path-8"><path class="cls-1" d="M442.66,93.71l.52-1.74a32.39,32.39,0,0,0-1.15,12.4l-.52,1.73A32.73,32.73,0,0,1,442.66,93.71Z"/></clipPath><clipPath id="clip-path-9"><path class="cls-1" d="M457.09,133.48l-.52,1.74a57.11,57.11,0,0,1-11.32-15.86,40.33,40.33,0,0,1-3.74-13.26l.52-1.73a40.62,40.62,0,0,0,3.73,13.26A57.1,57.1,0,0,0,457.09,133.48Z"/></clipPath><radialGradient id="radial-gradient" cx="-291.08" cy="84.14" fx="-302.7307685419552" fy="62.04353553440656" r="24.98" gradientTransform="translate(809.07 126.51) rotate(18.61)" gradientUnits="userSpaceOnUse"><stop offset="0" stop-color="#69902d" stop-opacity="0"/><stop offset="0.13" stop-color="#69902d" stop-opacity="0.03"/><stop offset="0.26" stop-color="#69902d" stop-opacity="0.11"/><stop offset="0.39" stop-color="#69902d" stop-opacity="0.25"/><stop offset="0.51" stop-color="#69902d" stop-opacity="0.44"/><stop offset="0.64" stop-color="#69902d" stop-opacity="0.69"/><stop offset="0.77" stop-color="#69902d" stop-opacity="0.99"/><stop offset="0.77" stop-color="#69902d"/></radialGradient></defs><g class="cls-2"><g class="cls-3"><g class="cls-2"><path class="cls-4" d="M551.18,124.09l-.52,1.73a21.54,21.54,0,0,0,.77-8.27,26.76,26.76,0,0,0-2.6-9.06,36.07,36.07,0,0,0-4.74-7.36l.51-1.73a36.55,36.55,0,0,1,4.75,7.36,27.22,27.22,0,0,1,2.6,9.06,21.94,21.94,0,0,1-.77,8.27"/></g></g></g><path class="cls-5" d="M473.88,146.35l14.82-9.84A65.22,65.22,0,0,0,511,143c24.28,2.53,42.63-9.64,41-27.2a27.22,27.22,0,0,0-2.6-9.06,36.55,36.55,0,0,0-4.75-7.36l14.81-9.84a57.21,57.21,0,0,1,10.62,15,40.4,40.4,0,0,1,3.89,13.6c2.49,26.32-25,44.59-61.44,40.79a97.31,97.31,0,0,1-18.62-3.81A96.62,96.62,0,0,1,473.88,146.35Z"/><g class="cls-2"><g class="cls-6"><g class="cls-2"><path class="cls-7" d="M572.77,130.51l-.51,1.74a32.05,32.05,0,0,1-1.8,4.66l.51-1.74a30.54,30.54,0,0,0,1.8-4.66"/><path class="cls-8" d="M571,135.17l-.51,1.74a33.28,33.28,0,0,1-3.07,5.11l.52-1.73a32.53,32.53,0,0,0,3.06-5.12"/><path class="cls-9" d="M567.91,140.29l-.52,1.73a37.17,37.17,0,0,1-4.76,5.33l.52-1.74a37.16,37.16,0,0,0,4.76-5.32"/><path class="cls-10" d="M563.15,145.61l-.52,1.74a44.83,44.83,0,0,1-9,6.38l.52-1.74a44.6,44.6,0,0,0,9-6.38"/><path class="cls-11" d="M554.15,152l-.52,1.74a62.4,62.4,0,0,1-21.35,6.69l.52-1.73a62.26,62.26,0,0,0,21.35-6.7"/><path class="cls-10" d="M532.8,158.69l-.52,1.73a82.94,82.94,0,0,1-13.45.68l.51-1.74a83,83,0,0,0,13.46-.67"/><path class="cls-9" d="M519.34,159.36l-.51,1.74c-2.25-.07-4.53-.22-6.86-.46-1-.11-2-.23-3-.36l.51-1.74c1,.14,2,.26,3,.36q3.49.38,6.86.46"/><path class="cls-8" d="M509.5,158.54l-.51,1.74q-4.28-.59-8.43-1.53l.51-1.74c2.77.63,5.59,1.15,8.43,1.53"/><path class="cls-7" d="M501.07,157l-.51,1.74c-2.44-.56-4.85-1.2-7.21-1.93l-.65-.2.52-1.74.64.21c2.36.72,4.77,1.37,7.21,1.92"/><path class="cls-12" d="M493.22,154.88l-.52,1.74c-2.6-.83-5.16-1.76-7.65-2.78l.52-1.73c2.49,1,5,1.95,7.65,2.77"/><path class="cls-13" d="M485.57,152.11l-.52,1.73c-2.75-1.13-5.43-2.38-8-3.73l.51-1.73c2.59,1.35,5.26,2.6,8,3.73"/><path class="cls-14" d="M477.55,148.38l-.51,1.73c-1.25-.65-2.47-1.33-3.67-2l.51-1.74c1.2.7,2.43,1.38,3.67,2"/></g></g></g><polygon class="cls-15" points="477.36 28.48 479.5 28.74 484.34 47.03 482.21 46.77 477.36 28.48"/><g class="cls-2"><g class="cls-16"><g class="cls-2"><path class="cls-10" d="M482.21,46.77l2.13.26c-.47.75-.93,1.51-1.38,2.29l-2.14-.27c.46-.77.92-1.53,1.39-2.28"/><path class="cls-11" d="M480.82,49.05l2.14.27c-.53.9-1,1.82-1.56,2.75l-2.14-.26q.78-1.41,1.56-2.76"/><path class="cls-17" d="M479.26,51.81l2.14.26c-.5.91-1,1.84-1.48,2.79l-2.13-.27c.48-.94,1-1.87,1.47-2.78"/><path class="cls-18" d="M477.79,54.59l2.13.27c-.47.92-.94,1.87-1.39,2.83l-2.14-.27c.46-1,.93-1.9,1.4-2.83"/><path class="cls-19" d="M476.39,57.42l2.14.27c-.45.94-.89,1.89-1.33,2.86l-2.13-.26c.43-1,.87-1.93,1.32-2.87"/><path class="cls-20" d="M475.07,60.29l2.13.26c-.43,1-.85,1.94-1.26,2.93l-2.14-.27c.42-1,.84-2,1.27-2.92"/><path class="cls-21" d="M473.8,63.21l2.14.27c-.41,1-.81,2-1.2,3l-2.14-.26c.4-1,.8-2,1.2-3"/><path class="cls-22" d="M472.6,66.19l2.14.26c-.39,1-.77,2-1.14,3l-2.14-.27c.38-1,.75-2,1.14-3"/><path class="cls-23" d="M471.46,69.2l2.14.27c-.37,1-.72,2-1.07,3l-2.13-.27c.35-1,.7-2,1.06-3"/><path class="cls-24" d="M470.4,72.22l2.13.27c-.14.4-.28.81-.41,1.23-.2.59-.39,1.18-.58,1.78l-2.13-.27c.19-.59.38-1.19.58-1.78.13-.41.27-.82.41-1.23"/><path class="cls-25" d="M469.41,75.23l2.13.27c-.31,1-.62,2-.91,3l-2.14-.26c.3-1,.6-2,.92-3"/><path class="cls-26" d="M468.49,78.21l2.14.26c-.28.94-.56,1.89-.82,2.84l-2.13-.26c.26-1,.53-1.9.81-2.84"/><path class="cls-27" d="M467.68,81.05l2.13.26c-.25.89-.49,1.79-.72,2.69L467,83.74c.24-.91.48-1.8.73-2.69"/><path class="cls-28" d="M467,83.74l2.14.26c-.22.84-.43,1.68-.64,2.53l-2.13-.27c.2-.85.42-1.69.63-2.52"/><path class="cls-29" d="M466.32,86.26l2.13.27c-.19.79-.38,1.58-.56,2.38l-2.13-.27c.18-.8.37-1.59.56-2.38"/><path class="cls-30" d="M465.76,88.64l2.13.27c-.17.75-.34,1.5-.5,2.26l-2.13-.27c.16-.76.32-1.51.5-2.26"/><path class="cls-31" d="M465.26,90.9l2.13.27c-.16.71-.31,1.43-.45,2.15l-2.13-.26c.14-.73.29-1.44.45-2.16"/><path class="cls-32" d="M464.81,93.06l2.13.26c-.14.7-.28,1.39-.41,2.1l-2.13-.27c.13-.7.27-1.4.41-2.09"/><path class="cls-33" d="M464.4,95.15l2.13.27c-.13.67-.25,1.35-.37,2L464,97.18c.12-.68.25-1.36.38-2"/><path class="cls-34" d="M464,97.18l2.14.27c0,.14-.05.27-.08.41-.09.56-.19,1.12-.28,1.68l-2.14-.26c.1-.56.19-1.12.29-1.68,0-.14.05-.28.07-.42"/><path class="cls-35" d="M463.66,99.28l2.14.26c-.12.71-.23,1.41-.34,2.11l-2.13-.27.33-2.1"/><path class="cls-36" d="M463.33,101.38l2.13.27c-.11.7-.21,1.4-.31,2.1l-2.13-.27c.1-.7.2-1.4.31-2.1"/><path class="cls-37" d="M463,103.48l2.13.27c-.11.76-.21,1.52-.31,2.28l-2.13-.27c.1-.75.2-1.51.31-2.28"/><path class="cls-38" d="M462.71,105.76l2.13.27c-.11.89-.22,1.77-.32,2.65l-2.13-.26c.1-.89.2-1.77.32-2.66"/><path class="cls-39" d="M462.39,108.42l2.13.26c-.1.89-.2,1.77-.29,2.65l-2.13-.27c.09-.88.18-1.76.29-2.64"/><path class="cls-40" d="M462.1,111.06l2.13.27c-.15,1.54-.28,3.07-.4,4.6l-2.13-.27c.12-1.53.25-3.06.4-4.6"/><path class="cls-41" d="M461.7,115.66l2.13.27c-.26,3.57-.41,7.11-.46,10.59l-2.14-.27q.07-5.22.47-10.59"/><path class="cls-40" d="M461.23,126.25l2.14.27c0,1.18,0,2.35,0,3.51l-2.14-.26c0-1.17,0-2.34,0-3.52"/><path class="cls-39" d="M461.22,129.77l2.14.26c0,1.16,0,2.3.05,3.44l-2.13-.26c0-1.14,0-2.29-.06-3.44"/><path class="cls-38" d="M461.28,133.21l2.13.26c0,.89.06,1.77.1,2.64l-2.13-.27c0-.87-.07-1.75-.1-2.63"/><path class="cls-37" d="M461.38,135.84l2.13.27c0,.88.08,1.75.14,2.61l-2.14-.26c-.05-.87-.1-1.74-.13-2.62"/><path class="cls-36" d="M461.51,138.46l2.14.26c.05.89.11,1.76.18,2.64l-2.14-.27-.18-2.63"/><path class="cls-35" d="M461.69,141.09l2.14.27c.07.89.14,1.78.23,2.67l-2.13-.27q-.14-1.32-.24-2.67"/><path class="cls-34" d="M461.93,143.76l2.13.27q.12,1.32.27,2.64l-2.13-.27q-.15-1.31-.27-2.64"/><path class="cls-33" d="M462.2,146.4l2.13.27c.12,1,.25,2.06.39,3.08l-2.13-.27c-.14-1-.27-2-.39-3.08"/><path class="cls-32" d="M462.59,149.48l2.13.27c.14,1,.29,2,.45,3l-2.14-.26c-.16-1-.3-2-.44-3"/><path class="cls-31" d="M463,152.51l2.14.26c.18,1.18.38,2.35.6,3.5l-2.13-.27c-.22-1.15-.42-2.31-.61-3.49"/><path class="cls-30" d="M463.64,156l2.13.27c.22,1.17.46,2.34.71,3.48l-2.14-.26c-.25-1.15-.48-2.31-.7-3.49"/><path class="cls-29" d="M464.34,159.49l2.14.26c.26,1.22.54,2.41.84,3.59l-2.14-.27c-.29-1.17-.57-2.37-.84-3.58"/><path class="cls-28" d="M465.18,163.07l2.14.27c.29,1.17.6,2.31.93,3.44l-2.14-.27c-.32-1.12-.63-2.27-.93-3.44"/><path class="cls-27" d="M466.11,166.51l2.14.27c.32,1.12.66,2.22,1,3.3l-2.14-.27c-.35-1.08-.68-2.18-1-3.3"/><path class="cls-26" d="M467.12,169.81l2.14.27c.33,1,.67,2,1,3l-2.13-.27c-.36-1-.7-2-1-3"/><path class="cls-25" d="M468.16,172.8l2.13.27c.35,1,.72,1.9,1.1,2.83l-2.14-.27c-.37-.92-.74-1.87-1.09-2.83"/><path class="cls-24" d="M469.25,175.63l2.14.27c.36.88.73,1.75,1.12,2.61l-2.14-.27c-.38-.85-.75-1.72-1.12-2.61"/><path class="cls-23" d="M470.37,178.24l2.14.27c.37.83.76,1.64,1.16,2.44l-2.13-.27c-.4-.79-.79-1.61-1.17-2.44"/><path class="cls-22" d="M471.54,180.68l2.13.27q.58,1.17,1.2,2.28l-2.14-.27c-.41-.74-.8-1.5-1.19-2.28"/><path class="cls-21" d="M472.73,183l2.14.27c.4.73.81,1.44,1.24,2.14L474,185.1c-.42-.69-.83-1.41-1.24-2.14"/><path class="cls-20" d="M474,185.1l2.14.27c.41.69.84,1.36,1.28,2l-2.13-.27q-.66-1-1.29-2"/><path class="cls-19" d="M475.26,187.11l2.13.27c.44.65.88,1.28,1.34,1.89L476.6,189c-.46-.61-.91-1.25-1.34-1.9"/><path class="cls-18" d="M476.6,189l2.13.26c.46.62.92,1.21,1.4,1.78l-2.14-.26c-.47-.57-.94-1.17-1.39-1.78"/><path class="cls-17" d="M478,190.79l2.14.26c.48.59,1,1.15,1.47,1.69l-2.13-.26c-.5-.54-1-1.11-1.48-1.69"/><path class="cls-11" d="M479.47,192.48l2.13.26c.51.55,1,1.07,1.55,1.57l-2.14-.26c-.52-.5-1-1-1.54-1.57"/><path class="cls-10" d="M481,194.05l2.14.26c.54.53,1.1,1,1.67,1.5l-2.14-.26c-.56-.48-1.12-1-1.67-1.5"/><path class="cls-9" d="M482.68,195.55l2.14.26c.57.48,1.16.93,1.75,1.36l-2.13-.27c-.6-.42-1.18-.87-1.76-1.35"/><path class="cls-8" d="M484.44,196.9l2.13.27c.65.47,1.31.9,2,1.3l-2.14-.26c-.67-.4-1.33-.84-2-1.31"/><path class="cls-7" d="M486.42,198.21l2.14.26c.71.42,1.43.81,2.16,1.16l-2.13-.27c-.74-.35-1.46-.73-2.17-1.15"/><path class="cls-12" d="M488.59,199.36l2.13.27c.8.37,1.61.7,2.44,1l-2.13-.27a22.26,22.26,0,0,1-2.44-1"/><path class="cls-13" d="M491,200.35l2.13.27.15,0a20.93,20.93,0,0,0,2.74.73l-2.13-.26a22.84,22.84,0,0,1-2.75-.74l-.14-.05"/><path class="cls-14" d="M493.92,201.14l2.13.26c.53.11,1.06.2,1.6.26l-2.14-.26c-.53-.07-1.06-.15-1.59-.26"/></g></g></g><g class="cls-2"><g class="cls-42"><g class="cls-2"><path class="cls-4" d="M517.82,22.56l2.13.27a22.7,22.7,0,0,0-7.91.43,32.1,32.1,0,0,0-12.39,6.12l-2.13-.27A32.17,32.17,0,0,1,509.91,23a22.94,22.94,0,0,1,7.91-.43"/><path class="cls-14" d="M497.52,29.11l2.13.27q-1.9,1.46-3.76,3.2l-2.13-.26a47.5,47.5,0,0,1,3.76-3.21"/><path class="cls-13" d="M493.76,32.32l2.13.26q-.61.59-1.23,1.2l-2.13-.27c.41-.41.82-.8,1.23-1.19"/></g></g></g><g class="cls-2"><g class="cls-43"><g class="cls-2"><path class="cls-13" d="M525.2,209.16l2.13.27c-.79.82-1.59,1.61-2.39,2.37l-2.14-.27q1.22-1.14,2.4-2.37"/><path class="cls-14" d="M522.8,211.53l2.14.27a62,62,0,0,1-4.74,4l-2.13-.27a59.72,59.72,0,0,0,4.73-4"/><path class="cls-4" d="M518.07,215.57l2.13.27a40.64,40.64,0,0,1-15.07,7.55,28.42,28.42,0,0,1-10.29.63l-2.13-.26a28.87,28.87,0,0,0,10.29-.63,40.67,40.67,0,0,0,15.07-7.56"/></g></g></g><path class="cls-44" d="M477.36,28.47l4.85,18.3A124.05,124.05,0,0,0,470,73.45a169.1,169.1,0,0,0-6,24.15c-8.55,48.84,3.64,94.86,27.22,102.8a22.4,22.4,0,0,0,12.56.5c5.69-1.37,11.33-4.83,16.63-10l4.84,18.29c-7,7.3-14.58,12.14-22.2,14a28,28,0,0,1-15.7-.61c-29.48-9.93-44.71-67.47-34-128.52a212,212,0,0,1,7.54-30.18A153.1,153.1,0,0,1,477.36,28.47Z"/><polygon class="cls-15" points="520.36 190.87 522.49 191.13 527.33 209.43 525.2 209.16 520.36 190.87"/><path class="cls-44" d="M526,1.45c29.47,9.93,44.7,67.46,34,128.5a212.86,212.86,0,0,1-7.31,29.46,152.77,152.77,0,0,1-17.15,36.66l-4.84-18.28a125.07,125.07,0,0,0,12.78-27.87,170.11,170.11,0,0,0,5.84-23.56c8.55-48.83-3.63-94.87-27.21-102.81A22.35,22.35,0,0,0,509.91,23c-6,1.34-11.86,5-17.38,10.52l-4.84-18.28C495,7.55,502.8,2.53,510.72.74A27.94,27.94,0,0,1,526,1.45Z"/><g class="cls-2"><g class="cls-45"><g class="cls-2"><path class="cls-12" d="M522.26.49l4.21,1c1.3.52,3.9,1.06,4.9,1.53l-2.13-.27c-1-.47-3.69-1.39-4.72-1.75"/><path class="cls-7" d="M529.24,2.75l2.13.27a30.68,30.68,0,0,1,2.71,1.44l-2.14-.27c-.88-.52-1.79-1-2.7-1.44"/><path class="cls-8" d="M531.94,4.19l2.14.27c.84.5,1.66,1,2.48,1.63l-2.14-.27c-.81-.58-1.64-1.12-2.48-1.63"/><path class="cls-9" d="M534.42,5.82l2.14.27c.74.53,1.47,1.1,2.19,1.7l-2.14-.27c-.71-.6-1.44-1.17-2.19-1.7"/><path class="cls-10" d="M536.61,7.52l2.14.27c.7.59,1.4,1.21,2.09,1.87l-2.14-.27c-.68-.65-1.38-1.28-2.09-1.87"/><path class="cls-11" d="M538.7,9.39l2.14.27c.65.62,1.29,1.28,1.93,2l-2.14-.27c-.63-.68-1.27-1.33-1.93-2"/><path class="cls-17" d="M540.63,11.35l2.14.27c.62.68,1.24,1.38,1.84,2.11l-2.13-.27c-.61-.73-1.22-1.43-1.85-2.11"/><path class="cls-18" d="M542.48,13.46l2.13.27q.89,1.08,1.74,2.22l-2.13-.26c-.57-.77-1.15-1.51-1.74-2.23"/><path class="cls-19" d="M544.22,15.69l2.13.26c.57.77,1.13,1.56,1.68,2.38l-2.13-.27c-.55-.81-1.11-1.61-1.68-2.37"/><path class="cls-20" d="M545.9,18.06l2.13.27c.54.81,1.08,1.65,1.6,2.51l-2.13-.27c-.52-.86-1.06-1.7-1.6-2.51"/><path class="cls-21" d="M547.5,20.57l2.13.27c.53.86,1,1.76,1.55,2.67l-2.13-.26c-.51-.92-1-1.81-1.55-2.68"/><path class="cls-22" d="M549.05,23.25l2.13.26q.77,1.39,1.5,2.85l-2.14-.27c-.48-1-1-1.92-1.49-2.84"/><path class="cls-23" d="M550.54,26.09l2.14.27c.49,1,1,2,1.45,3.05L552,29.15c-.47-1-1-2.06-1.46-3.06"/><path class="cls-24" d="M552,29.15l2.13.26c.48,1.07,1,2.16,1.4,3.27l-2.13-.27c-.45-1.11-.92-2.2-1.4-3.26"/><path class="cls-25" d="M553.4,32.41l2.13.27c.47,1.15.93,2.33,1.37,3.53L554.77,36c-.44-1.21-.9-2.39-1.37-3.54"/><path class="cls-26" d="M554.77,36l2.13.26c.45,1.22.88,2.47,1.29,3.74l-2.13-.27c-.42-1.27-.85-2.51-1.29-3.73"/><path class="cls-27" d="M556.06,39.68l2.13.27c.44,1.35.86,2.72,1.27,4.12l-2.14-.27c-.4-1.39-.82-2.77-1.26-4.12"/><path class="cls-28" d="M557.32,43.8l2.14.27c.4,1.41.79,2.84,1.16,4.3l-2.14-.27c-.36-1.45-.75-2.89-1.16-4.3"/><path class="cls-29" d="M558.48,48.1l2.14.27c.37,1.47.72,3,1,4.49l-2.13-.27c-.33-1.52-.69-3-1.06-4.49"/><path class="cls-30" d="M559.54,52.59l2.13.27c.31,1.43.61,2.88.88,4.35L560.42,57c-.28-1.47-.57-2.93-.88-4.36"/><path class="cls-31" d="M560.42,57l2.13.26c.27,1.44.52,2.9.76,4.37l-2.14-.27c-.23-1.47-.48-2.92-.75-4.36"/><path class="cls-32" d="M561.17,61.31l2.14.27c.2,1.25.38,2.51.56,3.78l-2.14-.27c-.17-1.27-.36-2.53-.56-3.78"/><path class="cls-33" d="M561.73,65.09l2.14.27c.17,1.27.33,2.56.48,3.85L562.21,69c-.14-1.3-.3-2.58-.48-3.86"/><path class="cls-34" d="M562.21,69l2.14.26c.12,1.1.24,2.2.34,3.31l-2.13-.27c-.11-1.11-.22-2.21-.35-3.3"/><path class="cls-35" d="M562.56,72.25l2.13.27c.11,1.1.2,2.21.29,3.33l-2.13-.26c-.09-1.12-.19-2.23-.29-3.34"/><path class="cls-36" d="M562.85,75.59l2.13.26c.09,1.09.16,2.19.23,3.3l-2.13-.27c-.07-1.1-.15-2.2-.23-3.29"/><path class="cls-37" d="M563.08,78.88l2.13.27c.06,1.08.12,2.17.17,3.26l-2.13-.26c0-1.1-.11-2.18-.17-3.27"/><path class="cls-38" d="M563.25,82.15l2.13.26q.07,1.65.12,3.3l-2.14-.26c0-1.11-.07-2.21-.11-3.3"/><path class="cls-39" d="M563.36,85.45l2.14.26c0,1.42.06,2.86.07,4.3l-2.13-.27c0-1.44,0-2.87-.08-4.29"/><path class="cls-40" d="M563.44,89.74l2.13.27c0,1.46,0,2.92,0,4.39l-2.13-.26c0-1.48,0-2.94,0-4.4"/><path class="cls-41" d="M563.42,94.14l2.13.26q-.07,6.52-.58,13.24l-2.13-.27c.33-4.46.52-8.88.58-13.23"/><path class="cls-40" d="M562.84,107.37l2.13.27q-.21,2.86-.5,5.75l-2.13-.26q.28-2.89.5-5.76"/><path class="cls-39" d="M562.34,113.13l2.13.26c-.11,1.1-.23,2.2-.35,3.3l-2.14-.26c.13-1.1.25-2.21.36-3.3"/><path class="cls-38" d="M562,116.43l2.14.26c-.13,1.11-.26,2.21-.41,3.32l-2.13-.27c.14-1.1.28-2.21.4-3.31"/><path class="cls-37" d="M561.58,119.74l2.13.27c-.12.95-.25,1.9-.38,2.85l-2.14-.27q.21-1.43.39-2.85"/><path class="cls-36" d="M561.19,122.59l2.14.27-.39,2.63-2.13-.27c.13-.88.26-1.75.38-2.63"/><path class="cls-35" d="M560.81,125.22l2.13.27-.42,2.63-2.14-.27c.15-.88.29-1.75.43-2.63"/><path class="cls-34" d="M560.38,127.85l2.14.27-.36,2.1-.09.51-2.13-.27L560,130c.12-.7.24-1.4.35-2.1"/><path class="cls-33" d="M559.94,130.46l2.13.27c-.15.86-.31,1.72-.47,2.57l-2.13-.27c.16-.85.31-1.71.47-2.57"/><path class="cls-32" d="M559.47,133l2.13.27-.51,2.6-2.13-.27.51-2.6"/><path class="cls-31" d="M559,135.63l2.13.27c-.18.9-.37,1.8-.56,2.69l-2.13-.26c.19-.9.38-1.8.56-2.7"/><path class="cls-30" d="M558.4,138.33l2.13.26c-.2.95-.41,1.89-.63,2.83l-2.13-.27q.32-1.4.63-2.82"/><path class="cls-29" d="M557.77,141.15l2.13.27c-.23,1-.46,2-.7,3l-2.13-.27c.24-1,.47-2,.7-3"/><path class="cls-28" d="M557.07,144.12l2.13.27c-.26,1.06-.52,2.11-.79,3.16l-2.14-.27c.28-1,.54-2.1.8-3.16"/><path class="cls-27" d="M556.27,147.28l2.14.27c-.3,1.12-.6,2.24-.9,3.34l-2.14-.26c.31-1.11.61-2.23.9-3.35"/><path class="cls-26" d="M555.37,150.63l2.14.26c-.33,1.2-.67,2.38-1,3.55l-2.13-.27c.34-1.17.68-2.35,1-3.54"/><path class="cls-25" d="M554.36,154.17l2.13.27c-.37,1.25-.75,2.49-1.14,3.71l-2.14-.27c.39-1.22.78-2.46,1.15-3.71"/><path class="cls-24" d="M553.21,157.88l2.14.27c-.16.51-.33,1-.49,1.53-.26.78-.52,1.56-.79,2.34l-2.13-.27q.4-1.16.78-2.34c.17-.51.33-1,.49-1.53"/><path class="cls-23" d="M551.94,161.75l2.13.27c-.43,1.27-.87,2.53-1.32,3.77l-2.14-.27c.46-1.24.9-2.5,1.33-3.77"/><path class="cls-22" d="M550.61,165.52l2.14.27c-.47,1.27-.94,2.52-1.42,3.76l-2.14-.27c.49-1.24,1-2.49,1.42-3.76"/><path class="cls-21" d="M549.19,169.28l2.14.27c-.49,1.25-1,2.49-1.5,3.71l-2.14-.27c.51-1.22,1-2.46,1.5-3.71"/><path class="cls-20" d="M547.69,173l2.14.27c-.52,1.23-1.05,2.45-1.58,3.65l-2.14-.27c.54-1.2,1.07-2.41,1.58-3.65"/><path class="cls-19" d="M546.11,176.64l2.14.27c-.54,1.21-1.1,2.41-1.66,3.58l-2.13-.27c.56-1.17,1.11-2.37,1.65-3.58"/><path class="cls-18" d="M544.46,180.22l2.13.27c-.57,1.2-1.15,2.37-1.74,3.53l-2.13-.27c.59-1.15,1.17-2.33,1.74-3.53"/><path class="cls-17" d="M542.72,183.75l2.13.27c-.61,1.18-1.22,2.34-1.84,3.48l-2.13-.27c.62-1.13,1.23-2.29,1.84-3.48"/><path class="cls-11" d="M540.88,187.23l2.13.27c-.64,1.17-1.29,2.32-2,3.44l-2.14-.26c.66-1.13,1.31-2.27,2-3.45"/><path class="cls-10" d="M538.92,190.68l2.14.26c-.69,1.17-1.38,2.31-2.09,3.42l-2.13-.26c.71-1.12,1.4-2.26,2.08-3.42"/><path class="cls-9" d="M536.84,194.1l2.13.26c-.42.67-.84,1.33-1.27,2l-2.13-.27,1.27-2"/></g></g></g><path class="cls-46" d="M514.91,90.76a22.53,22.53,0,1,0,11.39,34.09,22.53,22.53,0,0,0-11.39-34.09Z"/><polygon class="cls-47" points="542.81 76.57 542.3 78.3 527.53 88.11 528.04 86.37 542.81 76.57"/><g class="cls-2"><g class="cls-48"><g class="cls-2"><path class="cls-13" d="M528,86.37l-.51,1.74q-2.49-1.29-5.13-2.38l.52-1.73c1.76.72,3.47,1.52,5.12,2.37"/><path class="cls-12" d="M522.92,84l-.52,1.73c-1.63-.67-3.31-1.28-5-1.82l.51-1.73c1.72.54,3.39,1.15,5,1.82"/><path class="cls-7" d="M517.89,82.18l-.51,1.73-.82-.25c-1.49-.45-3-.86-4.53-1.2l.51-1.74c1.54.35,3.05.75,4.54,1.21l.81.25"/><path class="cls-8" d="M512.54,80.72,512,82.46q-2.76-.63-5.59-1l.52-1.73c1.88.26,3.75.6,5.58,1"/><path class="cls-9" d="M507,79.71l-.52,1.73q-1-.14-2-.24c-1.55-.16-3.08-.26-4.58-.3l.52-1.74c1.5,0,3,.15,4.57.31.67.07,1.33.15,2,.24"/><path class="cls-10" d="M500.4,79.16l-.52,1.74a53.36,53.36,0,0,0-9,.45l.51-1.74a55.74,55.74,0,0,1,9-.45"/><path class="cls-11" d="M491.43,79.61l-.51,1.74a41.22,41.22,0,0,0-14.23,4.46l.51-1.73a41.58,41.58,0,0,1,14.23-4.47"/><path class="cls-10" d="M477.2,84.08l-.51,1.73a29.61,29.61,0,0,0-6,4.25l.51-1.73a29.5,29.5,0,0,1,6-4.25"/><path class="cls-9" d="M471.2,88.33l-.51,1.73a24,24,0,0,0-3.17,3.55l.51-1.73a24.57,24.57,0,0,1,3.17-3.55"/><path class="cls-8" d="M468,91.88l-.51,1.73a21.56,21.56,0,0,0-2,3.41l.52-1.73a21.5,21.5,0,0,1,2-3.41"/><path class="cls-7" d="M466,95.29,465.47,97a21.26,21.26,0,0,0-1.2,3.11l.52-1.74a19.11,19.11,0,0,1,1.2-3.1"/></g></g></g><g class="cls-2"><g class="cls-49"><g class="cls-2"><path class="cls-4" d="M442,104.37l-.52,1.73a32.73,32.73,0,0,1,1.15-12.39l.52-1.74a32.39,32.39,0,0,0-1.15,12.4"/></g></g></g><path class="cls-5" d="M442,104.37c-2.49-26.32,25-44.58,61.44-40.78a97.59,97.59,0,0,1,18.16,3.67,96.34,96.34,0,0,1,21.18,9.31L528,86.37A65.63,65.63,0,0,0,505,79.47c-24.28-2.53-42.61,9.64-41,27.19a26.74,26.74,0,0,0,2.48,8.84,36.44,36.44,0,0,0,5.36,8.18l-14.77,9.8a57.1,57.1,0,0,1-11.33-15.85A40.62,40.62,0,0,1,442,104.37Z"/><polygon class="cls-47" points="471.86 123.68 471.34 125.41 456.57 135.22 457.09 133.49 471.86 123.68"/><g class="cls-2"><g class="cls-50"><g class="cls-2"><path class="cls-4" d="M457.09,133.48l-.52,1.74a57.11,57.11,0,0,1-11.32-15.86,40.33,40.33,0,0,1-3.74-13.26l.52-1.73a40.62,40.62,0,0,0,3.73,13.26,57.1,57.1,0,0,0,11.33,15.85"/></g></g></g><path class="cls-46" d="M515.14,90.09a22.55,22.55,0,0,0-25.68,8.47,22.17,22.17,0,0,0-2.86,5.69,22.53,22.53,0,0,0,39.93,19.93,22.87,22.87,0,0,0,2.77-5.55A22.53,22.53,0,0,0,515.14,90.09Z"/><path class="cls-51" d="M515.14,90.09a22.55,22.55,0,0,0-25.68,8.47,22.17,22.17,0,0,0-2.86,5.69,22.53,22.53,0,0,0,39.93,19.93,22.87,22.87,0,0,0,2.77-5.55A22.53,22.53,0,0,0,515.14,90.09Z"/><g class="cls-52"><circle class="cls-53" cx="505.18" cy="100.09" r="5.53"/></g><circle class="cls-53" cx="503.15" cy="95.07" r="2"/><g class="cls-52"><circle class="cls-53" cx="510.73" cy="103.32" r="4.24"/></g><path class="cls-53" d="M159.71,72.6c-4.15,0-7.5-1.48-7.5-6.31V3.52h5.32v61c0,2.27,1,3.36,3.76,3.36h39.57V72.6Z"/><path class="cls-53" d="M206.17,11.22V3.52h5.53v7.7Zm.2,9.08h5.13V72.6h-5.13Z"/><path class="cls-53" d="M222.35,28.59c0-5,1.58-8.29,7.1-8.29H248.7c10.85,0,15.1,5.82,15.1,16.08V72.6h-5.13V36.38c0-6.31-2.08-11.44-10-11.44H230.64c-2,0-3.16.39-3.16,3.75V72.6h-5.13Z"/><path class="cls-53" d="M302,20.3c8.69,0,12.54,4.84,12.54,13.12V65.69c0,4.64-1.28,6.91-7.6,6.91H286.78c-10.36,0-14.11-4.93-14.11-15.79s3.85-15.49,14.11-15.49h22.59V32.54c0-3.95-1.87-7.6-7.4-7.6H276.62V20.3ZM285.4,46C279.08,46,278,50.5,278,56.81S279.08,68,285.4,68h21.51a2.24,2.24,0,0,0,2.46-2.37V46Z"/><path class="cls-53" d="M325.16,38.26c0-11.84,5.62-18,17.46-18h3.55v4.64h-3.55c-8.88,0-12.33,4.64-12.33,14.5V72.6h-5.13Z"/><path class="cls-53" d="M399.45,46.35c0,18.75-7.1,26.84-25.85,26.84s-25.85-8.09-25.85-26.84,7.1-26.64,25.85-26.64S399.45,27.6,399.45,46.35ZM373.6,68.55c14.8,0,20.53-5.42,20.53-22.2s-5.73-22-20.53-22-20.52,5.23-20.52,22S358.8,68.55,373.6,68.55Z"/><path class="cls-46" d="M34.81,160.86C7.27,160.86,0,141.45,0,118.4S6.91,76,36,76H67.68v5.82H36c-21.84,0-29,13.59-29,36.63S13.71,155,34.93,155H69v5.82Z"/><path class="cls-46" d="M137,128.59c0,23-8.74,33-31.79,33s-31.78-10-31.78-33,8.73-32.75,31.78-32.75S137,105.55,137,128.59Zm-31.79,27.3c18.2,0,25.23-6.67,25.23-27.3s-7-27-25.23-27-25.23,6.42-25.23,27S87,155.89,105.16,155.89Z"/><path class="cls-46" d="M147.85,106.76c0-6.19,2-10.19,8.74-10.19h23.65c13.34,0,18.56,7.16,18.56,19.77v44.52h-6.31V116.34c0-7.76-2.54-14.07-12.25-14.07H158c-2.42,0-3.88.49-3.88,4.61v54h-6.31Z"/><path class="cls-46" d="M211.89,106.76c0-6.19,2-10.19,8.74-10.19h23.65c13.34,0,18.56,7.16,18.56,19.77v44.52h-6.31V116.34c0-7.76-2.54-14.07-12.25-14.07h-22.2c-2.42,0-3.88.49-3.88,4.61v54h-6.31Z"/><path class="cls-46" d="M296,160.86c-17.71,0-22.2-13.34-22.2-31.66,0-21.71,5.83-33.36,27.54-33.36,15.89,0,27.65,6.31,27.65,24.51,0,7.39-1.93,10.55-9.21,10.55H280.3c0,11.28,1.94,24.26,15.65,24.26h31.54v5.7Zm23.78-35.66a2.65,2.65,0,0,0,2.67-2.91v-.85c0-15.77-7.77-19.89-21-19.89-14.31,0-21.11,5.21-21.11,23.65Z"/><path class="cls-46" d="M364.84,160.86c-21.83,0-27.17-11.52-27.17-32.14,0-19.41,5.34-32.15,27.17-32.15h21.59v5.7H364.84c-17,0-20.62,9.46-20.62,26.45,0,18.19,3.64,26.44,20.62,26.44h23.05v5.7Z"/><path class="cls-46" d="M419.78,160.86c-17.46,0-17.46-10.19-17.46-20.38V102.27H392.25v-5.7h10.07V76h6.31V96.57h17.22v5.7H408.63v40c0,10.07,2.66,12.86,12.61,12.86h4.61v5.7Z"/><path class="cls-54" d="M426,202.93c0-15.68-5.28-21.06-20.14-21.19H25.44v0c-14.67.16-20,5.55-20,21.18s5.37,21,20,21.2H405.89C420.75,224,426,218.62,426,202.93Z"/><path class="cls-55" d="M26.64,220.45l-1.17,0c-11.32-.12-16.37-2.68-16.37-17.5s5.05-17.37,16.38-17.49l1.4,0H404.64l1.22,0c14.19.12,16.47,5.26,16.47,17.49s-2.28,17.38-16.47,17.51H26.64Z"/><text class="cls-56" transform="translate(27.12 211.17)">VI<tspan class="cls-57" x="34.73" y="0">R</tspan><tspan class="cls-58" x="55.22" y="0">T</tspan><tspan class="cls-59" x="75.03" y="0">U</tspan><tspan x="97.79" y="0">A</tspan><tspan class="cls-60" x="119.95" y="0">L</tspan><tspan x="137.07" y="0"> </tspan><tspan class="cls-61" x="148.06" y="0" xml:space="preserve">  </tspan><tspan x="163.36" y="0" xml:space="preserve"> SPRING 2021</tspan></text><circle class="cls-53" cx="180.49" cy="202.28" r="4.41"/></svg>