<svg id="Layer_1" data-name="Layer 1" xmlns="http://www.w3.org/2000/svg" xmlns:xlink="http://www.w3.org/1999/xlink" viewBox="0 0 278.94 107.45"><defs><style>.cls-1{fill:none;}.cls-2{isolation:isolate;}.cls-3{clip-path:url(#clip-path);}.cls-4{fill:#758c2a;}.cls-5{fill:#9cbb3b;}.cls-6{clip-path:url(#clip-path-2);}.cls-7{fill:#7f962d;}.cls-8{fill:#81982d;}.cls-9{fill:#839b2e;}.cls-10{fill:#869e30;}.cls-11{fill:#89a131;}.cls-12{fill:#7d932d;}.cls-13{fill:#79902c;}.cls-14{fill:#768f2a;}.cls-15{fill:#a3c33f;}.cls-16{clip-path:url(#clip-path-3);}.cls-17{fill:#8ba433;}.cls-18{fill:#8da634;}.cls-19{fill:#8fa936;}.cls-20{fill:#92ab37;}.cls-21{fill:#92ae38;}.cls-22{fill:#93b037;}.cls-23{fill:#96b338;}.cls-24{fill:#98b538;}.cls-25{fill:#9ab839;}.cls-26{fill:#9cbb3a;}.cls-27{fill:#9ebd3c;}.cls-28{fill:#9fbf3d;}.cls-29{fill:#a1c13d;}.cls-30{fill:#a3c33e;}.cls-31{fill:#a5c63f;}.cls-32{fill:#a7c840;}.cls-33{fill:#b4ce60;}.cls-34{fill:#bad06a;}.cls-35{fill:#bdd274;}.cls-36{fill:#bfd47b;}.cls-37{fill:#c3d681;}.cls-38{fill:#c5d786;}.cls-39{fill:#c8d88d;}.cls-40{fill:#c9da92;}.cls-41{fill:#ccdb93;}.cls-42{clip-path:url(#clip-path-4);}.cls-43{clip-path:url(#clip-path-5);}.cls-44{fill:#69902d;}.cls-45{clip-path:url(#clip-path-6);}.cls-46{fill:#9bc332;}.cls-47{clip-path:url(#clip-path-7);}.cls-48{clip-path:url(#clip-path-8);}.cls-49{clip-path:url(#clip-path-9);}.cls-50{fill:url(#radial-gradient);}.cls-51{opacity:0.2;}.cls-52{fill:#fff;}.cls-53{fill:#676766;}</style><clipPath id="clip-path"><path class="cls-1" d="M267.87,51.44l.07.88a10.57,10.57,0,0,0-1.11-3.89A13,13,0,0,0,264,44.78a17.5,17.5,0,0,0-3.46-2.5l-.07-.88A17.8,17.8,0,0,1,264,43.9a13.11,13.11,0,0,1,2.78,3.65A10.45,10.45,0,0,1,267.87,51.44Z"/></clipPath><clipPath id="clip-path-2"><path class="cls-1" d="M278.81,50.53l.07.88c.83,9.81-8,19.62-22.33,23.56a47.43,47.43,0,0,1-19.74,1.15l-.07-.88a47.23,47.23,0,0,0,10.61.43,48.21,48.21,0,0,0,9.13-1.57C270.82,70.15,279.63,60.35,278.81,50.53Z"/></clipPath><clipPath id="clip-path-3"><path class="cls-1" d="M257.33,96.13l-1,.26a10.84,10.84,0,0,1-2.14.32c-12.12.57-25.8-18.15-30.58-41.83a82.75,82.75,0,0,1-1.54-12,60.66,60.66,0,0,1,.81-14.27l1-.26a60.67,60.67,0,0,0-.82,14.27,82.75,82.75,0,0,0,1.54,12C229.38,78.3,243.07,97,255.18,96.45A10.24,10.24,0,0,0,257.33,96.13Z"/></clipPath><clipPath id="clip-path-4"><path class="cls-1" d="M234.74,11.28l1-.26a11.14,11.14,0,0,0-3.51,1.6,17.83,17.83,0,0,0-6,7.85l-1,.26a17.82,17.82,0,0,1,6-7.85A11.09,11.09,0,0,1,234.74,11.28Z"/></clipPath><clipPath id="clip-path-5"><path class="cls-1" d="M260,106.78l-1,.25a13.72,13.72,0,0,0,4.56-2.11c3.14-2.18,5.7-5.71,7.6-10.27l1-.26c-1.9,4.56-4.46,8.09-7.6,10.28A14.07,14.07,0,0,1,260,106.78Z"/></clipPath><clipPath id="clip-path-6"><path class="cls-1" d="M233.12.43l3-.41C251.26-.7,268,22.68,273.94,52.28a105.15,105.15,0,0,1,1.91,14.66,74.83,74.83,0,0,1-1.29,19.68l-1,.25a73.88,73.88,0,0,0,1.29-19.67,102.36,102.36,0,0,0-1.91-14.67"/></clipPath><clipPath id="clip-path-7"><path class="cls-1" d="M224.18,56l-.07-.88C223.56,48.55,229.43,42,239,39.38a32.06,32.06,0,0,1,11.7-1l.07.88a30.8,30.8,0,0,0-5.77-.07,31.26,31.26,0,0,0-5.92,1C229.51,42.89,223.63,49.42,224.18,56Z"/></clipPath><clipPath id="clip-path-8"><path class="cls-1" d="M213.24,56.88l-.07-.87a15.85,15.85,0,0,0,1.67,5.83l.07.87A15.8,15.8,0,0,1,213.24,56.88Z"/></clipPath><clipPath id="clip-path-9"><path class="cls-1" d="M226.84,72.38l.07.88A27.9,27.9,0,0,1,219,68.07a19.84,19.84,0,0,1-4.05-5.36l-.07-.87a19.4,19.4,0,0,0,4,5.35A27.56,27.56,0,0,0,226.84,72.38Z"/></clipPath><radialGradient id="radial-gradient" cx="-495.26" cy="200.26" fy="189.49022146469053" r="12.17" gradientTransform="matrix(1, -0.05, 0.05, 1, 730.81, -169.04)" gradientUnits="userSpaceOnUse"><stop offset="0" stop-color="#69902d" stop-opacity="0"/><stop offset="0.13" stop-color="#69902d" stop-opacity="0.03"/><stop offset="0.26" stop-color="#69902d" stop-opacity="0.11"/><stop offset="0.39" stop-color="#69902d" stop-opacity="0.25"/><stop offset="0.51" stop-color="#69902d" stop-opacity="0.44"/><stop offset="0.64" stop-color="#69902d" stop-opacity="0.69"/><stop offset="0.77" stop-color="#69902d" stop-opacity="0.99"/><stop offset="0.77" stop-color="#69902d"/></radialGradient></defs><g class="cls-2"><g class="cls-3"><g class="cls-2"><path class="cls-4" d="M267.87,51.44l.07.88a10.57,10.57,0,0,0-1.11-3.89A13,13,0,0,0,264,44.78a17.5,17.5,0,0,0-3.46-2.5l-.07-.88A17.8,17.8,0,0,1,264,43.9a13.11,13.11,0,0,1,2.78,3.65,10.45,10.45,0,0,1,1.12,3.89"/></g></g></g><path class="cls-5" d="M236.74,75.24l5-7.09a30.83,30.83,0,0,0,5.18,0,31.35,31.35,0,0,0,6.08-1c11.47-3.15,17.64-11.93,13.77-19.6A13.11,13.11,0,0,0,264,43.9a17.8,17.8,0,0,0-3.46-2.5l5-7.09a27.81,27.81,0,0,1,7.46,4.9,19.72,19.72,0,0,1,4.18,5.48c5.8,11.51-3.45,24.67-20.65,29.41a48.21,48.21,0,0,1-9.13,1.57A47.23,47.23,0,0,1,236.74,75.24Z"/><g class="cls-2"><g class="cls-6"><g class="cls-2"><path class="cls-7" d="M278.81,50.53l.07.88a15.17,15.17,0,0,1,0,2.43l-.07-.88a15.17,15.17,0,0,0,0-2.43"/><path class="cls-8" d="M278.82,53l.07.88a15.54,15.54,0,0,1-.48,2.86l-.08-.87a16.73,16.73,0,0,0,.49-2.87"/><path class="cls-9" d="M278.33,55.83l.08.87A17.38,17.38,0,0,1,277.19,60l-.07-.87a18.64,18.64,0,0,0,1.21-3.26"/><path class="cls-10" d="M277.12,59.09l.07.87a22,22,0,0,1-2.95,4.49l-.08-.87a21.9,21.9,0,0,0,3-4.49"/><path class="cls-11" d="M274.16,63.58l.08.87a30.39,30.39,0,0,1-8.51,6.83l-.07-.88a30.32,30.32,0,0,0,8.5-6.82"/><path class="cls-10" d="M265.66,70.4l.07.88a39.94,39.94,0,0,1-6,2.69l-.07-.88a40.4,40.4,0,0,0,6-2.69"/><path class="cls-9" d="M259.68,73.09l.07.88c-1,.37-2.1.7-3.2,1-.47.13-.94.26-1.41.37l-.08-.88c.48-.11.95-.23,1.42-.36,1.1-.31,2.16-.64,3.2-1"/><path class="cls-8" d="M255.06,74.46l.08.88c-1.36.33-2.73.59-4.1.8l-.07-.88c1.36-.2,2.73-.47,4.09-.8"/><path class="cls-7" d="M251,75.26l.07.88c-1.21.18-2.41.31-3.61.4l-.33,0-.07-.88.32,0c1.2-.09,2.41-.23,3.62-.41"/><path class="cls-12" d="M247,75.69l.07.88c-1.33.08-2.65.12-4,.09l-.08-.88c1.31,0,2.64,0,4-.09"/><path class="cls-13" d="M243.06,75.78l.08.88c-1.46,0-2.89-.11-4.3-.27l-.08-.88c1.41.16,2.85.25,4.3.27"/><path class="cls-14" d="M238.76,75.51l.08.88c-.68-.07-1.36-.16-2-.27l-.07-.88c.67.11,1.34.2,2,.27"/></g></g></g><polygon class="cls-15" points="217.42 21.13 218.44 20.88 223.88 28.32 222.86 28.58 217.42 21.13"/><g class="cls-2"><g class="cls-16"><g class="cls-2"><path class="cls-10" d="M222.86,28.58l1-.26c-.08.42-.15.85-.22,1.28l-1,.26c.07-.44.15-.86.22-1.28"/><path class="cls-11" d="M222.64,29.86l1-.26c-.08.5-.16,1-.22,1.53l-1,.25c.07-.51.14-1,.22-1.52"/><path class="cls-17" d="M222.42,31.38l1-.25c-.07.5-.13,1-.18,1.52l-1,.26c.05-.52.11-1,.17-1.53"/><path class="cls-18" d="M222.25,32.91l1-.26c0,.51-.09,1-.13,1.53l-1,.26c0-.52.09-1,.14-1.53"/><path class="cls-19" d="M222.11,34.44l1-.26c0,.51-.07,1-.09,1.54L222,36l.09-1.53"/><path class="cls-20" d="M222,36l1-.25c0,.51,0,1-.06,1.55l-1,.26c0-.53,0-1,.05-1.56"/><path class="cls-21" d="M222,37.53l1-.26c0,.52,0,1,0,1.56l-1,.26c0-.53,0-1.05,0-1.56"/><path class="cls-22" d="M222,39.09l1-.26c0,.52,0,1,0,1.57l-1,.26c0-.53,0-1,0-1.57"/><path class="cls-23" d="M222,40.66l1-.26c0,.52,0,1,.05,1.56l-1,.26c0-.53,0-1-.05-1.56"/><path class="cls-24" d="M222,42.22l1-.26,0,.63.06.91-1,.26c0-.3,0-.61,0-.91l0-.63"/><path class="cls-25" d="M222.1,43.76l1-.26c0,.51.07,1,.11,1.52l-1,.25c0-.5-.08-1-.11-1.51"/><path class="cls-26" d="M222.21,45.27l1-.25c0,.47.08.95.13,1.43l-1,.26c0-.48-.1-1-.14-1.44"/><path class="cls-27" d="M222.35,46.71l1-.26.15,1.35-1,.26q-.09-.69-.15-1.35"/><path class="cls-28" d="M222.5,48.06l1-.26c.05.42.1.84.16,1.26l-1,.25c-.05-.42-.11-.84-.15-1.25"/><path class="cls-29" d="M222.65,49.31l1-.25c.05.39.11.78.17,1.18l-1,.25c-.06-.39-.11-.78-.17-1.18"/><path class="cls-30" d="M222.82,50.49l1-.25c0,.37.11.74.17,1.11l-1,.26c-.06-.37-.11-.75-.17-1.12"/><path class="cls-31" d="M223,51.61l1-.26.18,1.06-1,.26L223,51.61"/><path class="cls-32" d="M223.17,52.67l1-.26.18,1-1,.26c-.07-.34-.13-.68-.19-1"/><path class="cls-33" d="M223.36,53.69l1-.26c.06.33.13.66.19,1l-1,.26c-.07-.33-.13-.66-.19-1"/><path class="cls-34" d="M223.55,54.68l1-.26,0,.2c.06.27.11.54.17.81l-1,.26c-.06-.27-.12-.54-.17-.81l0-.2"/><path class="cls-35" d="M223.76,55.69l1-.26c.07.34.15.68.22,1l-1,.26c-.08-.34-.15-.68-.22-1"/><path class="cls-36" d="M224,56.71l1-.26c.08.34.16.67.23,1l-1,.26c-.08-.34-.16-.68-.23-1"/><path class="cls-37" d="M224.21,57.72l1-.26.27,1.09-1,.25c-.09-.36-.18-.72-.26-1.08"/><path class="cls-38" d="M224.47,58.8l1-.25c.1.42.21.84.32,1.26l-1,.26-.33-1.27"/><path class="cls-39" d="M224.8,60.07l1-.26c.11.42.23.83.34,1.25l-1,.26c-.12-.42-.23-.84-.34-1.25"/><path class="cls-40" d="M225.14,61.32l1-.26c.2.72.42,1.44.64,2.16l-1,.25c-.22-.71-.43-1.43-.63-2.15"/><path class="cls-41" d="M225.77,63.47l1-.25c.51,1.67,1.07,3.3,1.66,4.89l-1,.25c-.6-1.58-1.16-3.22-1.67-4.89"/><path class="cls-40" d="M227.44,68.36l1-.25c.2.53.41,1.07.62,1.59l-1,.26c-.21-.53-.41-1.06-.61-1.6"/><path class="cls-39" d="M228.05,70l1-.26c.21.53.42,1,.63,1.55l-1,.26c-.22-.51-.43-1-.64-1.55"/><path class="cls-38" d="M228.69,71.51l1-.26c.17.4.34.79.52,1.18l-1,.26-.51-1.18"/><path class="cls-37" d="M229.2,72.69l1-.26c.17.39.34.78.52,1.16l-1,.26c-.17-.38-.35-.77-.52-1.16"/><path class="cls-36" d="M229.72,73.85l1-.26c.18.4.36.78.55,1.17l-1,.26c-.18-.39-.36-.78-.55-1.17"/><path class="cls-35" d="M230.27,75l1-.26c.19.39.38.78.58,1.17l-1,.26L230.27,75"/><path class="cls-34" d="M230.85,76.19l1-.26c.19.39.39.77.59,1.15l-1,.26-.6-1.15"/><path class="cls-33" d="M231.45,77.34l1-.26.72,1.33-1,.26c-.25-.44-.49-.88-.72-1.33"/><path class="cls-32" d="M232.17,78.67l1-.26c.25.44.49.87.74,1.29l-1,.26c-.25-.42-.5-.86-.74-1.29"/><path class="cls-31" d="M232.91,80l1-.26c.29.5.59,1,.89,1.48l-1,.26c-.3-.49-.6-1-.89-1.48"/><path class="cls-30" d="M233.8,81.44l1-.26c.31.5.63,1,.94,1.46l-1,.25c-.32-.47-.63-1-.94-1.45"/><path class="cls-29" d="M234.74,82.89l1-.25,1,1.48-1,.25c-.34-.48-.68-1-1-1.48"/><path class="cls-28" d="M235.75,84.37l1-.25c.34.47.68.94,1,1.39l-1,.26c-.35-.45-.7-.92-1-1.4"/><path class="cls-27" d="M236.79,85.77l1-.26c.35.45.69.89,1,1.32l-1,.26c-.35-.43-.7-.87-1-1.32"/><path class="cls-26" d="M237.83,87.09l1-.26c.33.4.67.79,1,1.17l-1,.26c-.34-.38-.67-.77-1-1.17"/><path class="cls-25" d="M238.83,88.26l1-.26c.33.38.67.74,1,1.09l-1,.26c-.34-.35-.67-.72-1-1.09"/><path class="cls-24" d="M239.83,89.35l1-.26c.32.34.65.67,1,1l-1,.26c-.33-.32-.65-.65-1-1"/><path class="cls-23" d="M240.8,90.34l1-.26q.48.47,1,.9l-1,.26q-.48-.43-1-.9"/><path class="cls-22" d="M241.76,91.24l1-.26c.32.29.63.56.95.82l-1,.26c-.32-.26-.64-.54-1-.82"/><path class="cls-21" d="M242.71,92.06l1-.26c.31.26.63.52.94.76l-1,.25c-.32-.24-.63-.49-.94-.75"/><path class="cls-20" d="M243.65,92.81l1-.25.94.68-1,.26c-.32-.22-.63-.45-.94-.69"/><path class="cls-19" d="M244.59,93.5l1-.26c.32.22.63.43,1,.62l-1,.26c-.31-.2-.63-.4-.94-.62"/><path class="cls-18" d="M245.53,94.12l1-.26c.31.2.63.39.94.56l-1,.26c-.32-.18-.63-.36-.95-.56"/><path class="cls-17" d="M246.48,94.68l1-.26,1,.51-1,.26c-.32-.16-.65-.33-1-.51"/><path class="cls-11" d="M247.45,95.19l1-.26c.33.16.66.3,1,.44l-1,.26-1-.44"/><path class="cls-10" d="M248.43,95.63l1-.26c.34.14.69.27,1,.38l-1,.26c-.34-.12-.68-.24-1-.38"/><path class="cls-9" d="M249.45,96l1-.26c.34.12.69.22,1,.31l-1,.25c-.35-.08-.69-.19-1-.3"/><path class="cls-8" d="M250.49,96.31l1-.25q.57.14,1.14.24l-1,.25a11.38,11.38,0,0,1-1.13-.24"/><path class="cls-7" d="M251.62,96.55l1-.25c.39.06.79.11,1.18.14l-1,.25a9.65,9.65,0,0,1-1.19-.14"/><path class="cls-12" d="M252.81,96.69l1-.25c.43,0,.86,0,1.28,0l-1,.26a10.94,10.94,0,0,1-1.28,0"/><path class="cls-13" d="M254.09,96.71l1-.26h.08a10.4,10.4,0,0,0,1.38-.15l-1,.26a12.47,12.47,0,0,1-1.37.15h-.08"/><path class="cls-14" d="M255.54,96.56l1-.26c.26,0,.51-.1.77-.17l-1,.26-.77.17"/></g></g></g><g class="cls-2"><g class="cls-42"><g class="cls-2"><path class="cls-4" d="M234.74,11.28l1-.26a11.14,11.14,0,0,0-3.51,1.6,15.67,15.67,0,0,0-4.54,5l-1,.26a15.56,15.56,0,0,1,4.54-5,11.09,11.09,0,0,1,3.52-1.6"/><path class="cls-14" d="M226.68,17.85l1-.26a23.58,23.58,0,0,0-1.14,2.12l-1,.26a22.26,22.26,0,0,1,1.13-2.12"/><path class="cls-13" d="M225.55,20l1-.26c-.12.25-.23.51-.35.76l-1,.26c.11-.26.23-.51.35-.76"/></g></g></g><g class="cls-2"><g class="cls-43"><g class="cls-2"><path class="cls-13" d="M271.16,94.65l1-.26q-.32.78-.66,1.5l-1,.26c.23-.49.45-1,.67-1.5"/><path class="cls-14" d="M270.49,96.15l1-.26a29.42,29.42,0,0,1-1.44,2.68l-1,.25a26.92,26.92,0,0,0,1.43-2.67"/><path class="cls-4" d="M269.06,98.82l1-.25a19.71,19.71,0,0,1-5.5,6.1,14.07,14.07,0,0,1-4.55,2.11l-1,.25a13.72,13.72,0,0,0,4.56-2.11,19.72,19.72,0,0,0,5.5-6.1"/></g></g></g><path class="cls-44" d="M217.42,21.13l5.44,7.45a60.66,60.66,0,0,0-.81,14.27,82.75,82.75,0,0,0,1.54,12c4.78,23.68,18.46,42.4,30.58,41.83a10.87,10.87,0,0,0,5.78-2,17.81,17.81,0,0,0,5.77-7.5l5.44,7.44c-1.9,4.56-4.46,8.09-7.6,10.27a13.55,13.55,0,0,1-7.23,2.51c-15.14.72-32.25-22.69-38.22-52.29a103.46,103.46,0,0,1-1.93-15A74.53,74.53,0,0,1,217.42,21.13Z"/><polygon class="cls-15" points="265.72 87.21 266.73 86.95 272.17 94.39 271.16 94.65 265.72 87.21"/><path class="cls-44" d="M234.71.25C249.85-.47,267,22.94,272.92,52.53a102.36,102.36,0,0,1,1.91,14.67,73.88,73.88,0,0,1-1.29,19.67l-5.43-7.44A60.57,60.57,0,0,0,269,64.52a82.83,82.83,0,0,0-1.53-11.73C262.67,29.12,249,10.39,236.87,11a10.84,10.84,0,0,0-5.65,1.92,17.82,17.82,0,0,0-6,7.85l-5.44-7.44c1.94-4.77,4.61-8.44,7.88-10.66A13.68,13.68,0,0,1,234.71.25Z"/><g class="cls-2"><g class="cls-45"><g class="cls-2"><path class="cls-12" d="M232.84.47l2.09-.29c.68,0,1.95-.21,2.49-.17l-1,.25c-.54,0-1.92,0-2.46,0"/><path class="cls-7" d="M236.41.26l1-.25c.49,0,1,.09,1.48.17l-1,.26c-.5-.08-1-.14-1.48-.18"/><path class="cls-8" d="M237.89.44l1-.26c.47.08.95.18,1.42.3l-1,.26q-.7-.18-1.41-.3"/><path class="cls-9" d="M239.3.74l1-.26c.43.11.86.24,1.29.38l-1,.26c-.43-.14-.87-.27-1.3-.38"/><path class="cls-10" d="M240.6,1.12l1-.26c.43.15.86.31,1.28.48l-1,.26c-.43-.18-.86-.34-1.28-.48"/><path class="cls-11" d="M241.88,1.6l1-.26c.41.17.82.35,1.23.55l-1,.26c-.41-.2-.81-.38-1.22-.55"/><path class="cls-17" d="M243.1,2.15l1-.26,1.21.63-1,.26c-.4-.23-.8-.44-1.21-.63"/><path class="cls-18" d="M244.31,2.78l1-.26c.39.22.79.45,1.18.7l-1,.26c-.4-.25-.79-.48-1.19-.7"/><path class="cls-19" d="M245.5,3.48l1-.26c.4.25.79.51,1.18.78l-1,.26c-.39-.27-.79-.53-1.18-.78"/><path class="cls-20" d="M246.68,4.26l1-.26c.4.27.79.56,1.18.86l-1,.25c-.39-.29-.78-.58-1.17-.85"/><path class="cls-21" d="M247.85,5.11l1-.25c.39.3.78.61,1.17.94l-1,.25c-.39-.32-.78-.64-1.18-.94"/><path class="cls-22" d="M249,6.05l1-.25c.4.32.79.67,1.19,1l-1,.26c-.39-.36-.78-.7-1.18-1"/><path class="cls-23" d="M250.21,7.08l1-.26c.4.37.8.74,1.2,1.13l-1,.26c-.4-.39-.8-.77-1.2-1.13"/><path class="cls-24" d="M251.41,8.21l1-.26c.41.4.81.81,1.21,1.23l-1,.26c-.4-.42-.81-.83-1.22-1.23"/><path class="cls-25" d="M252.63,9.44l1-.26c.42.44.84.9,1.25,1.37l-1,.25c-.41-.46-.82-.92-1.24-1.36"/><path class="cls-26" d="M253.87,10.8l1-.25c.42.47.84,1,1.25,1.46l-1,.26c-.41-.5-.83-1-1.25-1.47"/><path class="cls-27" d="M255.12,12.27l1-.26c.44.54.87,1.08,1.3,1.65l-1,.26c-.43-.57-.87-1.12-1.31-1.65"/><path class="cls-28" d="M256.43,13.92l1-.26q.66.86,1.29,1.74l-1,.26q-.64-.9-1.29-1.74"/><path class="cls-29" d="M257.72,15.66l1-.26c.43.61.86,1.22,1.28,1.85l-1,.26c-.42-.63-.84-1.25-1.27-1.85"/><path class="cls-30" d="M259,17.51l1-.26,1.17,1.82-1,.26c-.38-.62-.77-1.22-1.17-1.82"/><path class="cls-31" d="M260.16,19.33l1-.26c.37.61.75,1.22,1.11,1.85l-1,.26c-.37-.63-.74-1.24-1.12-1.85"/><path class="cls-32" d="M261.28,21.18l1-.26c.32.53.62,1.07.93,1.62l-1,.26c-.3-.55-.61-1.09-.92-1.62"/><path class="cls-33" d="M262.2,22.8l1-.26.9,1.66-1,.26c-.29-.56-.59-1.12-.9-1.66"/><path class="cls-34" d="M263.1,24.46l1-.26c.25.48.5,1,.74,1.44l-1,.26q-.37-.73-.75-1.44"/><path class="cls-35" d="M263.85,25.9l1-.26c.25.48.49,1,.72,1.46l-1,.26-.72-1.46"/><path class="cls-36" d="M264.57,27.36l1-.26c.24.48.46,1,.69,1.46l-1,.26-.69-1.46"/><path class="cls-37" d="M265.26,28.82l1-.26.66,1.45-1,.26c-.21-.49-.43-1-.65-1.45"/><path class="cls-38" d="M265.91,30.27l1-.26c.21.49.43,1,.63,1.48l-1,.25c-.21-.49-.42-1-.64-1.47"/><path class="cls-39" d="M266.55,31.74l1-.25c.28.63.54,1.28.8,1.93l-1,.26c-.26-.65-.53-1.3-.8-1.94"/><path class="cls-40" d="M267.35,33.68l1-.26c.26.66.52,1.33.77,2l-1,.26c-.25-.68-.51-1.34-.77-2"/><path class="cls-41" d="M268.12,35.68l1-.26q1.13,3,2.08,6.11l-1,.26c-.64-2.09-1.34-4.13-2.08-6.11"/><path class="cls-40" d="M270.2,41.79l1-.26c.28.89.54,1.79.8,2.7l-1,.26c-.25-.91-.52-1.81-.79-2.7"/><path class="cls-39" d="M271,44.49l1-.26.42,1.56-1,.26c-.14-.53-.28-1-.43-1.56"/><path class="cls-38" d="M271.42,46.05l1-.26c.14.52.27,1.05.41,1.58l-1,.25-.4-1.57"/><path class="cls-37" d="M271.82,47.62l1-.25c.11.45.22.9.32,1.36l-1,.26-.33-1.37"/><path class="cls-36" d="M272.15,49l1-.26c.1.42.2.84.29,1.26l-1,.26c-.1-.43-.19-.85-.29-1.26"/><path class="cls-35" d="M272.44,50.25l1-.26c.1.42.19.84.28,1.27l-1,.26c-.08-.43-.18-.85-.27-1.27"/><path class="cls-34" d="M272.71,51.52l1-.26.21,1c0,.08,0,.16.05.24l-1,.26c0-.08,0-.16-.05-.25-.06-.34-.13-.68-.21-1"/><path class="cls-33" d="M273,52.78l1-.26.24,1.25-1,.26c-.08-.42-.16-.83-.25-1.25"/><path class="cls-32" d="M273.22,54l1-.26c.08.43.16.85.23,1.27l-1,.26c-.08-.42-.15-.85-.23-1.27"/><path class="cls-31" d="M273.45,55.3l1-.26c.08.44.15.88.22,1.32l-1,.26c-.07-.44-.15-.88-.22-1.32"/><path class="cls-30" d="M273.67,56.62l1-.26c.08.47.15.94.22,1.4l-1,.26c-.07-.47-.15-.93-.22-1.4"/><path class="cls-29" d="M273.89,58l1-.26.21,1.47-1,.26c-.06-.49-.13-1-.2-1.47"/><path class="cls-28" d="M274.09,59.49l1-.26c.07.53.14,1.05.2,1.57l-1,.26c-.06-.52-.13-1.05-.2-1.57"/><path class="cls-27" d="M274.29,61.06l1-.26c.06.57.13,1.13.18,1.68l-1,.26c-.06-.56-.12-1.12-.19-1.68"/><path class="cls-26" d="M274.48,62.74l1-.26c.06.6.12,1.2.17,1.79l-1,.26c-.05-.59-.1-1.19-.16-1.79"/><path class="cls-25" d="M274.64,64.53l1-.26c0,.63.1,1.26.14,1.89l-1,.26c0-.63-.08-1.26-.14-1.89"/><path class="cls-24" d="M274.78,66.42l1-.26c0,.26,0,.52.05.78l.06,1.2-1,.26-.06-1.2c0-.26,0-.52-.05-.78"/><path class="cls-23" d="M274.89,68.4l1-.26q0,1,.06,2l-1,.25c0-.64,0-1.29-.07-1.94"/><path class="cls-22" d="M275,70.34l1-.25c0,.65,0,1.31,0,2l-1,.26c0-.65,0-1.3,0-2"/><path class="cls-21" d="M275,72.3l1-.26c0,.66,0,1.31,0,1.95l-1,.26c0-.64,0-1.29,0-2"/><path class="cls-20" d="M275,74.25l1-.26c0,.65,0,1.3-.07,1.94l-1,.26c0-.64.05-1.29.07-1.94"/><path class="cls-19" d="M274.89,76.19l1-.26c0,.65-.07,1.29-.11,1.92l-1,.26q.08-1,.12-1.92"/><path class="cls-18" d="M274.77,78.11l1-.26c-.05.64-.11,1.28-.17,1.91l-1,.26c.07-.63.12-1.27.17-1.91"/><path class="cls-17" d="M274.6,80l1-.26c-.06.64-.14,1.28-.22,1.9l-1,.26c.08-.63.15-1.26.21-1.9"/><path class="cls-11" d="M274.39,81.92l1-.26c-.08.65-.17,1.29-.27,1.91l-1,.26c.1-.63.19-1.26.28-1.91"/><path class="cls-10" d="M274.11,83.83l1-.26c-.11.65-.22,1.29-.34,1.92l-1,.26c.12-.63.24-1.27.34-1.92"/><path class="cls-9" d="M273.77,85.75l1-.26c-.08.38-.15.76-.23,1.13l-1,.25c.08-.37.16-.74.23-1.12"/></g></g></g><path class="cls-46" d="M245.5,42.74a11.24,11.24,0,0,0-3,.56,11,11,0,0,0-7.18,7.84,11.27,11.27,0,0,0-.29,3.09,11,11,0,0,0,21.65,2,10.77,10.77,0,0,0,.28-3A11,11,0,0,0,245.5,42.74Z"/><polygon class="cls-18" points="255.65 31.36 255.72 32.23 250.76 39.3 250.69 38.42 255.65 31.36"/><g class="cls-2"><g class="cls-47"><g class="cls-2"><path class="cls-13" d="M250.69,38.42l.07.88c-.9-.09-1.82-.15-2.75-.17l-.07-.87c.93,0,1.84.07,2.75.16"/><path class="cls-12" d="M247.94,38.26l.07.87c-.86,0-1.73,0-2.6.07l-.07-.88c.87-.06,1.74-.08,2.6-.06"/><path class="cls-7" d="M245.34,38.32l.07.88-.42,0c-.75.06-1.51.14-2.27.26l-.07-.88c.76-.12,1.52-.2,2.27-.26l.42,0"/><path class="cls-8" d="M242.65,38.61l.07.88c-.9.13-1.81.31-2.71.53l-.08-.88c.91-.22,1.81-.4,2.72-.53"/><path class="cls-9" d="M239.93,39.14,240,40c-.32.07-.63.15-.94.24-.74.2-1.45.42-2.13.67l-.08-.88c.69-.24,1.4-.47,2.13-.67l.94-.24"/><path class="cls-10" d="M236.86,40.05l.08.88a26,26,0,0,0-4,1.79l-.08-.87a27,27,0,0,1,4-1.8"/><path class="cls-11" d="M232.87,41.85l.08.87a20.3,20.3,0,0,0-5.67,4.55l-.07-.88a20.22,20.22,0,0,1,5.66-4.54"/><path class="cls-10" d="M227.21,46.39l.07.88a14.16,14.16,0,0,0-2,3l-.07-.87a14.22,14.22,0,0,1,2-3"/><path class="cls-9" d="M225.24,49.39l.07.87a12.24,12.24,0,0,0-.81,2.18l-.07-.88a11.18,11.18,0,0,1,.81-2.17"/><path class="cls-8" d="M224.43,51.56l.07.88a10.44,10.44,0,0,0-.32,1.91l-.08-.88a10.46,10.46,0,0,1,.33-1.91"/><path class="cls-7" d="M224.1,53.47l.08.88a11,11,0,0,0,0,1.62l-.07-.88a9.74,9.74,0,0,1,0-1.62"/></g></g></g><g class="cls-2"><g class="cls-48"><g class="cls-2"><path class="cls-4" d="M214.84,61.84l.07.87a15.8,15.8,0,0,1-1.67-5.83l-.07-.87a15.85,15.85,0,0,0,1.67,5.83"/></g></g></g><path class="cls-5" d="M214.84,61.84c-5.79-11.5,3.45-24.67,20.65-29.4a47.57,47.57,0,0,1,8.9-1.55,46.7,46.7,0,0,1,11.26.47l-5,7.06a32.06,32.06,0,0,0-11.7,1c-11.46,3.16-17.63,11.93-13.76,19.6a13,13,0,0,0,2.69,3.57,17.61,17.61,0,0,0,3.88,2.76l-5,7.07a27.56,27.56,0,0,1-8-5.19A19.4,19.4,0,0,1,214.84,61.84Z"/><polygon class="cls-18" points="231.8 65.31 231.87 66.19 226.91 73.26 226.84 72.38 231.8 65.31"/><g class="cls-2"><g class="cls-49"><g class="cls-2"><path class="cls-4" d="M226.84,72.38l.07.88A27.9,27.9,0,0,1,219,68.07a19.84,19.84,0,0,1-4.05-5.36l-.07-.87a19.4,19.4,0,0,0,4,5.35,27.56,27.56,0,0,0,8,5.19"/></g></g></g><path class="cls-46" d="M245.49,42.4a10.78,10.78,0,0,0-3,.56,11,11,0,0,0-7.18,7.84,10.82,10.82,0,0,0-.3,3.08A11,11,0,1,0,245.49,42.4Z"/><path class="cls-50" d="M245.49,42.4a10.78,10.78,0,0,0-3,.56,11,11,0,0,0-7.18,7.84,10.82,10.82,0,0,0-.3,3.08A11,11,0,1,0,245.49,42.4Z"/><g class="cls-51"><circle class="cls-52" cx="242.74" cy="48.7" r="2.69"/></g><circle class="cls-52" cx="240.93" cy="46.78" r="0.98"/><g class="cls-51"><circle class="cls-52" cx="245.83" cy="49.19" r="2.07"/></g><path class="cls-53" d="M77.81,63.46c-2,0-3.66-.72-3.66-3.08V29.8h2.6V59.52c0,1.1.48,1.63,1.83,1.63H97.86v2.31Z"/><path class="cls-53" d="M100.45,33.55V29.8h2.69v3.75Zm.09,4.43H103V63.46h-2.5Z"/><path class="cls-53" d="M108.33,42c0-2.45.77-4,3.46-4h9.38c5.28,0,7.35,2.83,7.35,7.83V63.46H126V45.81c0-3.08-1-5.57-4.85-5.57h-8.8c-1,0-1.54.19-1.54,1.82v21.4h-2.5Z"/><path class="cls-53" d="M147.12,38c4.23,0,6.11,2.35,6.11,6.39V60.09c0,2.26-.63,3.37-3.7,3.37h-9.81c-5.05,0-6.88-2.41-6.88-7.7s1.88-7.54,6.88-7.54h11V43.94c0-1.93-.91-3.7-3.61-3.7H134.77V38Zm-8.07,12.5c-3.08,0-3.61,2.21-3.61,5.28s.53,5.44,3.61,5.44h10.48a1.1,1.1,0,0,0,1.2-1.16V50.48Z"/><path class="cls-53" d="M158.42,46.73c0-5.77,2.74-8.75,8.51-8.75h1.73v2.26h-1.73c-4.33,0-6,2.26-6,7.06V63.46h-2.5Z"/><path class="cls-53" d="M194.61,50.67c0,9.13-3.46,13.08-12.59,13.08s-12.6-4-12.6-13.08,3.46-13,12.6-13S194.61,41.53,194.61,50.67ZM182,61.49c7.21,0,10-2.65,10-10.82S189.23,40,182,40s-10,2.55-10,10.72S174.81,61.49,182,61.49Z"/><path class="cls-46" d="M17,106.46C3.54,106.46,0,97,0,85.77S3.37,65.09,17.55,65.09H33v2.83H17.55c-10.63,0-14.12,6.62-14.12,17.85S6.68,103.62,17,103.62H33.63v2.84Z"/><path class="cls-46" d="M66.72,90.74c0,11.23-4.26,16.07-15.49,16.07S35.75,102,35.75,90.74s4.26-16,15.48-16S66.72,79.51,66.72,90.74ZM51.23,104c8.87,0,12.3-3.25,12.3-13.29S60.1,77.56,51.23,77.56,38.94,80.69,38.94,90.74,42.37,104,51.23,104Z"/><path class="cls-46" d="M72,80.1c0-3,1-5,4.26-5H87.81c6.5,0,9,3.49,9,9.64v21.69H93.78V84.77c0-3.78-1.24-6.86-6-6.86H77c-1.18,0-1.89.24-1.89,2.25v26.3H72Z"/><path class="cls-46" d="M103.23,80.1c0-3,1-5,4.26-5H119c6.5,0,9,3.49,9,9.64v21.69H125V84.77c0-3.78-1.24-6.86-6-6.86H108.2c-1.18,0-1.89.24-1.89,2.25v26.3h-3.08Z"/><path class="cls-46" d="M144.19,106.46c-8.63,0-10.82-6.5-10.82-15.43,0-10.58,2.84-16.25,13.42-16.25,7.74,0,13.47,3.07,13.47,11.94,0,3.6-.94,5.14-4.49,5.14H136.56c0,5.5.95,11.82,7.63,11.82h15.36v2.78Zm11.58-17.38a1.29,1.29,0,0,0,1.3-1.42v-.41c0-7.68-3.78-9.69-10.22-9.69-7,0-10.29,2.54-10.29,11.52Z"/><path class="cls-46" d="M177.75,106.46c-10.64,0-13.24-5.62-13.24-15.66,0-9.46,2.6-15.67,13.24-15.67h10.52v2.78H177.75c-8.27,0-10.05,4.61-10.05,12.89,0,8.86,1.78,12.88,10.05,12.88H189v2.78Z"/><path class="cls-46" d="M204.52,106.46c-8.51,0-8.51-5-8.51-9.93V77.91H191.1V75.13H196v-10h3.07v10h8.39v2.78h-8.39v19.5c0,4.91,1.3,6.27,6.15,6.27h2.24v2.78Z"/></svg>