<svg xmlns="http://www.w3.org/2000/svg" xmlns:xlink="http://www.w3.org/1999/xlink" viewBox="0 0 465.12 187.38"><defs><style>.cls-1{fill:none;}.cls-2{isolation:isolate;}.cls-3{clip-path:url(#clip-path);}.cls-4{fill:#617c1f;}.cls-5{fill:#8bb02d;}.cls-6{clip-path:url(#clip-path-2);}.cls-7{fill:#6b8623;}.cls-8{fill:#6e8923;}.cls-9{fill:#718c24;}.cls-10{fill:#738f25;}.cls-11{fill:#769226;}.cls-12{fill:#698322;}.cls-13{fill:#668021;}.cls-14{fill:#637f20;}.cls-15{fill:#93b930;}.cls-16{clip-path:url(#clip-path-3);}.cls-17{fill:#789527;}.cls-18{fill:#7b9827;}.cls-19{fill:#7d9b28;}.cls-20{fill:#809e29;}.cls-21{fill:#80a12a;}.cls-22{fill:#81a42a;}.cls-23{fill:#84a72b;}.cls-24{fill:#86a92c;}.cls-25{fill:#88ac2c;}.cls-26{fill:#8aaf2d;}.cls-27{fill:#8db22e;}.cls-28{fill:#8fb52e;}.cls-29{fill:#91b72f;}.cls-30{fill:#93ba30;}.cls-31{fill:#96bd30;}.cls-32{fill:#98c031;}.cls-33{fill:#a6c64c;}.cls-34{fill:#acc958;}.cls-35{fill:#b0cb61;}.cls-36{fill:#b3cd68;}.cls-37{fill:#b6cf6e;}.cls-38{fill:#b9d174;}.cls-39{fill:#bcd27a;}.cls-40{fill:#bed47f;}.cls-41{fill:#c0d580;}.cls-42{clip-path:url(#clip-path-4);}.cls-43{clip-path:url(#clip-path-5);}.cls-44{fill:#698f23;}.cls-45{clip-path:url(#clip-path-6);}.cls-46{fill:#9bc331;}.cls-47{fill:#7a9727;}.cls-48{clip-path:url(#clip-path-7);}.cls-49{clip-path:url(#clip-path-8);}.cls-50{clip-path:url(#clip-path-9);}.cls-51{fill:url(#radial-gradient);}.cls-52{opacity:0.2;}.cls-53{fill:#fff;}</style><clipPath id="clip-path"><path class="cls-1" d="M442.2,91.6l.05,1.47a17.69,17.69,0,0,0-1.55-6.57,22.16,22.16,0,0,0-4.35-6.3,30,30,0,0,0-5.56-4.44l-.06-1.47a29.71,29.71,0,0,1,5.56,4.44A21.67,21.67,0,0,1,440.64,85,17.61,17.61,0,0,1,442.2,91.6Z"/></clipPath><clipPath id="clip-path-2"><path class="cls-1" d="M460.49,91l.05,1.47c.6,16.42-14.86,32.05-39.05,37.49a79.81,79.81,0,0,1-15.33,1.89,78.13,78.13,0,0,1-17.65-1.55l-.05-1.46a79.18,79.18,0,0,0,33-.35C445.63,123,461.08,107.37,460.49,91Z"/></clipPath><clipPath id="clip-path-3"><path class="cls-1" d="M421.1,165.21l-1.72.35a17.7,17.7,0,0,1-3.59.36c-20.22,0-41.54-32.28-47.62-72.1a138,138,0,0,1-1.62-20.15A101.56,101.56,0,0,1,369,50l1.71-.34a101.41,101.41,0,0,0-2.49,23.71,139.29,139.29,0,0,0,1.62,20.15c6.08,39.83,27.4,72.1,47.62,72.1A17.87,17.87,0,0,0,421.1,165.21Z"/></clipPath><clipPath id="clip-path-4"><path class="cls-1" d="M390.19,22.08l1.71-.35a18.39,18.39,0,0,0-6,2.39c-4.24,2.57-7.84,6.9-10.66,12.6l-1.71.35c2.82-5.7,6.42-10,10.65-12.61A18.64,18.64,0,0,1,390.19,22.08Z"/></clipPath><clipPath id="clip-path-5"><path class="cls-1" d="M424.73,183.15l-1.71.35a23.26,23.26,0,0,0,7.76-3.15c5.4-3.39,10-9.07,13.47-16.51l1.71-.35c-3.52,7.44-8.07,13.12-13.47,16.51A23.26,23.26,0,0,1,424.73,183.15Z"/></clipPath><clipPath id="clip-path-6"><path class="cls-1" d="M388.35,3.89l5-.46c25.27,0,51.26,40.27,58.86,90a173.75,173.75,0,0,1,2,24.58,124.31,124.31,0,0,1-3.71,32.67l-1.71.35a124.36,124.36,0,0,0,3.71-32.67,173.75,173.75,0,0,0-2-24.58"/></clipPath><clipPath id="clip-path-7"><path class="cls-1" d="M369.07,95.69,369,94.22c-.4-11,9.9-21.37,26-25a53.1,53.1,0,0,1,19.55-.67l.06,1.47a51.62,51.62,0,0,0-9.6-.58,52.4,52.4,0,0,0-10,1.25C379,74.32,368.67,84.74,369.07,95.69Z"/></clipPath><clipPath id="clip-path-8"><path class="cls-1" d="M350.77,96.35l0-1.47a26.31,26.31,0,0,0,2.32,9.84l.06,1.47A26.33,26.33,0,0,1,350.77,96.35Z"/></clipPath><clipPath id="clip-path-9"><path class="cls-1" d="M372.19,123.23l.05,1.47a46.54,46.54,0,0,1-12.83-9.27,32.85,32.85,0,0,1-6.31-9.24l-.06-1.47a32.75,32.75,0,0,0,6.32,9.24A46,46,0,0,0,372.19,123.23Z"/></clipPath><radialGradient id="radial-gradient" cx="-1744.08" cy="-995.83" fx="-1753.549341945301" fy="-1013.7845003741169" r="20.3" gradientTransform="translate(2148.98 1090.78)" gradientUnits="userSpaceOnUse"><stop offset="0" stop-color="#698f23" stop-opacity="0"/><stop offset="0.13" stop-color="#698f23" stop-opacity="0.03"/><stop offset="0.26" stop-color="#698f23" stop-opacity="0.11"/><stop offset="0.39" stop-color="#698f23" stop-opacity="0.25"/><stop offset="0.52" stop-color="#698f23" stop-opacity="0.44"/><stop offset="0.64" stop-color="#698f23" stop-opacity="0.69"/><stop offset="0.77" stop-color="#698f23" stop-opacity="0.99"/><stop offset="0.77" stop-color="#698f23"/></radialGradient></defs><g id="upper"><g class="cls-2"><g class="cls-3"><g class="cls-2"><path class="cls-4" d="M442.2,91.6l.05,1.47a17.69,17.69,0,0,0-1.55-6.57,22.16,22.16,0,0,0-4.35-6.3,30,30,0,0,0-5.56-4.44l-.06-1.47a29.71,29.71,0,0,1,5.56,4.44A21.67,21.67,0,0,1,440.64,85a17.61,17.61,0,0,1,1.56,6.56"/></g></g></g><path class="cls-5" d="M388.46,128.79l8.86-11.42a52.1,52.1,0,0,0,8.62.48,52.67,52.67,0,0,0,10.22-1.25c19.34-4.35,30.31-18.48,24.48-31.56a21.67,21.67,0,0,0-4.35-6.31,29.71,29.71,0,0,0-5.56-4.44l8.85-11.41a46.26,46.26,0,0,1,12.05,8.76,32.8,32.8,0,0,1,6.53,9.46c8.74,19.62-7.7,40.82-36.73,47.34a79.18,79.18,0,0,1-33,.35Z"/><g class="cls-2"><g class="cls-6"><g class="cls-2"><path class="cls-7" d="M460.49,91l.05,1.47a24.92,24.92,0,0,1-.18,4L460.31,95a24.87,24.87,0,0,0,.18-4"/><path class="cls-8" d="M460.31,95l.05,1.47a25.77,25.77,0,0,1-1,4.73l-.05-1.46a26.92,26.92,0,0,0,1-4.74"/><path class="cls-9" d="M459.28,99.74l.05,1.46a30.3,30.3,0,0,1-2.28,5.34l-.06-1.47a29.84,29.84,0,0,0,2.29-5.33"/><path class="cls-10" d="M457,105.07l.06,1.47a36,36,0,0,1-5.28,7.24l0-1.46a36.33,36.33,0,0,0,5.27-7.25"/><path class="cls-11" d="M451.72,112.32l0,1.46a50.39,50.39,0,0,1-14.7,10.69L437,123a50.76,50.76,0,0,0,14.7-10.69"/><path class="cls-10" d="M437,123l.05,1.46a66.38,66.38,0,0,1-10.18,4l-.06-1.46A67.54,67.54,0,0,0,437,123"/><path class="cls-9" d="M426.83,127l.06,1.46q-2.62.79-5.4,1.43c-.8.18-1.6.34-2.39.49l-.06-1.46c.8-.16,1.6-.32,2.39-.5q2.79-.63,5.4-1.42"/><path class="cls-8" d="M419,128.94l.06,1.46q-3.45.66-6.89,1l0-1.47c2.29-.23,4.59-.56,6.88-1"/><path class="cls-7" d="M412.16,129.94l0,1.47c-2,.21-4,.33-6,.39h-.55l-.05-1.47h.54q3-.08,6.06-.39"/><path class="cls-12" d="M405.56,130.34l.05,1.47c-2.22,0-4.43,0-6.61-.15l-.05-1.47q3.27.21,6.61.15"/><path class="cls-13" d="M399,130.19l.05,1.47q-3.63-.24-7.14-.8l-.05-1.46c2.34.36,4.72.63,7.14.79"/><path class="cls-14" d="M391.81,129.4l.05,1.46c-1.13-.18-2.24-.38-3.35-.61l-.05-1.46c1.1.22,2.22.43,3.35.61"/></g></g></g><polygon class="cls-15" points="360.57 37.13 362.28 36.78 370.75 49.61 369.04 49.95 360.57 37.13"/><g class="cls-2"><g class="cls-16"><g class="cls-2"><path class="cls-10" d="M369,50l1.71-.34c-.16.69-.32,1.4-.47,2.11l-1.71.35c.15-.71.31-1.42.47-2.12"/><path class="cls-11" d="M368.57,52.07l1.71-.35c-.17.83-.33,1.67-.49,2.53l-1.71.35c.15-.86.32-1.7.49-2.53"/><path class="cls-17" d="M368.08,54.6l1.71-.35c-.14.83-.28,1.67-.41,2.52l-1.71.35c.13-.85.27-1.69.41-2.52"/><path class="cls-18" d="M367.67,57.12l1.71-.35c-.12.84-.24,1.69-.34,2.54l-1.71.35c.1-.86.22-1.7.34-2.54"/><path class="cls-19" d="M367.33,59.66l1.71-.35c-.1.84-.19,1.69-.28,2.55l-1.71.35c.08-.86.18-1.71.28-2.55"/><path class="cls-20" d="M367.05,62.21l1.71-.35q-.12,1.28-.21,2.58l-1.71.35q.09-1.31.21-2.58"/><path class="cls-21" d="M366.84,64.79l1.71-.35c-.06.86-.11,1.73-.16,2.61l-1.71.35c.05-.88.1-1.75.16-2.61"/><path class="cls-22" d="M366.68,67.4l1.71-.35q-.06,1.29-.09,2.61l-1.71.35q0-1.32.09-2.61"/><path class="cls-23" d="M366.59,70l1.71-.35c0,.86,0,1.73,0,2.6l-1.71.35c0-.87,0-1.74,0-2.6"/><path class="cls-24" d="M366.55,72.61l1.71-.35v1.06c0,.5,0,1,0,1.52l-1.71.35c0-.51,0-1,0-1.52V72.61"/><path class="cls-25" d="M366.57,75.19l1.71-.35c0,.84,0,1.68.07,2.53l-1.71.35c0-.85-.06-1.69-.07-2.53"/><path class="cls-26" d="M366.64,77.72l1.71-.35c0,.79.06,1.59.11,2.4l-1.72.35c0-.81-.08-1.61-.1-2.4"/><path class="cls-27" d="M366.74,80.12l1.72-.35c0,.75.08,1.5.14,2.25l-1.71.35c-.06-.75-.11-1.51-.15-2.25"/><path class="cls-28" d="M366.89,82.37,368.6,82c0,.7.1,1.41.16,2.11l-1.71.35c-.06-.7-.12-1.41-.16-2.11"/><path class="cls-29" d="M367.05,84.48l1.71-.35c.06.66.12,1.32.19,2l-1.72.35-.18-2"/><path class="cls-30" d="M367.23,86.46l1.72-.35c.06.62.12,1.25.2,1.87l-1.71.35c-.08-.63-.14-1.25-.21-1.87"/><path class="cls-31" d="M367.44,88.33l1.71-.35c.06.59.13,1.18.21,1.78l-1.71.35c-.08-.6-.15-1.19-.21-1.78"/><path class="cls-32" d="M367.65,90.11l1.71-.35c.07.57.15,1.14.23,1.71l-1.71.35c-.08-.57-.16-1.14-.23-1.71"/><path class="cls-33" d="M367.88,91.82l1.71-.35c.07.56.15,1.11.24,1.67l-1.71.34c-.09-.55-.17-1.1-.24-1.66"/><path class="cls-34" d="M368.12,93.48l1.71-.34c0,.11,0,.22.05.33l.21,1.37-1.71.35-.21-1.37c0-.11,0-.22-.05-.34"/><path class="cls-35" d="M368.38,95.19l1.71-.35c.1.57.19,1.14.29,1.71l-1.71.35c-.1-.57-.19-1.14-.29-1.71"/><path class="cls-36" d="M368.67,96.9l1.71-.35c.1.57.2,1.13.31,1.7L369,98.6c-.11-.57-.21-1.13-.31-1.7"/><path class="cls-37" d="M369,98.6l1.71-.35c.11.61.23,1.23.35,1.83l-1.71.35c-.12-.61-.24-1.22-.35-1.83"/><path class="cls-38" d="M369.33,100.43l1.71-.35c.14.72.29,1.43.44,2.13l-1.71.35c-.15-.71-.3-1.41-.44-2.13"/><path class="cls-39" d="M369.77,102.56l1.71-.35c.15.71.31,1.41.47,2.11l-1.72.35c-.16-.7-.31-1.4-.46-2.11"/><path class="cls-40" d="M370.23,104.67l1.72-.35c.28,1.22.57,2.44.88,3.65l-1.71.34c-.31-1.2-.6-2.42-.89-3.64"/><path class="cls-41" d="M371.12,108.31l1.71-.34q1.08,4.23,2.39,8.27l-1.71.35q-1.31-4-2.39-8.28"/><path class="cls-40" d="M373.51,116.59l1.71-.35c.29.91.59,1.82.9,2.71l-1.71.35c-.31-.9-.61-1.8-.9-2.71"/><path class="cls-39" d="M374.41,119.3l1.71-.35c.3.89.62,1.76.94,2.63l-1.71.35c-.32-.87-.64-1.74-.94-2.63"/><path class="cls-38" d="M375.35,121.93l1.71-.35q.38,1,.75,2l-1.71.35c-.25-.67-.51-1.33-.75-2"/><path class="cls-37" d="M376.1,123.94l1.71-.35c.26.66.52,1.32.79,2l-1.72.35-.78-2"/><path class="cls-36" d="M376.88,125.91l1.72-.35c.27.67.54,1.33.82,2l-1.71.35c-.28-.66-.55-1.32-.83-2"/><path class="cls-35" d="M377.71,127.9l1.71-.35.87,2-1.71.35c-.3-.66-.59-1.32-.87-2"/><path class="cls-34" d="M378.58,129.89l1.71-.35c.29.66.59,1.32.9,2l-1.71.34c-.31-.64-.61-1.3-.9-2"/><path class="cls-33" d="M379.48,131.85l1.71-.34c.36.76.72,1.52,1.09,2.27l-1.71.35c-.37-.75-.73-1.51-1.09-2.28"/><path class="cls-32" d="M380.57,134.13l1.71-.35c.37.75.75,1.48,1.13,2.21l-1.71.35c-.38-.73-.76-1.47-1.13-2.21"/><path class="cls-31" d="M381.7,136.34l1.71-.35c.45.86.91,1.7,1.37,2.53l-1.71.35c-.46-.83-.92-1.67-1.37-2.53"/><path class="cls-30" d="M383.07,138.87l1.71-.35c.48.85,1,1.69,1.45,2.5l-1.71.35c-.49-.82-1-1.65-1.45-2.5"/><path class="cls-29" d="M384.52,141.37l1.71-.35c.52.87,1,1.72,1.58,2.55l-1.71.35c-.54-.83-1.06-1.68-1.58-2.55"/><path class="cls-28" d="M386.1,143.92l1.71-.35c.53.82,1.06,1.62,1.6,2.4l-1.71.35c-.54-.78-1.08-1.58-1.6-2.4"/><path class="cls-27" d="M387.7,146.32l1.71-.35c.54.78,1.09,1.54,1.64,2.28l-1.71.35c-.55-.74-1.1-1.5-1.64-2.28"/><path class="cls-26" d="M389.34,148.6l1.71-.35c.52.7,1,1.38,1.57,2l-1.71.34c-.53-.66-1.05-1.33-1.57-2"/><path class="cls-25" d="M390.91,150.63l1.71-.34c.52.64,1.05,1.28,1.58,1.89l-1.72.35c-.53-.61-1.05-1.25-1.57-1.9"/><path class="cls-24" d="M392.48,152.53l1.72-.35c.5.59,1,1.16,1.54,1.72l-1.72.35c-.51-.56-1-1.13-1.54-1.72"/><path class="cls-23" d="M394,154.25l1.72-.35c.5.54,1,1.07,1.52,1.58l-1.71.35c-.51-.51-1-1-1.53-1.58"/><path class="cls-22" d="M395.55,155.83l1.71-.35c.51.5,1,1,1.52,1.44l-1.72.35c-.5-.46-1-.94-1.51-1.44"/><path class="cls-21" d="M397.06,157.27l1.72-.35c.5.46,1,.9,1.51,1.33l-1.72.35c-.5-.43-1-.87-1.51-1.33"/><path class="cls-20" d="M398.57,158.6l1.72-.35c.5.42,1,.83,1.51,1.21l-1.72.35c-.5-.39-1-.79-1.51-1.21"/><path class="cls-19" d="M400.08,159.81l1.72-.35c.5.39,1,.76,1.52,1.12l-1.71.34q-.76-.53-1.53-1.11"/><path class="cls-18" d="M401.61,160.92l1.71-.34c.51.35,1,.69,1.53,1l-1.71.34c-.51-.31-1-.65-1.53-1"/><path class="cls-17" d="M403.14,161.93l1.71-.34c.53.32,1,.63,1.58.91l-1.71.35c-.53-.29-1.05-.59-1.58-.92"/><path class="cls-11" d="M404.72,162.85l1.71-.35c.53.29,1.06.56,1.6.81l-1.72.35q-.8-.37-1.59-.81"/><path class="cls-10" d="M406.31,163.66l1.72-.35c.55.26,1.11.5,1.67.72l-1.71.35q-.84-.33-1.68-.72"/><path class="cls-9" d="M408,164.38l1.71-.35c.57.22,1.13.42,1.7.59l-1.71.35c-.57-.17-1.13-.37-1.7-.59"/><path class="cls-8" d="M409.69,165l1.71-.35c.62.19,1.25.36,1.87.49l-1.71.35c-.62-.13-1.25-.3-1.87-.49"/><path class="cls-7" d="M411.56,165.46l1.71-.35c.65.14,1.31.25,2,.33l-1.72.35c-.65-.08-1.31-.19-2-.33"/><path class="cls-12" d="M413.52,165.79l1.72-.35a19,19,0,0,0,2.13.13l-1.71.35c-.71,0-1.42,0-2.14-.13"/><path class="cls-13" d="M415.66,165.92l1.71-.35h.13a19.46,19.46,0,0,0,2.3-.14l-1.71.34a17.54,17.54,0,0,1-2.3.15h-.13"/><path class="cls-14" d="M418.09,165.77l1.71-.34c.44-.06.87-.13,1.3-.22l-1.72.35c-.42.09-.86.16-1.29.21"/></g></g></g><g class="cls-2"><g class="cls-42"><g class="cls-2"><path class="cls-4" d="M390.19,22.08l1.71-.35a18.39,18.39,0,0,0-6,2.39A26.08,26.08,0,0,0,378,32l-1.71.35a26.31,26.31,0,0,1,7.95-7.93,18.64,18.64,0,0,1,6-2.38"/><path class="cls-14" d="M376.25,32.39,378,32c-.72,1.08-1.41,2.23-2.06,3.44l-1.71.35a39.1,39.1,0,0,1,2.06-3.44"/><path class="cls-13" d="M374.19,35.83l1.71-.35c-.22.41-.43.82-.64,1.24l-1.71.35c.21-.42.42-.83.64-1.24"/></g></g></g><g class="cls-2"><g class="cls-43"><g class="cls-2"><path class="cls-13" d="M444.25,163.84l1.71-.35c-.39.84-.8,1.65-1.23,2.45l-1.71.35c.43-.8.84-1.61,1.23-2.45"/><path class="cls-14" d="M443,166.29l1.71-.35a47.64,47.64,0,0,1-2.59,4.33l-1.71.35a50,50,0,0,0,2.59-4.33"/><path class="cls-4" d="M440.43,170.62l1.71-.35a33,33,0,0,1-9.65,9.73,23.26,23.26,0,0,1-7.76,3.15l-1.71.35a23.26,23.26,0,0,0,7.76-3.15,33,33,0,0,0,9.65-9.73"/></g></g></g><path class="cls-44" d="M360.57,37.12,369,50a101.56,101.56,0,0,0-2.49,23.72,138,138,0,0,0,1.62,20.15c6.08,39.82,27.4,72.1,47.62,72.1a18.17,18.17,0,0,0,9.79-2.87c4-2.54,7.47-6.66,10.2-12l8.47,12.83c-3.52,7.44-8.07,13.12-13.47,16.51a22.68,22.68,0,0,1-12.24,3.6c-25.28,0-51.92-40.36-59.52-90.13a172.47,172.47,0,0,1-2-25.19A124.21,124.21,0,0,1,360.57,37.12Z"/><polygon class="cls-15" points="435.78 151.01 437.49 150.66 445.96 163.49 444.25 163.84 435.78 151.01"/><path class="cls-44" d="M391,3.7c25.27,0,51.92,40.35,59.52,90.12a173.75,173.75,0,0,1,2,24.58,124.36,124.36,0,0,1-3.71,32.67l-8.47-12.82A100.76,100.76,0,0,0,443,113.48a138,138,0,0,0-1.61-19.66C435.3,54,414,21.73,393.77,21.73a18.14,18.14,0,0,0-9.57,2.73C380,27,376.37,31.37,373.55,37.07l-8.46-12.82c3.61-7.8,8.34-13.7,14-17.13A22.68,22.68,0,0,1,391,3.7Z"/><g class="cls-2"><g class="cls-45"><g class="cls-2"><path class="cls-12" d="M387.88,3.93l3.5-.32c1.14.07,3.28-.19,4.17-.09l-1.71.35c-.89-.1-3.2-.12-4.09-.12"/><path class="cls-7" d="M393.84,3.87l1.71-.35c.82.1,1.64.23,2.46.41l-1.71.35c-.82-.18-1.64-.31-2.46-.41"/><path class="cls-8" d="M396.3,4.28,398,3.93c.78.17,1.55.37,2.33.61l-1.71.35c-.78-.24-1.56-.44-2.33-.61"/><path class="cls-9" d="M398.63,4.89l1.71-.35c.71.22,1.42.46,2.13.74l-1.71.35c-.71-.28-1.42-.53-2.13-.74"/><path class="cls-10" d="M400.76,5.63l1.71-.35c.7.27,1.39.57,2.09.9l-1.71.35c-.7-.33-1.4-.63-2.09-.9"/><path class="cls-11" d="M402.85,6.53l1.71-.35c.67.31,1.33.65,2,1l-1.72.35c-.66-.36-1.32-.7-2-1"/><path class="cls-17" d="M404.84,7.54l1.72-.35c.65.36,1.31.74,2,1.14l-1.71.35c-.65-.4-1.31-.78-2-1.14"/><path class="cls-18" d="M406.81,8.68l1.71-.35c.64.4,1.28.82,1.92,1.27l-1.71.34q-1-.66-1.92-1.26"/><path class="cls-19" d="M408.73,9.94l1.71-.34c.64.44,1.27.9,1.91,1.39l-1.72.34c-.63-.48-1.26-.94-1.9-1.39"/><path class="cls-20" d="M410.63,11.33l1.72-.34c.63.48,1.26,1,1.88,1.51l-1.71.35c-.62-.52-1.25-1-1.89-1.52"/><path class="cls-21" d="M412.52,12.85l1.71-.35c.63.54,1.26,1.09,1.89,1.66l-1.71.35c-.63-.57-1.26-1.13-1.89-1.66"/><path class="cls-22" d="M414.41,14.51l1.71-.35c.63.58,1.26,1.18,1.89,1.81l-1.71.34q-.94-.93-1.89-1.8"/><path class="cls-23" d="M416.3,16.31,418,16c.64.63,1.28,1.29,1.91,2l-1.71.35c-.63-.68-1.27-1.34-1.91-2"/><path class="cls-24" d="M418.21,18.29l1.71-.35c.65.7,1.29,1.41,1.92,2.15l-1.71.35c-.63-.74-1.28-1.46-1.92-2.15"/><path class="cls-25" d="M420.13,20.44l1.71-.35c.67.77,1.32,1.56,2,2.37l-1.71.35c-.65-.82-1.3-1.61-2-2.37"/><path class="cls-26" d="M422.1,22.81l1.71-.35c.67.82,1.32,1.67,2,2.54l-1.71.35c-.65-.87-1.31-1.72-2-2.54"/><path class="cls-27" d="M424.07,25.35l1.71-.35c.69.92,1.37,1.87,2,2.84l-1.71.35c-.67-1-1.35-1.92-2-2.84"/><path class="cls-28" d="M426.11,28.19l1.71-.35c.68,1,1.35,2,2,3l-1.71.35c-.66-1-1.33-2-2-3"/><path class="cls-29" d="M428.12,31.2l1.71-.35c.67,1,1.32,2.1,2,3.19l-1.71.34c-.65-1.08-1.31-2.14-2-3.18"/><path class="cls-30" d="M430.09,34.38,431.8,34c.61,1,1.22,2.06,1.81,3.12l-1.71.35c-.59-1.06-1.2-2.1-1.81-3.13"/><path class="cls-31" d="M431.9,37.51l1.71-.35c.58,1,1.15,2.09,1.72,3.17l-1.71.35c-.57-1.08-1.14-2.13-1.72-3.17"/><path class="cls-32" d="M433.62,40.68l1.71-.35q.71,1.37,1.41,2.76l-1.71.35q-.7-1.39-1.41-2.76"/><path class="cls-33" d="M435,43.44l1.71-.35c.46.94.92,1.89,1.37,2.84l-1.72.35c-.45-1-.9-1.9-1.36-2.84"/><path class="cls-34" d="M436.39,46.28l1.72-.35c.37.81.75,1.63,1.12,2.46l-1.71.35c-.37-.83-.75-1.65-1.13-2.46"/><path class="cls-35" d="M437.52,48.74l1.71-.35c.37.82.73,1.65,1.09,2.49l-1.72.35q-.53-1.26-1.08-2.49"/><path class="cls-36" d="M438.6,51.23l1.72-.35c.34.82.69,1.65,1,2.48l-1.72.35c-.33-.83-.68-1.66-1-2.48"/><path class="cls-37" d="M439.63,53.71l1.72-.35c.33.82.65,1.64,1,2.47l-1.71.35c-.32-.83-.64-1.65-1-2.47"/><path class="cls-38" d="M440.61,56.18l1.71-.35c.32.83.64,1.67.95,2.51l-1.71.35c-.31-.84-.63-1.68-.95-2.51"/><path class="cls-39" d="M441.56,58.69l1.71-.35c.4,1.09.79,2.18,1.17,3.29l-1.71.35c-.38-1.11-.77-2.21-1.17-3.29"/><path class="cls-40" d="M442.73,62l1.71-.35c.39,1.12.76,2.25,1.13,3.39l-1.71.35c-.37-1.14-.75-2.27-1.13-3.39"/><path class="cls-41" d="M443.86,65.37l1.71-.35q1.62,5,3,10.34l-1.71.35q-1.35-5.29-3-10.34"/><path class="cls-40" d="M446.84,75.71l1.71-.35q.58,2.27,1.11,4.56l-1.71.35c-.36-1.54-.72-3.06-1.11-4.56"/><path class="cls-39" d="M448,80.27l1.71-.35c.2.87.39,1.75.58,2.63l-1.71.35c-.19-.88-.38-1.76-.58-2.63"/><path class="cls-38" d="M448.53,82.9l1.71-.35c.19.88.37,1.77.55,2.66l-1.71.35c-.18-.89-.36-1.78-.55-2.66"/><path class="cls-37" d="M449.08,85.56l1.71-.35c.15.76.3,1.53.44,2.3l-1.71.34c-.14-.76-.29-1.53-.44-2.29"/><path class="cls-36" d="M449.52,87.85l1.71-.34c.13.7.26,1.41.38,2.12L449.9,90c-.12-.71-.25-1.42-.38-2.13"/><path class="cls-35" d="M449.9,90l1.71-.35q.19,1.07.36,2.13l-1.71.35Q450.1,91,449.9,90"/><path class="cls-34" d="M450.26,92.11l1.71-.35.27,1.71.06.42-1.71.35-.06-.42-.27-1.71"/><path class="cls-33" d="M450.59,94.24l1.71-.35c.11.7.21,1.4.31,2.1l-1.71.35c-.1-.7-.2-1.4-.31-2.1"/><path class="cls-32" d="M450.9,96.34l1.71-.35c.1.71.19,1.42.28,2.13l-1.71.35c-.09-.71-.18-1.42-.28-2.13"/><path class="cls-31" d="M451.18,98.47l1.71-.35q.14,1.13.27,2.22l-1.71.35-.27-2.22"/><path class="cls-30" d="M451.45,100.69l1.71-.35c.09.79.17,1.57.25,2.34l-1.71.35c-.08-.78-.16-1.55-.25-2.34"/><path class="cls-29" d="M451.7,103l1.71-.35c.08.83.16,1.65.23,2.47l-1.71.35c-.07-.82-.15-1.64-.23-2.47"/><path class="cls-28" d="M451.93,105.5l1.71-.35c.07.88.14,1.76.2,2.64l-1.71.35c-.06-.88-.13-1.76-.2-2.64"/><path class="cls-27" d="M452.13,108.14l1.71-.35c.07.94.13,1.88.18,2.81l-1.71.35c-.05-.94-.11-1.87-.18-2.81"/><path class="cls-26" d="M452.31,111l1.71-.35c.05,1,.1,2,.14,3l-1.72.35c0-1-.08-2-.13-3"/><path class="cls-25" d="M452.44,113.94l1.72-.35c0,1.06.06,2.11.08,3.16l-1.71.34q0-1.56-.09-3.15"/><path class="cls-24" d="M452.53,117.09l1.71-.34c0,.43,0,.87,0,1.3v2l-1.71.35v-2c0-.44,0-.87,0-1.31"/><path class="cls-23" d="M452.55,120.4l1.71-.35c0,1.09,0,2.18,0,3.25l-1.72.35c0-1.07.05-2.16.05-3.25"/><path class="cls-22" d="M452.5,123.65l1.72-.35c0,1.1-.07,2.18-.12,3.26l-1.71.35c.05-1.08.09-2.16.11-3.26"/><path class="cls-21" d="M452.39,126.91l1.71-.35c-.05,1.09-.12,2.18-.2,3.25l-1.71.35c.08-1.07.14-2.16.2-3.25"/><path class="cls-20" d="M452.19,130.16l1.71-.35c-.07,1.08-.16,2.16-.26,3.22l-1.71.35c.1-1.07.19-2.14.26-3.22"/><path class="cls-19" d="M451.93,133.38l1.71-.35c-.11,1.07-.22,2.14-.35,3.19l-1.71.34c.13-1.05.24-2.11.35-3.18"/><path class="cls-18" d="M451.58,136.56l1.71-.34c-.13,1.07-.27,2.12-.43,3.17l-1.71.34c.16-1,.3-2.1.43-3.17"/><path class="cls-17" d="M451.15,139.73l1.71-.34q-.24,1.59-.51,3.15l-1.71.35c.18-1,.35-2.09.51-3.16"/><path class="cls-11" d="M450.64,142.89l1.71-.35c-.19,1.07-.39,2.12-.61,3.16l-1.71.35c.21-1,.42-2.09.61-3.16"/><path class="cls-10" d="M450,146.05l1.71-.35c-.23,1.07-.46,2.13-.72,3.17l-1.71.35c.25-1,.49-2.1.72-3.17"/><path class="cls-9" d="M449.31,149.22l1.71-.35c-.15.63-.31,1.24-.47,1.85l-1.71.35c.16-.61.32-1.23.47-1.85"/></g></g></g><path class="cls-46" d="M405.63,75.35a18.31,18.31,0,1,0,18.3,18.3A18.28,18.28,0,0,0,405.63,75.35Z"/><polygon class="cls-47" points="423.43 57.18 423.49 58.65 414.66 70.03 414.6 68.56 423.43 57.18"/><g class="cls-2"><g class="cls-48"><g class="cls-2"><path class="cls-13" d="M414.6,68.56l.06,1.47c-1.5-.23-3-.4-4.56-.5L410,68.06c1.54.1,3.07.27,4.56.5"/><path class="cls-12" d="M410,68.06l.06,1.47c-1.44-.09-2.89-.13-4.35-.1L405.7,68c1.46,0,2.91,0,4.34.1"/><path class="cls-7" d="M405.7,68l.05,1.47-.69,0c-1.26,0-2.53.12-3.8.25l-.06-1.47c1.27-.13,2.54-.21,3.81-.25l.69,0"/><path class="cls-8" d="M401.2,68.23l.06,1.47c-1.52.15-3.05.37-4.57.67l-.05-1.47c1.52-.29,3-.51,4.56-.67"/><path class="cls-9" d="M396.64,68.9l.05,1.47q-.79.15-1.59.33c-1.23.27-2.43.59-3.6,1l-.05-1.47c1.16-.36,2.37-.67,3.6-1q.79-.18,1.59-.33"/><path class="cls-10" d="M391.45,70.18l.05,1.47a43.3,43.3,0,0,0-6.78,2.67l-.06-1.47a45.05,45.05,0,0,1,6.79-2.67"/><path class="cls-11" d="M384.66,72.85l.06,1.47a33.54,33.54,0,0,0-9.8,7.12L374.86,80a33.65,33.65,0,0,1,9.8-7.13"/><path class="cls-10" d="M374.86,80l.06,1.46a24.26,24.26,0,0,0-3.52,4.83l0-1.46A24,24,0,0,1,374.86,80"/><path class="cls-9" d="M371.35,84.81l0,1.46a20.06,20.06,0,0,0-1.52,3.56l-.06-1.47a20.45,20.45,0,0,1,1.53-3.55"/><path class="cls-8" d="M369.82,88.36l.06,1.47a17.4,17.4,0,0,0-.69,3.15l-.06-1.46a19.17,19.17,0,0,1,.69-3.16"/><path class="cls-7" d="M369.13,91.52l.06,1.46a17.51,17.51,0,0,0-.12,2.71L369,94.22a16.18,16.18,0,0,1,.11-2.7"/></g></g></g><g class="cls-2"><g class="cls-49"><g class="cls-2"><path class="cls-4" d="M353,104.72l.06,1.47a26.33,26.33,0,0,1-2.33-9.84l0-1.47a26.31,26.31,0,0,0,2.32,9.84"/></g></g></g><path class="cls-5" d="M353,104.72c-8.74-19.61,7.71-40.81,36.73-47.33a79.73,79.73,0,0,1,14.94-1.88,78.31,78.31,0,0,1,18.72,1.67L414.6,68.56a53.1,53.1,0,0,0-19.55.67c-19.35,4.35-30.31,18.47-24.48,31.55a22,22,0,0,0,4.2,6.17,29.6,29.6,0,0,0,6.25,4.9l-8.83,11.38A46,46,0,0,1,359.36,114,32.75,32.75,0,0,1,353,104.72Z"/><polygon class="cls-47" points="381.02 111.86 381.07 113.32 372.24 124.7 372.19 123.23 381.02 111.86"/><g class="cls-2"><g class="cls-50"><g class="cls-2"><path class="cls-4" d="M372.19,123.23l.05,1.47a46.54,46.54,0,0,1-12.83-9.27,32.85,32.85,0,0,1-6.31-9.24l-.06-1.47a32.75,32.75,0,0,0,6.32,9.24,46,46,0,0,0,12.83,9.27"/></g></g></g><path class="cls-46" d="M405.63,74.77a18.31,18.31,0,1,0,18.3,18.3A18.28,18.28,0,0,0,405.63,74.77Z"/><path class="cls-51" d="M405.63,74.77a18.31,18.31,0,1,0,18.3,18.3A18.28,18.28,0,0,0,405.63,74.77Z"/><g class="cls-52"><circle class="cls-53" cx="400.56" cy="85.05" r="4.49"/></g><circle class="cls-53" cx="397.69" cy="81.71" r="1.63"/><g class="cls-52"><circle class="cls-53" cx="405.67" cy="86.1" r="3.45"/></g><path class="cls-53" d="M134.31,110.64c-3.36,0-6.09-1.2-6.09-5.13v-51h4.33v49.55c0,1.84.8,2.73,3,2.73h32.14v3.84Z"/><path class="cls-53" d="M172.06,60.78V54.52h4.49v6.26Zm.16,7.37h4.17v42.49h-4.17Z"/><path class="cls-53" d="M185.21,74.89c0-4.09,1.28-6.74,5.77-6.74h15.63c8.82,0,12.27,4.73,12.27,13.07v29.42h-4.17V81.22c0-5.13-1.68-9.3-8.1-9.3H191.94c-1.61,0-2.56.32-2.56,3v35.67h-4.17Z"/><path class="cls-53" d="M249.9,68.15c7,0,10.18,3.93,10.18,10.67V105c0,3.77-1,5.61-6.18,5.61H237.55c-8.42,0-11.47-4-11.47-12.82s3.13-12.59,11.47-12.59h18.36V78.1c0-3.21-1.52-6.18-6-6.18H229.29V68.15ZM236.43,89c-5.13,0-6,3.69-6,8.82s.89,9.06,6,9.06H253.9a1.83,1.83,0,0,0,2-1.93V89Z"/><path class="cls-53" d="M268.73,82.74c0-9.62,4.57-14.59,14.19-14.59h2.88v3.77h-2.88c-7.22,0-10,3.77-10,11.79v26.93h-4.17Z"/><path class="cls-53" d="M329.09,89.32c0,15.23-5.77,21.81-21,21.81s-21-6.58-21-21.81,5.77-21.65,21-21.65S329.09,74.09,329.09,89.32Zm-21,18c12,0,16.67-4.41,16.67-18s-4.65-17.88-16.67-17.88-16.68,4.25-16.68,17.88S296.06,107.36,308.09,107.36Z"/><path class="cls-46" d="M32.85,182.35c-22.38,0-28.29-15.77-28.29-34.49s5.62-34.49,29.27-34.49H59.55v4.73H33.83c-17.74,0-23.55,11-23.55,29.76s5.42,29.76,22.66,29.76h27.7v4.73Z"/><path class="cls-46" d="M115.82,156.13c0,18.73-7.1,26.81-25.82,26.81s-25.82-8.08-25.82-26.81,7.09-26.6,25.82-26.6S115.82,137.41,115.82,156.13ZM90,178.31c14.78,0,20.5-5.42,20.5-22.18s-5.72-22-20.5-22-20.5,5.22-20.5,22S75.22,178.31,90,178.31Z"/><path class="cls-46" d="M124.68,138.4c0-5,1.58-8.28,7.1-8.28H151c10.84,0,15.08,5.81,15.08,16.06v36.17H161V146.18c0-6.3-2.07-11.43-10-11.43H133c-2,0-3.15.39-3.15,3.74v43.86h-5.13Z"/><path class="cls-46" d="M176.71,138.4c0-5,1.58-8.28,7.1-8.28H203c10.84,0,15.08,5.81,15.08,16.06v36.17H213V146.18c0-6.3-2.07-11.43-10-11.43H185c-2,0-3.16.39-3.16,3.74v43.86h-5.12Z"/><path class="cls-46" d="M245,182.35c-14.39,0-18-10.84-18-25.72,0-17.64,4.73-27.1,22.37-27.1,12.91,0,22.47,5.12,22.47,19.9,0,6-1.58,8.58-7.49,8.58h-32c0,9.16,1.57,19.71,12.71,19.71h25.62v4.63Zm19.32-29a2.16,2.16,0,0,0,2.17-2.37v-.69c0-12.81-6.32-16.16-17.05-16.16-11.63,0-17.15,4.24-17.15,19.22Z"/><path class="cls-46" d="M301,182.35c-17.74,0-22.07-9.36-22.07-26.12,0-15.76,4.33-26.11,22.07-26.11h17.54v4.63H301c-13.79,0-16.75,7.69-16.75,21.48,0,14.79,3,21.49,16.75,21.49h18.72v4.63Z"/><path class="cls-46" d="M345.6,182.35c-14.18,0-14.18-8.28-14.18-16.56v-31h-8.18v-4.63h8.18V113.37h5.12v16.75h14v4.63h-14v32.52c0,8.18,2.17,10.45,10.25,10.45h3.75v4.63Z"/></g></svg>