<svg id="Layer_1" data-name="Layer 1" xmlns="http://www.w3.org/2000/svg" xmlns:xlink="http://www.w3.org/1999/xlink" viewBox="0 0 574.7 308.33"><defs><style>.cls-1{fill:none;}.cls-2{isolation:isolate;}.cls-3{clip-path:url(#clip-path);}.cls-4{fill:#637f20;}.cls-5{fill:#668021;}.cls-6{clip-path:url(#clip-path-2);}.cls-7{fill:#617c1f;}.cls-8{fill:#8bb02d;}.cls-9{clip-path:url(#clip-path-3);}.cls-10{fill:#6b8623;}.cls-11{fill:#6e8923;}.cls-12{fill:#718c24;}.cls-13{fill:#738f25;}.cls-14{fill:#769226;}.cls-15{fill:#698322;}.cls-16{fill:#93b930;}.cls-17{clip-path:url(#clip-path-4);}.cls-18{fill:#789527;}.cls-19{fill:#7b9827;}.cls-20{fill:#7d9b28;}.cls-21{fill:#809e29;}.cls-22{fill:#80a12a;}.cls-23{fill:#81a42a;}.cls-24{fill:#84a72b;}.cls-25{fill:#86a92c;}.cls-26{fill:#88ac2c;}.cls-27{fill:#8aaf2d;}.cls-28{fill:#8db22e;}.cls-29{fill:#8fb52e;}.cls-30{fill:#91b72f;}.cls-31{fill:#93ba30;}.cls-32{fill:#96bd30;}.cls-33{fill:#98c031;}.cls-34{fill:#a6c64c;}.cls-35{fill:#acc958;}.cls-36{fill:#b0cb61;}.cls-37{fill:#b3cd68;}.cls-38{fill:#b6cf6e;}.cls-39{fill:#b9d174;}.cls-40{fill:#bcd27a;}.cls-41{fill:#bed47f;}.cls-42{fill:#c0d580;}.cls-43{clip-path:url(#clip-path-5);}.cls-44{clip-path:url(#clip-path-6);}.cls-45{fill:#698f23;}.cls-46{clip-path:url(#clip-path-7);}.cls-47{fill:#9bc331;}.cls-48{fill:#7a9727;}.cls-49{clip-path:url(#clip-path-8);}.cls-50{clip-path:url(#clip-path-9);}.cls-51{clip-path:url(#clip-path-10);}.cls-52{fill:url(#radial-gradient);}.cls-53{opacity:0.2;}.cls-54,.cls-56{fill:#fff;}.cls-55{fill:#676766;}.cls-56{font-size:30px;font-family:Lato-Regular, Lato;letter-spacing:0.31em;}.cls-57{letter-spacing:0.29em;}.cls-58{letter-spacing:0.29em;}.cls-59{letter-spacing:0.28em;}.cls-60{letter-spacing:0.31em;}</style><clipPath id="clip-path"><path class="cls-1" d="M151.42,7.13l.61-.19a8,8,0,0,1,1.63-.31l-.61.18A7.84,7.84,0,0,0,151.42,7.13Z"/></clipPath><clipPath id="clip-path-2"><path class="cls-1" d="M510.84,160.86l-.42,1.41a17.51,17.51,0,0,0,.63-6.71,22,22,0,0,0-2.11-7.36,30.05,30.05,0,0,0-3.85-6l.41-1.41a30,30,0,0,1,3.86,6,21.74,21.74,0,0,1,2.1,7.36A17.51,17.51,0,0,1,510.84,160.86Z"/></clipPath><clipPath id="clip-path-3"><path class="cls-1" d="M528.38,166.08l-.42,1.41c-4.68,15.74-24.3,25.62-49,23a79.68,79.68,0,0,1-15.12-3.1,78.17,78.17,0,0,1-16.22-7.09l.42-1.41a79.09,79.09,0,0,0,31.34,10.19C504.08,191.7,523.7,181.82,528.38,166.08Z"/></clipPath><clipPath id="clip-path-4"><path class="cls-1" d="M467.37,223.85l-1.73-.21a18.46,18.46,0,0,1-3.52-.81C443,216.38,433.07,179,440,139.35a138.41,138.41,0,0,1,4.9-19.61,101.4,101.4,0,0,1,9.93-21.66l1.73.22A101,101,0,0,0,446.64,120a141.19,141.19,0,0,0-4.9,19.61c-6.94,39.66,3,77,22.11,83.48A17.7,17.7,0,0,0,467.37,223.85Z"/></clipPath><clipPath id="clip-path-5"><path class="cls-1" d="M483.75,78.43l1.74.21a18.6,18.6,0,0,0-6.43.35c-4.84,1.09-9.62,4-14.11,8.54l-1.73-.21c4.49-4.5,9.27-7.46,14.11-8.55A18.55,18.55,0,0,1,483.75,78.43Z"/></clipPath><clipPath id="clip-path-6"><path class="cls-1" d="M465.1,242l-1.74-.22a23.16,23.16,0,0,0,8.36-.51c6.19-1.49,12.31-5.42,18-11.34l1.73.22c-5.72,5.92-11.84,9.85-18,11.34A23.12,23.12,0,0,1,465.1,242Z"/></clipPath><clipPath id="clip-path-7"><path class="cls-1" d="M487.81,60.61l4.92,1.17c23.94,8.06,35.71,54.49,27,104.06a174.61,174.61,0,0,1-5.93,23.92,124.14,124.14,0,0,1-13.93,29.77l-1.74-.22a124.35,124.35,0,0,0,13.94-29.77A174.46,174.46,0,0,0,518,165.63"/></clipPath><clipPath id="clip-path-8"><path class="cls-1" d="M440.27,141.41l.42-1.41c3.12-10.49,16.2-17.08,32.63-15.37a53.21,53.21,0,0,1,9.83,2,51.79,51.79,0,0,1,8.9,3.61l-.41,1.41a51.92,51.92,0,0,0-8.91-3.62,53.19,53.19,0,0,0-9.83-2C456.47,124.33,443.39,130.91,440.27,141.41Z"/></clipPath><clipPath id="clip-path-9"><path class="cls-1" d="M422.73,136.19l.42-1.41a26.41,26.41,0,0,0-.94,10.07l-.42,1.41A26.59,26.59,0,0,1,422.73,136.19Z"/></clipPath><clipPath id="clip-path-10"><path class="cls-1" d="M434.44,168.49,434,169.9A46.57,46.57,0,0,1,424.83,157a33,33,0,0,1-3-10.77l.42-1.41a33.12,33.12,0,0,0,3,10.77A46.67,46.67,0,0,0,434.44,168.49Z"/></clipPath><radialGradient id="radial-gradient" cx="360.41" cy="131.59" fx="350.9456152823123" fy="113.6484589280431" r="20.29" gradientTransform="translate(174.89 -87.6) rotate(18.61)" gradientUnits="userSpaceOnUse"><stop offset="0" stop-color="#698f23" stop-opacity="0"/><stop offset="0.13" stop-color="#698f23" stop-opacity="0.03"/><stop offset="0.26" stop-color="#698f23" stop-opacity="0.11"/><stop offset="0.39" stop-color="#698f23" stop-opacity="0.25"/><stop offset="0.52" stop-color="#698f23" stop-opacity="0.44"/><stop offset="0.64" stop-color="#698f23" stop-opacity="0.69"/><stop offset="0.77" stop-color="#698f23" stop-opacity="0.99"/><stop offset="0.77" stop-color="#698f23"/></radialGradient></defs><title>BUD20 Vertical</title><g class="cls-2"><g class="cls-3"><g class="cls-2"><path class="cls-4" d="M151.42,7.13l.61-.19a5.66,5.66,0,0,1,.59-.15L152,7a5.47,5.47,0,0,0-.58.15"/><path class="cls-5" d="M152,7l.62-.19a7,7,0,0,1,1-.16l-.61.18A7.19,7.19,0,0,0,152,7"/></g></g></g><g class="cls-2"><g class="cls-6"><g class="cls-2"><path class="cls-7" d="M510.84,160.86l-.42,1.41a17.51,17.51,0,0,0,.63-6.71,22,22,0,0,0-2.11-7.36,30.05,30.05,0,0,0-3.85-6l.41-1.41a30,30,0,0,1,3.86,6,21.74,21.74,0,0,1,2.1,7.36,17.51,17.51,0,0,1-.62,6.71"/></g></g></g><path class="cls-8" d="M448.08,178.94l12-8a51.69,51.69,0,0,0,8,3.21,52.56,52.56,0,0,0,10.08,2.07c19.72,2.06,34.61-7.83,33.26-22.08a21.74,21.74,0,0,0-2.1-7.36,30,30,0,0,0-3.86-6l12-8A46.74,46.74,0,0,1,526.15,145a32.64,32.64,0,0,1,3.16,11c2,21.37-20.31,36.2-49.89,33.12a79.09,79.09,0,0,1-31.34-10.19Z"/><g class="cls-2"><g class="cls-9"><g class="cls-2"><path class="cls-10" d="M528.38,166.08l-.42,1.41a26.6,26.6,0,0,1-1.46,3.78l.41-1.41a25.5,25.5,0,0,0,1.47-3.78"/><path class="cls-11" d="M526.91,169.86l-.41,1.41a26.52,26.52,0,0,1-2.49,4.15l.41-1.4a26.31,26.31,0,0,0,2.49-4.16"/><path class="cls-12" d="M524.42,174l-.41,1.4a29.71,29.71,0,0,1-3.87,4.33l.42-1.41a30.09,30.09,0,0,0,3.86-4.32"/><path class="cls-13" d="M520.56,178.34l-.42,1.41a36.3,36.3,0,0,1-7.31,5.18l.42-1.41a36.19,36.19,0,0,0,7.31-5.18"/><path class="cls-14" d="M513.25,183.52l-.42,1.41a50.39,50.39,0,0,1-17.33,5.43l.42-1.4a50.61,50.61,0,0,0,17.33-5.44"/><path class="cls-13" d="M495.92,189l-.42,1.4a65.93,65.93,0,0,1-10.93.55l.42-1.4a67.08,67.08,0,0,0,10.93-.55"/><path class="cls-12" d="M485,189.51l-.42,1.4c-1.82,0-3.68-.17-5.57-.37-.81-.09-1.61-.18-2.42-.29l.42-1.41c.8.11,1.61.21,2.42.29,1.89.2,3.75.32,5.57.38"/><path class="cls-11" d="M477,188.84l-.42,1.41c-2.31-.32-4.59-.73-6.84-1.25l.42-1.4c2.24.51,4.53.93,6.84,1.24"/><path class="cls-10" d="M470.16,187.6l-.42,1.4q-3-.67-5.86-1.56l-.52-.16.42-1.41.52.16c1.92.59,3.87,1.12,5.86,1.57"/><path class="cls-15" d="M463.78,185.87l-.42,1.41c-2.12-.67-4.19-1.43-6.21-2.26l.42-1.4q3,1.24,6.21,2.25"/><path class="cls-5" d="M457.57,183.62l-.42,1.4q-3.36-1.38-6.51-3l.42-1.4c2.09,1.09,4.27,2.11,6.51,3"/><path class="cls-4" d="M451.06,180.59l-.42,1.4c-1-.53-2-1.07-3-1.64l.42-1.41c1,.57,2,1.12,3,1.65"/></g></g></g><polygon class="cls-16" points="450.9 83.22 452.64 83.44 456.57 98.3 454.84 98.08 450.9 83.22"/><g class="cls-2"><g class="cls-17"><g class="cls-2"><path class="cls-13" d="M454.84,98.08l1.73.22c-.38.6-.75,1.22-1.12,1.85l-1.74-.21c.37-.63.75-1.25,1.13-1.86"/><path class="cls-14" d="M453.71,99.94l1.74.21c-.43.73-.86,1.48-1.27,2.24l-1.73-.22c.41-.76.84-1.51,1.26-2.23"/><path class="cls-18" d="M452.45,102.17l1.73.22c-.41.74-.8,1.49-1.2,2.26l-1.73-.22c.39-.77.79-1.52,1.2-2.26"/><path class="cls-19" d="M451.25,104.43l1.73.22c-.38.75-.76,1.52-1.13,2.29l-1.73-.21c.37-.78.75-1.55,1.13-2.3"/><path class="cls-20" d="M450.12,106.73l1.73.21c-.37.77-.72,1.54-1.08,2.33l-1.73-.21c.35-.79.71-1.57,1.08-2.33"/><path class="cls-21" d="M449,109.06l1.73.21c-.35.78-.69,1.57-1,2.38l-1.74-.22c.34-.8.68-1.59,1-2.37"/><path class="cls-22" d="M448,111.43l1.74.22c-.34.79-.66,1.6-1,2.41l-1.73-.21c.32-.82.64-1.63,1-2.42"/><path class="cls-23" d="M447,113.85l1.73.21c-.31.81-.62,1.62-.92,2.45l-1.74-.22c.31-.82.61-1.64.93-2.44"/><path class="cls-24" d="M446.11,116.29l1.74.22c-.3.81-.59,1.62-.87,2.45l-1.73-.21c.28-.83.57-1.65.86-2.46"/><path class="cls-25" d="M445.25,118.75,447,119c-.11.33-.22.67-.34,1-.15.48-.31,1-.47,1.45l-1.73-.22c.16-.48.31-1,.47-1.45l.34-1"/><path class="cls-26" d="M444.44,121.19l1.73.22c-.25.8-.5,1.6-.74,2.41l-1.73-.21c.24-.82.49-1.62.74-2.42"/><path class="cls-27" d="M443.7,123.61l1.73.21-.66,2.31-1.73-.22c.21-.77.43-1.54.66-2.3"/><path class="cls-28" d="M443,125.91l1.73.22c-.2.72-.4,1.45-.59,2.18l-1.73-.21c.19-.74.39-1.46.59-2.19"/><path class="cls-29" d="M442.45,128.1l1.73.21c-.17.68-.35,1.37-.51,2.05l-1.73-.21c.16-.69.34-1.37.51-2.05"/><path class="cls-30" d="M441.94,130.15l1.73.21c-.16.64-.31,1.29-.46,1.94l-1.73-.22c.15-.65.3-1.29.46-1.93"/><path class="cls-31" d="M441.48,132.08l1.73.22c-.14.6-.27,1.22-.41,1.83l-1.73-.22c.13-.61.27-1.22.41-1.83"/><path class="cls-32" d="M441.07,133.91l1.73.22-.36,1.75-1.73-.21.36-1.76"/><path class="cls-33" d="M440.71,135.67l1.73.21c-.11.56-.23,1.13-.33,1.7l-1.73-.22c.1-.56.21-1.13.33-1.69"/><path class="cls-34" d="M440.38,137.36l1.73.22c-.11.55-.21,1.1-.31,1.65l-1.73-.21c.1-.56.2-1.11.31-1.66"/><path class="cls-35" d="M440.07,139l1.73.21-.06.34c-.07.45-.15.91-.23,1.36l-1.73-.21c.08-.46.15-.91.23-1.37l.06-.33"/><path class="cls-36" d="M439.78,140.72l1.73.21-.27,1.71-1.73-.21.27-1.71"/><path class="cls-37" d="M439.51,142.43l1.73.21c-.09.57-.17,1.14-.25,1.71l-1.73-.22c.08-.57.16-1.13.25-1.7"/><path class="cls-38" d="M439.26,144.13l1.73.22c-.09.62-.17,1.23-.25,1.85L439,146c.08-.61.17-1.23.26-1.85"/><path class="cls-39" d="M439,146l1.74.22c-.1.72-.18,1.44-.27,2.15l-1.73-.21c.08-.72.17-1.44.26-2.16"/><path class="cls-40" d="M438.74,148.14l1.73.21c-.08.72-.16,1.44-.23,2.15l-1.73-.22c.07-.71.15-1.43.23-2.14"/><path class="cls-41" d="M438.51,150.28l1.73.22c-.12,1.25-.23,2.5-.32,3.74l-1.73-.22c.09-1.24.2-2.49.32-3.74"/><path class="cls-42" d="M438.19,154l1.73.22c-.22,2.9-.34,5.77-.38,8.6l-1.73-.22c0-2.83.16-5.7.38-8.6"/><path class="cls-41" d="M437.81,162.62l1.73.22c0,.95,0,1.9,0,2.85l-1.73-.22c0-.94,0-1.89,0-2.85"/><path class="cls-40" d="M437.8,165.47l1.73.22c0,.94,0,1.87.05,2.79l-1.73-.21c0-.93-.05-1.86-.05-2.8"/><path class="cls-39" d="M437.85,168.27l1.73.21c0,.72,0,1.43.07,2.14l-1.73-.21c0-.71-.05-1.43-.07-2.14"/><path class="cls-38" d="M437.92,170.41l1.73.21c0,.72.07,1.42.11,2.12l-1.73-.21c0-.7-.08-1.41-.11-2.12"/><path class="cls-37" d="M438,172.53l1.73.21.15,2.15-1.73-.22-.15-2.14"/><path class="cls-36" d="M438.18,174.67l1.73.22c.06.72.12,1.44.19,2.16l-1.73-.21c-.07-.72-.13-1.44-.19-2.17"/><path class="cls-35" d="M438.37,176.84l1.73.21c.07.72.14,1.44.22,2.15l-1.73-.22c-.08-.71-.15-1.42-.22-2.14"/><path class="cls-34" d="M438.59,179l1.73.22c.1.84.2,1.67.32,2.5l-1.73-.22c-.12-.82-.22-1.66-.32-2.5"/><path class="cls-33" d="M438.91,181.48l1.73.22q.17,1.25.36,2.46l-1.73-.22q-.19-1.22-.36-2.46"/><path class="cls-32" d="M439.27,183.94l1.73.22c.15,1,.32,1.9.49,2.83l-1.73-.21c-.18-.94-.34-1.88-.49-2.84"/><path class="cls-31" d="M439.76,186.78l1.73.21c.18,1,.37,1.9.57,2.83l-1.73-.22q-.3-1.4-.57-2.82"/><path class="cls-30" d="M440.33,189.6l1.73.22q.33,1.49.69,2.91l-1.73-.21c-.25-1-.47-1.93-.69-2.92"/><path class="cls-29" d="M441,192.52l1.73.21c.24,1,.49,1.88.75,2.8l-1.73-.22q-.4-1.37-.75-2.79"/><path class="cls-28" d="M441.77,195.31l1.73.22c.26.91.54,1.8.82,2.67l-1.73-.21c-.29-.88-.56-1.77-.82-2.68"/><path class="cls-27" d="M442.59,198l1.73.21q.4,1.25.84,2.43l-1.73-.21q-.44-1.2-.84-2.43"/><path class="cls-26" d="M443.43,200.42l1.73.21c.29.78.58,1.55.89,2.3l-1.73-.22c-.31-.75-.6-1.51-.89-2.29"/><path class="cls-25" d="M444.32,202.71l1.73.22c.29.72.6,1.43.91,2.12l-1.73-.22c-.31-.69-.62-1.39-.91-2.12"/><path class="cls-24" d="M445.23,204.83l1.73.22c.31.68.62,1.34,1,2l-1.74-.21c-.32-.65-.63-1.31-.94-2"/><path class="cls-23" d="M446.17,206.82l1.74.21c.31.64.63,1.25,1,1.85l-1.74-.21c-.33-.6-.65-1.22-1-1.85"/><path class="cls-22" d="M447.14,208.67l1.74.21c.32.6.66,1.18,1,1.74l-1.73-.21c-.34-.57-.68-1.15-1-1.74"/><path class="cls-21" d="M448.15,210.41l1.73.21c.34.56.69,1.1,1.05,1.63l-1.74-.21c-.35-.53-.7-1.08-1-1.63"/><path class="cls-20" d="M449.19,212l1.74.21c.35.53.71,1.05,1.08,1.54l-1.73-.21c-.37-.5-.73-1-1.09-1.54"/><path class="cls-19" d="M450.28,213.58l1.73.21c.37.5.75,1,1.14,1.45l-1.74-.22c-.38-.46-.76-.94-1.13-1.44"/><path class="cls-18" d="M451.41,215l1.74.22c.39.47.79.93,1.2,1.37l-1.74-.22c-.4-.44-.8-.89-1.2-1.37"/><path class="cls-14" d="M452.61,216.39l1.74.22c.41.44.82.87,1.25,1.28l-1.73-.22c-.43-.41-.85-.83-1.26-1.28"/><path class="cls-13" d="M453.87,217.67l1.73.22c.44.42.9.83,1.36,1.21l-1.73-.21c-.47-.39-.92-.79-1.36-1.22"/><path class="cls-12" d="M455.23,218.89l1.73.21c.46.39.94.76,1.42,1.11l-1.73-.22c-.48-.35-1-.71-1.42-1.1"/><path class="cls-11" d="M456.65,220l1.73.22c.53.37,1.07.73,1.61,1l-1.73-.21c-.55-.33-1.08-.68-1.61-1.06"/><path class="cls-10" d="M458.26,221.05l1.73.21a18.66,18.66,0,0,0,1.76.94L460,222c-.6-.28-1.18-.59-1.76-.93"/><path class="cls-15" d="M460,222l1.73.22a21.1,21.1,0,0,0,2,.81l-1.73-.22a18.71,18.71,0,0,1-2-.81"/><path class="cls-5" d="M462,222.79l1.73.22.12,0a17.89,17.89,0,0,0,2.23.59l-1.74-.21a18.28,18.28,0,0,1-2.22-.6l-.12,0"/><path class="cls-4" d="M464.34,223.43l1.74.21q.65.13,1.29.21l-1.73-.21-1.3-.21"/></g></g></g><g class="cls-2"><g class="cls-43"><g class="cls-2"><path class="cls-7" d="M483.75,78.43l1.74.21a18.6,18.6,0,0,0-6.43.35A26.13,26.13,0,0,0,469,84l-1.73-.22a26.13,26.13,0,0,1,10.06-5,18.55,18.55,0,0,1,6.42-.34"/><path class="cls-4" d="M467.27,83.74,469,84a37.93,37.93,0,0,0-3.05,2.6l-1.73-.21a38.09,38.09,0,0,1,3-2.61"/><path class="cls-5" d="M464.22,86.35l1.73.21-1,1-1.73-.21c.33-.34.66-.66,1-1"/></g></g></g><g class="cls-2"><g class="cls-44"><g class="cls-2"><path class="cls-5" d="M489.75,229.94l1.73.22c-.65.66-1.29,1.31-2,1.92l-1.73-.21c.65-.62,1.3-1.26,1.95-1.93"/><path class="cls-4" d="M487.8,231.87l1.73.21a47.77,47.77,0,0,1-3.84,3.28l-1.73-.21c1.29-1,2.58-2.09,3.84-3.28"/><path class="cls-7" d="M484,235.15l1.73.21a33.05,33.05,0,0,1-12.24,6.14,23.12,23.12,0,0,1-8.35.51l-1.74-.22a23.16,23.16,0,0,0,8.36-.51A32.94,32.94,0,0,0,484,235.15"/></g></g></g><path class="cls-45" d="M450.9,83.23l3.94,14.85a101.4,101.4,0,0,0-9.93,21.66,138.41,138.41,0,0,0-4.9,19.61c-6.94,39.66,3,77,22.11,83.48a18.14,18.14,0,0,0,10.19.4c4.62-1.11,9.2-3.92,13.5-8.14l3.94,14.85c-5.72,5.92-11.84,9.85-18,11.34a22.7,22.7,0,0,1-12.75-.49C435,232.72,422.67,186,431.35,136.43a172.82,172.82,0,0,1,6.12-24.51A124.09,124.09,0,0,1,450.9,83.23Z"/><polygon class="cls-16" points="485.81 215.09 487.55 215.3 491.48 230.16 489.75 229.94 485.81 215.09"/><path class="cls-45" d="M490.4,61.28c23.94,8.06,36.3,54.78,27.63,104.35a174.46,174.46,0,0,1-5.93,23.91,124.35,124.35,0,0,1-13.94,29.77l-3.93-14.84a101.27,101.27,0,0,0,10.39-22.63,139,139,0,0,0,4.74-19.13c6.94-39.65-2.95-77-22.1-83.48a18.06,18.06,0,0,0-9.93-.46c-4.84,1.09-9.62,4-14.11,8.55l-3.93-14.85c5.91-6.23,12.27-10.32,18.7-11.77A22.71,22.71,0,0,1,490.4,61.28Z"/><g class="cls-2"><g class="cls-46"><g class="cls-2"><path class="cls-15" d="M487.36,60.5l3.42.81c1.06.43,3.17.86,4,1.25L493,62.34c-.81-.38-3-1.13-3.83-1.42"/><path class="cls-10" d="M493,62.34l1.74.22q1.11.52,2.19,1.17l-1.73-.22a24.44,24.44,0,0,0-2.2-1.17"/><path class="cls-11" d="M495.22,63.51l1.73.22a23.29,23.29,0,0,1,2,1.32l-1.73-.22c-.66-.47-1.34-.91-2-1.32"/><path class="cls-12" d="M497.24,64.83l1.73.22c.6.43,1.19.89,1.78,1.38L499,66.21q-.87-.73-1.77-1.38"/><path class="cls-13" d="M499,66.21l1.74.22c.57.48,1.14,1,1.69,1.51l-1.73-.21c-.55-.53-1.12-1-1.7-1.52"/><path class="cls-14" d="M500.71,67.73l1.73.21c.53.51,1.06,1,1.57,1.6l-1.73-.22c-.51-.55-1-1.08-1.57-1.59"/><path class="cls-18" d="M502.28,69.32l1.73.22q.76.83,1.5,1.71L503.78,71c-.49-.6-1-1.17-1.5-1.72"/><path class="cls-19" d="M503.78,71l1.73.21c.48.58.95,1.19,1.41,1.81l-1.73-.22q-.69-.93-1.41-1.8"/><path class="cls-20" d="M505.19,72.84l1.73.22c.47.62.92,1.26,1.36,1.92l-1.73-.21c-.44-.66-.9-1.3-1.36-1.93"/><path class="cls-21" d="M506.55,74.77l1.73.21c.45.66.88,1.34,1.31,2l-1.74-.21c-.42-.7-.85-1.38-1.3-2"/><path class="cls-22" d="M507.85,76.81l1.74.21c.43.71.84,1.43,1.25,2.17L509.11,79c-.41-.74-.83-1.47-1.26-2.17"/><path class="cls-23" d="M509.11,79l1.73.21c.42.76.82,1.53,1.22,2.32l-1.73-.22c-.4-.79-.8-1.56-1.22-2.31"/><path class="cls-24" d="M510.33,81.29l1.73.22c.4.8.8,1.63,1.18,2.48l-1.73-.22c-.39-.84-.78-1.67-1.18-2.48"/><path class="cls-25" d="M511.51,83.77l1.73.22c.39.86.77,1.74,1.14,2.65l-1.74-.22c-.36-.9-.74-1.78-1.13-2.65"/><path class="cls-26" d="M512.64,86.42l1.74.22c.38.93.75,1.89,1.11,2.87l-1.74-.22c-.35-1-.72-1.93-1.11-2.87"/><path class="cls-27" d="M513.75,89.29l1.74.22q.54,1.48,1,3l-1.74-.21c-.33-1-.68-2-1-3"/><path class="cls-28" d="M514.8,92.33l1.74.21c.35,1.1.7,2.21,1,3.35l-1.73-.22c-.33-1.13-.67-2.25-1-3.34"/><path class="cls-29" d="M515.83,95.67l1.73.22c.33,1.14.65,2.31,1,3.49l-1.74-.22c-.3-1.18-.61-2.34-.94-3.49"/><path class="cls-30" d="M516.77,99.16l1.74.22c.3,1.19.58,2.41.85,3.64l-1.73-.21c-.27-1.24-.56-2.45-.86-3.65"/><path class="cls-31" d="M517.63,102.81l1.73.21q.38,1.76.72,3.54l-1.74-.21c-.22-1.2-.46-2.38-.71-3.54"/><path class="cls-32" d="M518.34,106.35l1.74.21c.22,1.17.42,2.35.61,3.55l-1.73-.22c-.19-1.2-.4-2.38-.62-3.54"/><path class="cls-33" d="M519,109.89l1.73.22c.16,1,.31,2,.45,3.07l-1.73-.22c-.14-1-.29-2.06-.45-3.07"/><path class="cls-34" d="M519.41,113l1.73.22q.21,1.54.39,3.12l-1.73-.21c-.12-1-.25-2.1-.39-3.13"/><path class="cls-35" d="M519.8,116.09l1.73.21c.1.89.2,1.79.28,2.69l-1.73-.22c-.08-.9-.18-1.79-.28-2.68"/><path class="cls-36" d="M520.08,118.77l1.73.22c.09.89.17,1.8.24,2.71l-1.73-.22c-.07-.91-.15-1.81-.24-2.71"/><path class="cls-37" d="M520.32,121.48l1.73.22q.11,1.32.18,2.67l-1.73-.21c0-.9-.11-1.79-.18-2.68"/><path class="cls-38" d="M520.5,124.16l1.73.21c.06.88.1,1.76.14,2.65l-1.73-.21c0-.89-.09-1.78-.14-2.65"/><path class="cls-39" d="M520.64,126.81l1.73.21c0,.89.07,1.78.1,2.68l-1.73-.22c0-.89-.06-1.79-.1-2.67"/><path class="cls-40" d="M520.74,129.48l1.73.22c0,1.16,0,2.32.06,3.49L520.8,133c0-1.17,0-2.33-.06-3.49"/><path class="cls-41" d="M520.8,133l1.73.22c0,1.18,0,2.37,0,3.57l-1.73-.22c0-1.19,0-2.38,0-3.57"/><path class="cls-42" d="M520.78,136.54l1.73.22c0,3.53-.2,7.12-.47,10.75l-1.73-.22c.27-3.63.42-7.22.47-10.75"/><path class="cls-41" d="M520.31,147.29l1.73.22c-.11,1.55-.25,3.1-.41,4.67L519.9,152c.16-1.56.29-3.12.41-4.67"/><path class="cls-40" d="M519.9,152l1.73.22c-.08.89-.18,1.78-.28,2.68l-1.73-.22c.1-.89.19-1.79.28-2.68"/><path class="cls-39" d="M519.62,154.64l1.73.22c-.11.89-.21,1.79-.33,2.69l-1.73-.21.33-2.7"/><path class="cls-38" d="M519.29,157.34l1.73.21c-.1.77-.21,1.54-.31,2.32l-1.74-.22c.11-.77.22-1.54.32-2.31"/><path class="cls-37" d="M519,159.65l1.74.22c-.11.71-.21,1.42-.32,2.13l-1.73-.22c.11-.71.21-1.42.31-2.13"/><path class="cls-36" d="M518.66,161.78l1.73.22c-.11.71-.22,1.42-.34,2.13l-1.73-.21c.11-.71.23-1.43.34-2.14"/><path class="cls-35" d="M518.32,163.92l1.73.21c-.1.57-.19,1.14-.29,1.71,0,.14,0,.28-.08.42L518,166c0-.14,0-.28.08-.41.1-.57.19-1.14.29-1.71"/><path class="cls-34" d="M518,166l1.73.22c-.12.69-.25,1.39-.38,2.08l-1.73-.22c.13-.69.26-1.38.38-2.08"/><path class="cls-33" d="M517.57,168.12l1.73.22c-.13.71-.27,1.41-.41,2.11l-1.73-.22c.14-.7.28-1.4.41-2.11"/><path class="cls-32" d="M517.16,170.23l1.73.22c-.15.74-.3,1.47-.46,2.19l-1.73-.21c.16-.73.31-1.46.46-2.2"/><path class="cls-31" d="M516.7,172.43l1.73.21c-.16.77-.33,1.54-.51,2.3l-1.73-.22c.18-.76.35-1.52.51-2.29"/><path class="cls-30" d="M516.19,174.72l1.73.22c-.18.8-.37,1.61-.56,2.41l-1.74-.22c.2-.8.39-1.6.57-2.41"/><path class="cls-29" d="M515.62,177.13l1.74.22c-.21.86-.43,1.71-.65,2.56l-1.73-.22c.22-.84.43-1.7.64-2.56"/><path class="cls-28" d="M515,179.69l1.73.22c-.24.91-.48,1.82-.73,2.72l-1.73-.22c.25-.9.49-1.8.73-2.72"/><path class="cls-27" d="M514.25,182.41l1.73.22c-.27,1-.54,1.93-.83,2.88l-1.73-.22c.28-.95.56-1.91.83-2.88"/><path class="cls-26" d="M513.42,185.29l1.73.22c-.3,1-.61,2-.92,3l-1.74-.21c.32-1,.63-2,.93-3"/><path class="cls-25" d="M512.49,188.31l1.74.21c-.14.42-.27.83-.4,1.24-.21.64-.42,1.27-.64,1.9l-1.73-.21c.22-.63.43-1.27.64-1.91l.39-1.23"/><path class="cls-24" d="M511.46,191.45l1.73.21q-.53,1.54-1.08,3.06l-1.73-.21q.56-1.51,1.08-3.06"/><path class="cls-23" d="M510.38,194.51l1.73.21c-.37,1-.76,2.05-1.15,3.05l-1.73-.21c.39-1,.78-2,1.15-3.05"/><path class="cls-22" d="M509.23,197.56l1.73.21c-.4,1-.8,2-1.22,3l-1.73-.22c.41-1,.82-2,1.22-3"/><path class="cls-21" d="M508,200.57l1.73.22c-.42,1-.84,2-1.28,3l-1.73-.21c.43-1,.86-2,1.28-3"/><path class="cls-20" d="M506.73,203.54l1.73.21c-.44,1-.89,2-1.34,2.91l-1.73-.21c.45-1,.9-1.93,1.34-2.91"/><path class="cls-19" d="M505.39,206.45l1.73.21c-.47,1-.94,1.93-1.42,2.87l-1.73-.22c.48-.94.95-1.89,1.42-2.86"/><path class="cls-18" d="M504,209.31l1.73.22c-.49,1-1,1.9-1.49,2.82l-1.73-.21c.5-.93,1-1.87,1.49-2.83"/><path class="cls-14" d="M502.48,212.14l1.73.21c-.52,1-1,1.89-1.59,2.8l-1.73-.22c.54-.91,1.06-1.84,1.59-2.79"/><path class="cls-13" d="M500.89,214.93l1.73.22c-.55.94-1.12,1.87-1.69,2.77l-1.73-.21c.57-.91,1.14-1.83,1.69-2.78"/><path class="cls-12" d="M499.2,217.71l1.73.21c-.34.55-.69,1.08-1,1.61l-1.74-.22c.35-.53.7-1.06,1-1.6"/></g></g></g><path class="cls-47" d="M481.39,133.8a18.32,18.32,0,0,0-20.85,6.89,18.29,18.29,0,0,0,9.17,27.78,18.64,18.64,0,0,0,5.08.95,18.3,18.3,0,0,0,6.6-35.62Z"/><polygon class="cls-48" points="504.05 122.28 503.63 123.68 491.64 131.65 492.05 130.24 504.05 122.28"/><g class="cls-2"><g class="cls-49"><g class="cls-2"><path class="cls-5" d="M492.05,130.24l-.41,1.41q-2-1.05-4.16-1.93l.41-1.41q2.14.88,4.16,1.93"/><path class="cls-15" d="M487.89,128.31l-.41,1.41c-1.33-.55-2.69-1-4.08-1.48l.41-1.41c1.39.44,2.76.94,4.08,1.48"/><path class="cls-10" d="M483.81,126.83l-.41,1.41-.67-.21c-1.21-.36-2.43-.69-3.68-1l.42-1.41c1.24.28,2.47.61,3.68,1l.66.2"/><path class="cls-11" d="M479.47,125.65l-.42,1.41c-1.49-.34-3-.62-4.54-.83l.42-1.4c1.54.21,3.05.48,4.54.82"/><path class="cls-12" d="M474.93,124.83l-.42,1.4L472.9,126c-1.25-.13-2.49-.21-3.71-.25l.42-1.41c1.21,0,2.45.12,3.71.25.54.06,1.08.12,1.61.2"/><path class="cls-13" d="M469.61,124.38l-.42,1.41a44.26,44.26,0,0,0-7.28.37l.42-1.41a45.33,45.33,0,0,1,7.28-.37"/><path class="cls-14" d="M462.33,124.75l-.42,1.41a33.61,33.61,0,0,0-11.56,3.62l.42-1.41a33.82,33.82,0,0,1,11.56-3.62"/><path class="cls-13" d="M450.77,128.37l-.42,1.41a24.32,24.32,0,0,0-4.87,3.45l.42-1.4a24,24,0,0,1,4.87-3.46"/><path class="cls-12" d="M445.9,131.83l-.42,1.4a19.93,19.93,0,0,0-2.57,2.89l.42-1.41a18.8,18.8,0,0,1,2.57-2.88"/><path class="cls-11" d="M443.33,134.71l-.42,1.41a17.27,17.27,0,0,0-1.66,2.76l.42-1.4a16.65,16.65,0,0,1,1.66-2.77"/><path class="cls-10" d="M441.67,137.48l-.42,1.4a17.64,17.64,0,0,0-1,2.53l.42-1.41a16,16,0,0,1,1-2.52"/></g></g></g><g class="cls-2"><g class="cls-50"><g class="cls-2"><path class="cls-7" d="M422.21,144.85l-.42,1.41a26.59,26.59,0,0,1,.94-10.07l.42-1.41a26.41,26.41,0,0,0-.94,10.07"/></g></g></g><path class="cls-8" d="M422.21,144.85c-2-21.37,20.32-36.2,49.89-33.12a80,80,0,0,1,14.75,3,78,78,0,0,1,17.2,7.56l-12,8a51.79,51.79,0,0,0-8.9-3.61,53.21,53.21,0,0,0-9.83-2c-19.71-2-34.6,7.83-33.25,22.08a21.94,21.94,0,0,0,2,7.18,29.75,29.75,0,0,0,4.35,6.64l-12,8a46.67,46.67,0,0,1-9.2-12.87A33.12,33.12,0,0,1,422.21,144.85Z"/><polygon class="cls-48" points="446.43 160.53 446.01 161.94 434.02 169.9 434.44 168.49 446.43 160.53"/><g class="cls-2"><g class="cls-51"><g class="cls-2"><path class="cls-7" d="M434.44,168.49,434,169.9A46.57,46.57,0,0,1,424.83,157a33,33,0,0,1-3-10.77l.42-1.41a33.12,33.12,0,0,0,3,10.77,46.67,46.67,0,0,0,9.2,12.87"/></g></g></g><path class="cls-47" d="M481.58,133.25a18.32,18.32,0,0,0-20.85,6.89,18.27,18.27,0,0,0,9.17,27.79,18.28,18.28,0,0,0,20.92-7,17.89,17.89,0,0,0,2.25-4.5A18.29,18.29,0,0,0,481.58,133.25Z"/><path class="cls-52" d="M481.58,133.25a18.32,18.32,0,0,0-20.85,6.89,18.27,18.27,0,0,0,9.17,27.79,18.28,18.28,0,0,0,20.92-7,17.89,17.89,0,0,0,2.25-4.5A18.29,18.29,0,0,0,481.58,133.25Z"/><g class="cls-53"><circle class="cls-54" cx="473.49" cy="141.38" r="4.49"/></g><circle class="cls-54" cx="471.84" cy="137.3" r="1.63"/><g class="cls-53"><circle class="cls-54" cx="478" cy="144" r="3.44"/></g><path class="cls-55" d="M193,119.06c-3.37,0-6.09-1.21-6.09-5.13V63h4.32v49.52c0,1.84.81,2.72,3.05,2.72h32.13v3.85Z"/><path class="cls-55" d="M230.7,69.21V63h4.48v6.24Zm.16,7.38H235v42.47h-4.17Z"/><path class="cls-55" d="M243.84,83.32c0-4.09,1.28-6.73,5.76-6.73h15.63c8.81,0,12.26,4.73,12.26,13.06v29.41h-4.17V89.65c0-5.13-1.68-9.3-8.09-9.3H250.56c-1.6,0-2.56.32-2.56,3.05v35.66h-4.16Z"/><path class="cls-55" d="M308.49,76.59c7.05,0,10.18,3.92,10.18,10.65v26.21c0,3.76-1,5.61-6.18,5.61H296.15c-8.41,0-11.46-4-11.46-12.82s3.13-12.59,11.46-12.59H314.5V86.52c0-3.2-1.52-6.17-6-6.17H287.9V76.59ZM295,97.42c-5.13,0-6,3.69-6,8.82s.88,9.05,6,9.05h17.46a1.83,1.83,0,0,0,2-1.92v-16Z"/><path class="cls-55" d="M327.31,91.17c0-9.61,4.57-14.58,14.19-14.58h2.88v3.76H341.5c-7.22,0-10,3.77-10,11.78v26.93h-4.17Z"/><path class="cls-55" d="M387.64,97.74c0,15.23-5.77,21.8-21,21.8s-21-6.57-21-21.8,5.76-21.63,21-21.63S387.64,82.52,387.64,97.74Zm-21,18c12,0,16.67-4.41,16.67-18s-4.65-17.87-16.67-17.87S350,84.12,350,97.74,354.63,115.77,366.65,115.77Z"/><path class="cls-47" d="M91.56,190.72c-22.36,0-28.27-15.76-28.27-34.47s5.61-34.47,29.25-34.47h25.71v4.72H92.54c-17.73,0-23.54,11-23.54,29.75S74.42,186,91.65,186h27.68v4.73Z"/><path class="cls-47" d="M174.49,164.52c0,18.72-7.1,26.79-25.81,26.79s-25.81-8.07-25.81-26.79,7.09-26.59,25.81-26.59S174.49,145.81,174.49,164.52Zm-25.81,22.16c14.77,0,20.49-5.41,20.49-22.16s-5.72-22-20.49-22-20.49,5.22-20.49,22S133.91,186.68,148.68,186.68Z"/><path class="cls-47" d="M183.34,146.79c0-5,1.58-8.27,7.1-8.27h19.2c10.84,0,15.07,5.81,15.07,16v36.15h-5.12V154.57c0-6.3-2.07-11.42-10-11.42h-18c-2,0-3.16.39-3.16,3.74v43.83h-5.12Z"/><path class="cls-47" d="M235.34,146.79c0-5,1.58-8.27,7.1-8.27h19.2c10.84,0,15.07,5.81,15.07,16v36.15h-5.12V154.57c0-6.3-2.07-11.42-9.95-11.42h-18c-2,0-3.15.39-3.15,3.74v43.83h-5.13Z"/><path class="cls-47" d="M303.6,190.72c-14.38,0-18-10.83-18-25.71,0-17.63,4.73-27.08,22.36-27.08,12.91,0,22.46,5.12,22.46,19.89,0,6-1.58,8.57-7.49,8.57h-32c0,9.16,1.58,19.7,12.71,19.7h25.61v4.63Zm19.3-29a2.14,2.14,0,0,0,2.17-2.36v-.69c0-12.8-6.31-16.15-17-16.15-11.62,0-17.14,4.23-17.14,19.2Z"/><path class="cls-47" d="M359.54,190.72c-17.73,0-22.07-9.36-22.07-26.1,0-15.76,4.34-26.1,22.07-26.1h17.53v4.63H359.54c-13.79,0-16.75,7.68-16.75,21.47,0,14.77,3,21.47,16.75,21.47h18.71v4.63Z"/><path class="cls-47" d="M404.15,190.72c-14.18,0-14.18-8.27-14.18-16.55v-31h-8.18v-4.63H390V121.78h5.12v16.74h14v4.63h-14v32.5c0,8.18,2.16,10.44,10.24,10.44h3.75v4.63Z"/><path class="cls-47" d="M84.44,207.67v34.44c-12.3,0-16.76-4.34-16.76-17.23S72.14,207.68,84.44,207.67Z"/><path class="cls-47" d="M409.22,224.88c0,12.9-4.38,17.23-16.78,17.23h0V207.67h0C404.84,207.67,409.22,212,409.22,224.88Z"/><rect class="cls-47" x="83.94" y="207.67" width="308.93" height="34.44"/><text class="cls-56" transform="translate(89.76 235.06)">VI<tspan class="cls-57" x="47.31" y="0">R</tspan><tspan x="74.7" y="0">T</tspan><tspan class="cls-58" x="101.71" y="0">U</tspan><tspan x="132.58" y="0">A</tspan><tspan class="cls-59" x="162.19" y="0">L</tspan><tspan class="cls-60" x="186" y="0" xml:space="preserve"> 2020</tspan></text></svg>