<svg xmlns="http://www.w3.org/2000/svg" xmlns:xlink="http://www.w3.org/1999/xlink" viewBox="0 0 1224.1 478.13"><defs><style>.cls-1,.cls-55{fill:none;}.cls-2{isolation:isolate;}.cls-3{clip-path:url(#clip-path);}.cls-4{fill:#617c1f;}.cls-5{fill:#8bb02d;}.cls-6{clip-path:url(#clip-path-2);}.cls-7{fill:#6b8623;}.cls-8{fill:#6e8923;}.cls-9{fill:#718c24;}.cls-10{fill:#738f25;}.cls-11{fill:#769226;}.cls-12{fill:#698322;}.cls-13{fill:#668021;}.cls-14{fill:#637f20;}.cls-15{fill:#93b930;}.cls-16{clip-path:url(#clip-path-3);}.cls-17{fill:#789527;}.cls-18{fill:#7b9827;}.cls-19{fill:#7d9b28;}.cls-20{fill:#809e29;}.cls-21{fill:#80a12a;}.cls-22{fill:#81a42a;}.cls-23{fill:#84a72b;}.cls-24{fill:#86a92c;}.cls-25{fill:#88ac2c;}.cls-26{fill:#8aaf2d;}.cls-27{fill:#8db22e;}.cls-28{fill:#8fb52e;}.cls-29{fill:#91b72f;}.cls-30{fill:#93ba30;}.cls-31{fill:#96bd30;}.cls-32{fill:#98c031;}.cls-33{fill:#a6c64c;}.cls-34{fill:#acc958;}.cls-35{fill:#b0cb61;}.cls-36{fill:#b3cd68;}.cls-37{fill:#b6cf6e;}.cls-38{fill:#b9d174;}.cls-39{fill:#bcd27a;}.cls-40{fill:#bed47f;}.cls-41{fill:#c0d580;}.cls-42{clip-path:url(#clip-path-4);}.cls-43{clip-path:url(#clip-path-5);}.cls-44{fill:#698f23;}.cls-45{clip-path:url(#clip-path-6);}.cls-46{fill:#9bc331;}.cls-47{fill:#7a9727;}.cls-48{clip-path:url(#clip-path-7);}.cls-49{clip-path:url(#clip-path-8);}.cls-50{clip-path:url(#clip-path-9);}.cls-51{fill:url(#radial-gradient);}.cls-52{opacity:0.2;}.cls-53{fill:#fff;}.cls-54{fill:#0cb2dd;}.cls-55{stroke:#fff;stroke-miterlimit:10;stroke-width:0.99px;}</style><clipPath id="clip-path"><path class="cls-1" d="M1175.27,264.6l-1.1,3.69a46.1,46.1,0,0,0,1.64-17.63,57.17,57.17,0,0,0-5.54-19.32,77.94,77.94,0,0,0-10.11-15.7l1.09-3.7a78.55,78.55,0,0,1,10.12,15.7A57.28,57.28,0,0,1,1176.9,247,46.33,46.33,0,0,1,1175.27,264.6Z"/></clipPath><clipPath id="clip-path-2"><path class="cls-1" d="M1221.32,278.29l-1.1,3.7c-12.28,41.33-63.81,67.28-128.55,60.53a208.6,208.6,0,0,1-39.71-8.14,205.56,205.56,0,0,1-42.61-18.62l1.1-3.69a206,206,0,0,0,42.6,18.62,208.75,208.75,0,0,0,39.71,8.14C1157.51,345.57,1209,319.63,1221.32,278.29Z"/></clipPath><clipPath id="clip-path-3"><path class="cls-1" d="M1061.12,430l-4.55-.57a47.89,47.89,0,0,1-9.25-2.12C997,410.38,971,312.25,989.28,208.1a363.3,363.3,0,0,1,12.86-51.48c7.19-21.69,16.07-40.88,26.06-56.9l4.55.57c-10,16-18.87,35.21-26.06,56.89a365.14,365.14,0,0,0-12.87,51.49c-18.23,104.14,7.76,202.28,58,219.21A47,47,0,0,0,1061.12,430Z"/></clipPath><clipPath id="clip-path-4"><path class="cls-1" d="M1104.14,48.11l4.54.57a48.75,48.75,0,0,0-16.87.91c-12.7,2.86-25.27,10.62-37,22.44l-4.55-.57C1062,59.64,1074.57,51.89,1087.27,49A48.73,48.73,0,0,1,1104.14,48.11Z"/></clipPath><clipPath id="clip-path-5"><path class="cls-1" d="M1055.14,477.68l-4.54-.56a61.12,61.12,0,0,0,21.93-1.35c16.26-3.9,32.34-14.22,47.34-29.78l4.55.57c-15,15.55-31.08,25.87-47.34,29.78A60.93,60.93,0,0,1,1055.14,477.68Z"/></clipPath><clipPath id="clip-path-6"><path class="cls-1" d="M1114.8,1.32l12.92,3.08c62.85,21.17,93.75,143.1,71,273.26a456.38,456.38,0,0,1-15.58,62.82c-9.87,30.26-22.4,56.72-36.58,78.16l-4.55-.56c14.18-21.45,26.71-47.91,36.58-78.17a454.79,454.79,0,0,0,15.58-62.81"/></clipPath><clipPath id="clip-path-7"><path class="cls-1" d="M990,213.5l1.1-3.7c8.18-27.55,42.53-44.84,85.68-40.35a138.56,138.56,0,0,1,25.82,5.24,137,137,0,0,1,23.38,9.48l-1.1,3.7a136.16,136.16,0,0,0-23.38-9.48,137.81,137.81,0,0,0-25.81-5.24C1032.49,168.65,998.14,185.94,990,213.5Z"/></clipPath><clipPath id="clip-path-8"><path class="cls-1" d="M943.89,199.81l1.09-3.7a69.6,69.6,0,0,0-2.45,26.44l-1.1,3.69A69.35,69.35,0,0,1,943.89,199.81Z"/></clipPath><clipPath id="clip-path-9"><path class="cls-1" d="M974.64,284.63l-1.1,3.69a121.87,121.87,0,0,1-24.14-33.8,86.12,86.12,0,0,1-8-28.28l1.1-3.69a86.48,86.48,0,0,0,8,28.28A122.2,122.2,0,0,0,974.64,284.63Z"/></clipPath><radialGradient id="radial-gradient" cx="2508.39" cy="-319.45" fx="2483.545666474475" fy="-366.5767068393036" r="53.27" gradientTransform="translate(-1399.46 -256.18) rotate(18.61)" gradientUnits="userSpaceOnUse"><stop offset="0" stop-color="#698f23" stop-opacity="0"/><stop offset="0.13" stop-color="#698f23" stop-opacity="0.03"/><stop offset="0.26" stop-color="#698f23" stop-opacity="0.11"/><stop offset="0.39" stop-color="#698f23" stop-opacity="0.25"/><stop offset="0.52" stop-color="#698f23" stop-opacity="0.44"/><stop offset="0.64" stop-color="#698f23" stop-opacity="0.69"/><stop offset="0.77" stop-color="#698f23" stop-opacity="0.99"/><stop offset="0.77" stop-color="#698f23"/></radialGradient></defs><g id="logos"><g class="cls-2"><g class="cls-3"><g class="cls-2"><path class="cls-4" d="M1175.27,264.6l-1.1,3.69a46.1,46.1,0,0,0,1.64-17.63,57.17,57.17,0,0,0-5.54-19.32,77.94,77.94,0,0,0-10.11-15.7l1.09-3.7a78.55,78.55,0,0,1,10.12,15.7A57.28,57.28,0,0,1,1176.9,247a46.33,46.33,0,0,1-1.63,17.64"/></g></g></g><path class="cls-5" d="M1010.45,312.07l31.6-21A139.46,139.46,0,0,0,1089.56,305c51.77,5.39,90.89-20.57,87.34-58a57.28,57.28,0,0,0-5.53-19.32,78.55,78.55,0,0,0-10.12-15.7l31.58-21a122.09,122.09,0,0,1,22.64,31.89,86.34,86.34,0,0,1,8.3,29c5.31,56.12-53.34,95.07-131,87a208.75,208.75,0,0,1-39.71-8.14A206,206,0,0,1,1010.45,312.07Z"/><g class="cls-2"><g class="cls-6"><g class="cls-2"><path class="cls-7" d="M1221.32,278.29l-1.1,3.7a67.06,67.06,0,0,1-3.84,9.93l1.1-3.69a67.17,67.17,0,0,0,3.84-9.94"/><path class="cls-8" d="M1217.48,288.23l-1.1,3.69a70,70,0,0,1-6.54,10.91l1.1-3.7a70.4,70.4,0,0,0,6.54-10.9"/><path class="cls-9" d="M1210.94,299.13l-1.1,3.7a77.84,77.84,0,0,1-10.15,11.35l1.1-3.69a78.43,78.43,0,0,0,10.15-11.36"/><path class="cls-10" d="M1200.79,310.49l-1.1,3.69a94.56,94.56,0,0,1-19.19,13.61l1.1-3.69a95,95,0,0,0,19.19-13.61"/><path class="cls-11" d="M1181.6,324.1l-1.1,3.69c-13,7-28.36,11.94-45.52,14.27l1.09-3.69c17.17-2.33,32.58-7.24,45.53-14.27"/><path class="cls-10" d="M1136.07,338.37l-1.09,3.69a175.17,175.17,0,0,1-28.69,1.44l1.1-3.69a176.11,176.11,0,0,0,28.68-1.44"/><path class="cls-9" d="M1107.39,339.81l-1.1,3.69q-7.18-.21-14.62-1-3.2-.33-6.36-.76l1.09-3.7q3.18.44,6.36.77,7.44.76,14.63,1"/><path class="cls-8" d="M1086.4,338.06l-1.09,3.7q-9.11-1.25-18-3.27l1.1-3.69c5.9,1.34,11.9,2.44,18,3.26"/><path class="cls-7" d="M1068.43,334.8l-1.1,3.69c-5.2-1.18-10.34-2.56-15.37-4.11l-1.37-.43,1.09-3.69,1.37.43q7.56,2.32,15.38,4.11"/><path class="cls-12" d="M1051.68,330.26l-1.09,3.69q-8.35-2.64-16.32-5.91l1.1-3.7q8,3.27,16.31,5.92"/><path class="cls-13" d="M1035.37,324.34l-1.1,3.7c-5.87-2.42-11.58-5.08-17.08-8l1.09-3.69q8.27,4.32,17.09,7.95"/><path class="cls-14" d="M1018.28,316.39l-1.09,3.69q-4-2.08-7.84-4.32l1.1-3.69q3.84,2.24,7.83,4.32"/></g></g></g><polygon class="cls-15" points="1017.88 60.72 1022.42 61.28 1032.75 100.29 1028.2 99.72 1017.88 60.72"/><g class="cls-2"><g class="cls-16"><g class="cls-2"><path class="cls-10" d="M1028.2,99.72l4.55.57c-1,1.59-2,3.22-3,4.87l-4.55-.56c1-1.66,2-3.28,3-4.88"/><path class="cls-11" d="M1025.25,104.6l4.55.56q-1.68,2.88-3.33,5.87l-4.54-.56q1.64-3,3.32-5.87"/><path class="cls-17" d="M1021.93,110.47l4.54.56c-1.06,1.94-2.1,3.92-3.14,5.94l-4.54-.57c1-2,2.07-4,3.14-5.93"/><path class="cls-18" d="M1018.79,116.4l4.54.57c-1,2-2,4-3,6l-4.55-.56c1-2,2-4.06,3-6"/><path class="cls-19" d="M1015.81,122.44l4.55.56c-1,2-1.9,4-2.83,6.11l-4.55-.56q1.39-3.11,2.83-6.11"/><path class="cls-20" d="M1013,128.55l4.55.56q-1.37,3.07-2.69,6.24l-4.55-.57q1.32-3.17,2.69-6.23"/><path class="cls-21" d="M1010.29,134.78l4.55.57c-.88,2.09-1.73,4.2-2.57,6.35l-4.55-.57c.84-2.15,1.7-4.26,2.57-6.35"/><path class="cls-22" d="M1007.72,141.13l4.55.57c-.83,2.11-1.63,4.25-2.43,6.42l-4.54-.56q1.19-3.27,2.42-6.43"/><path class="cls-23" d="M1005.3,147.56l4.54.56q-1.15,3.18-2.27,6.44L1003,154q1.11-3.26,2.28-6.43"/><path class="cls-24" d="M1003,154l4.55.57-.88,2.62q-.63,1.89-1.23,3.81l-4.55-.57c.4-1.28.82-2.54,1.23-3.8.29-.88.59-1.76.88-2.63"/><path class="cls-25" d="M1000.91,160.42l4.55.57q-1,3.13-2,6.34l-4.55-.57q.94-3.21,1.95-6.34"/><path class="cls-26" d="M999,166.76l4.55.57q-.9,3-1.74,6l-4.55-.56c.56-2,1.15-4.06,1.74-6.06"/><path class="cls-27" d="M997.22,172.82l4.55.56q-.79,2.85-1.54,5.74l-4.55-.57c.5-1.92,1-3.84,1.54-5.73"/><path class="cls-28" d="M995.68,178.55l4.55.57q-.71,2.67-1.36,5.38l-4.55-.57c.44-1.8.9-3.6,1.36-5.38"/><path class="cls-29" d="M994.32,183.93l4.55.57q-.61,2.52-1.2,5.08l-4.54-.57q.57-2.55,1.19-5.08"/><path class="cls-30" d="M993.13,189l4.54.57c-.36,1.59-.72,3.2-1.07,4.81l-4.54-.56c.34-1.62.7-3.22,1.07-4.82"/><path class="cls-31" d="M992.06,193.83l4.54.56c-.32,1.53-.64,3.06-1,4.6l-4.55-.57q.46-2.31,1-4.59"/><path class="cls-32" d="M991.1,198.42l4.55.57c-.3,1.48-.59,3-.88,4.46l-4.54-.56q.42-2.25.87-4.47"/><path class="cls-33" d="M990.23,202.89l4.54.56c-.27,1.44-.53,2.89-.79,4.34l-4.55-.57c.26-1.45.52-2.9.8-4.33"/><path class="cls-34" d="M989.43,207.22l4.55.57c-.05.29-.1.59-.16.88-.21,1.2-.41,2.39-.61,3.59l-4.54-.57c.19-1.2.4-2.39.61-3.59l.15-.88"/><path class="cls-35" d="M988.67,211.69l4.54.57c-.24,1.49-.48,3-.71,4.49l-4.55-.57c.23-1.5.47-3,.72-4.49"/><path class="cls-36" d="M988,216.18l4.55.57c-.23,1.49-.45,3-.67,4.47l-4.54-.56c.21-1.49.43-3,.66-4.48"/><path class="cls-37" d="M987.29,220.66l4.54.56c-.23,1.63-.45,3.25-.66,4.87l-4.54-.57q.32-2.43.66-4.86"/><path class="cls-38" d="M986.63,225.52l4.54.57q-.36,2.83-.69,5.65l-4.54-.56c.21-1.89.44-3.77.69-5.66"/><path class="cls-39" d="M985.94,231.18l4.54.56c-.21,1.89-.41,3.76-.6,5.64l-4.55-.57q.28-2.81.61-5.63"/><path class="cls-40" d="M985.33,236.81l4.55.57q-.5,4.92-.85,9.81l-4.55-.57c.24-3.25.53-6.52.85-9.81"/><path class="cls-41" d="M984.48,246.62l4.55.57c-.57,7.62-.9,15.16-1,22.58l-4.55-.56q.16-11.13,1-22.59"/><path class="cls-40" d="M983.48,269.21l4.55.56c0,2.52,0,5,0,7.5l-4.55-.57q0-3.72,0-7.49"/><path class="cls-39" d="M983.46,276.7l4.55.57c0,2.46.06,4.9.12,7.33l-4.55-.57q-.09-3.64-.12-7.33"/><path class="cls-38" d="M983.58,284l4.55.57c0,1.89.12,3.76.2,5.63l-4.54-.57c-.09-1.87-.15-3.74-.21-5.63"/><path class="cls-37" d="M983.79,289.66l4.54.57c.09,1.86.18,3.72.29,5.56l-4.54-.56c-.11-1.85-.21-3.7-.29-5.57"/><path class="cls-36" d="M984.08,295.23l4.54.56c.12,1.89.25,3.76.39,5.63l-4.55-.57c-.14-1.86-.27-3.74-.38-5.62"/><path class="cls-35" d="M984.46,300.85l4.55.57q.22,2.85.49,5.69l-4.54-.57c-.18-1.89-.35-3.78-.5-5.69"/><path class="cls-34" d="M985,306.54l4.54.57q.27,2.83.59,5.63l-4.54-.57c-.22-1.86-.41-3.74-.59-5.63"/><path class="cls-33" d="M985.55,312.17l4.54.57q.39,3.31.82,6.57l-4.54-.57q-.45-3.25-.82-6.57"/><path class="cls-32" d="M986.37,318.74l4.54.57q.45,3.26,1,6.45l-4.55-.57q-.51-3.19-1-6.45"/><path class="cls-31" d="M987.32,325.19l4.55.57q.6,3.76,1.29,7.45l-4.55-.57c-.46-2.45-.89-4.94-1.29-7.45"/><path class="cls-30" d="M988.61,332.64l4.55.57c.47,2.51,1,5,1.5,7.43l-4.55-.57q-.79-3.66-1.5-7.43"/><path class="cls-29" d="M990.11,340.07l4.55.57q.84,3.89,1.79,7.65l-4.54-.57c-.64-2.51-1.23-5.06-1.8-7.65"/><path class="cls-28" d="M991.91,347.72l4.54.57c.63,2.48,1.29,4.93,2,7.33l-4.54-.57q-1-3.6-2-7.33"/><path class="cls-27" d="M993.89,355.05l4.54.57q1,3.58,2.16,7l-4.55-.57q-1.12-3.45-2.15-7"/><path class="cls-26" d="M996,362.08l4.55.57c.71,2.17,1.44,4.29,2.21,6.38l-4.55-.57q-1.14-3.12-2.21-6.38"/><path class="cls-25" d="M998.25,368.46l4.55.57q1.13,3.08,2.33,6l-4.55-.57q-1.2-3-2.33-6"/><path class="cls-24" d="M1000.58,374.49l4.55.57c.77,1.89,1.57,3.75,2.39,5.56l-4.55-.56c-.82-1.82-1.62-3.67-2.39-5.57"/><path class="cls-23" d="M1003,380.06l4.55.56q1.2,2.67,2.48,5.22l-4.55-.57c-.85-1.7-1.67-3.44-2.48-5.21"/><path class="cls-22" d="M1005.45,385.27l4.55.57c.83,1.66,1.68,3.27,2.55,4.85l-4.55-.56q-1.31-2.37-2.55-4.86"/><path class="cls-21" d="M1008,390.13l4.55.56q1.29,2.35,2.64,4.57l-4.54-.57q-1.36-2.22-2.65-4.56"/><path class="cls-20" d="M1010.65,394.69l4.54.57c.9,1.47,1.81,2.89,2.74,4.28l-4.55-.56q-1.39-2.09-2.73-4.29"/><path class="cls-19" d="M1013.38,399l4.55.56c.93,1.39,1.89,2.74,2.86,4l-4.55-.57c-1-1.31-1.92-2.65-2.86-4"/><path class="cls-18" d="M1016.24,403l4.55.57q1.46,2,3,3.79l-4.54-.56c-1-1.23-2-2.49-3-3.8"/><path class="cls-17" d="M1019.22,406.82l4.54.56q1.54,1.88,3.15,3.6l-4.55-.56q-1.59-1.74-3.14-3.6"/><path class="cls-11" d="M1022.36,410.42l4.55.56q1.62,1.75,3.29,3.35l-4.54-.56q-1.68-1.61-3.3-3.35"/><path class="cls-10" d="M1025.66,413.77l4.54.56q1.75,1.68,3.57,3.2l-4.55-.57q-1.82-1.51-3.56-3.19"/><path class="cls-9" d="M1029.22,417l4.55.57c1.22,1,2.47,2,3.74,2.89l-4.55-.56c-1.27-.91-2.51-1.88-3.74-2.9"/><path class="cls-8" d="M1033,419.86l4.55.56q2.07,1.5,4.23,2.78l-4.55-.57c-1.43-.85-2.84-1.78-4.23-2.77"/><path class="cls-7" d="M1037.19,422.63l4.55.57q2.27,1.35,4.62,2.46l-4.55-.57c-1.57-.74-3.1-1.56-4.62-2.46"/><path class="cls-12" d="M1041.81,425.09l4.55.57a52,52,0,0,0,5.2,2.12l-4.55-.57a50.61,50.61,0,0,1-5.2-2.12"/><path class="cls-13" d="M1047,427.21l4.55.57.31.1a46,46,0,0,0,5.85,1.57l-4.55-.56a49.63,49.63,0,0,1-5.85-1.57l-.31-.11"/><path class="cls-14" d="M1053.17,428.89l4.55.56c1.13.23,2.27.41,3.4.56l-4.55-.57c-1.13-.14-2.27-.33-3.4-.55"/></g></g></g><g class="cls-2"><g class="cls-42"><g class="cls-2"><path class="cls-4" d="M1104.14,48.11l4.54.57a48.75,48.75,0,0,0-16.87.91c-8.94,2-17.83,6.46-26.41,13l-4.55-.57c8.59-6.58,17.47-11,26.42-13a48.73,48.73,0,0,1,16.87-.91"/><path class="cls-14" d="M1060.85,62.07l4.55.57a101.51,101.51,0,0,0-8,6.84l-4.55-.57a101.51,101.51,0,0,1,8-6.84"/><path class="cls-13" d="M1052.83,68.91l4.55.57c-.88.82-1.75,1.67-2.62,2.55l-4.55-.57c.87-.87,1.75-1.72,2.62-2.55"/></g></g></g><g class="cls-2"><g class="cls-43"><g class="cls-2"><path class="cls-13" d="M1119.87,446l4.55.57c-1.69,1.75-3.39,3.44-5.11,5.05l-4.55-.56q2.58-2.43,5.11-5.06"/><path class="cls-14" d="M1114.76,451.05l4.55.56a131.28,131.28,0,0,1-10.09,8.62l-4.55-.57a129.24,129.24,0,0,0,10.09-8.61"/><path class="cls-4" d="M1104.67,459.66l4.55.57c-10.45,8-21.25,13.49-32.14,16.11a60.93,60.93,0,0,1-21.94,1.34l-4.54-.56a61.12,61.12,0,0,0,21.93-1.35c10.89-2.61,21.69-8.1,32.14-16.11"/></g></g></g><path class="cls-44" d="M1017.87,60.72l10.33,39c-10,16-18.87,35.21-26.06,56.9a363.3,363.3,0,0,0-12.86,51.48c-18.24,104.15,7.75,202.28,58,219.22a47.78,47.78,0,0,0,26.77,1.06c12.14-2.93,24.16-10.31,35.46-21.4l10.32,39c-15,15.56-31.08,25.88-47.34,29.78a59.51,59.51,0,0,1-33.46-1.3c-62.87-21.17-95.34-143.87-72.55-274a453.22,453.22,0,0,1,16.08-64.37C992.22,107,1004.27,81.57,1017.87,60.72Z"/><polygon class="cls-15" points="1109.55 406.98 1114.1 407.55 1124.42 446.56 1119.87 445.99 1109.55 406.98"/><path class="cls-44" d="M1121.6,3.09c62.85,21.17,95.33,143.85,72.54,274a454.79,454.79,0,0,1-15.58,62.81c-9.87,30.26-22.4,56.72-36.58,78.17l-10.32-39c10.51-16.58,19.83-36.66,27.26-59.42a363.29,363.29,0,0,0,12.46-50.25c18.23-104.12-7.76-202.27-58-219.21a47.54,47.54,0,0,0-26.07-1.2c-12.7,2.87-25.28,10.62-37.06,22.44l-10.32-39c15.52-16.37,32.22-27.09,49.11-30.91A59.64,59.64,0,0,1,1121.6,3.09Z"/><g class="cls-2"><g class="cls-45"><g class="cls-2"><path class="cls-12" d="M1113.6,1l9,2.14c2.77,1.1,8.31,2.25,10.44,3.26l-4.55-.57c-2.12-1-7.86-3-10.06-3.73"/><path class="cls-7" d="M1128.48,5.87l4.55.57c2,.92,3.88,2,5.77,3.07l-4.55-.57c-1.89-1.12-3.81-2.15-5.77-3.07"/><path class="cls-8" d="M1134.25,8.94l4.55.57c1.79,1.07,3.56,2.23,5.29,3.47l-4.55-.57q-2.6-1.86-5.29-3.47"/><path class="cls-9" d="M1139.54,12.41l4.55.57c1.58,1.14,3.14,2.34,4.67,3.62l-4.55-.57c-1.53-1.27-3.08-2.48-4.67-3.62"/><path class="cls-10" d="M1144.21,16l4.55.57q2.27,1.89,4.46,4l-4.55-.57q-2.19-2.09-4.46-4"/><path class="cls-11" d="M1148.67,20l4.55.57c1.39,1.34,2.76,2.73,4.11,4.19l-4.55-.57c-1.34-1.45-2.72-2.85-4.11-4.19"/><path class="cls-17" d="M1152.78,24.21l4.55.57q2,2.16,3.93,4.5l-4.54-.57q-1.93-2.34-3.94-4.5"/><path class="cls-18" d="M1156.72,28.71l4.54.57c1.27,1.52,2.51,3.11,3.72,4.74l-4.55-.57q-1.82-2.45-3.71-4.74"/><path class="cls-19" d="M1160.43,33.45,1165,34q1.83,2.44,3.57,5.06l-4.54-.57c-1.17-1.74-2.36-3.42-3.58-5.06"/><path class="cls-20" d="M1164,38.51l4.54.57q1.76,2.6,3.42,5.35l-4.54-.57c-1.12-1.83-2.26-3.62-3.42-5.35"/><path class="cls-21" d="M1167.43,43.86l4.54.57q1.69,2.77,3.31,5.7l-4.55-.56c-1.08-2-2.18-3.86-3.3-5.71"/><path class="cls-22" d="M1170.73,49.57l4.55.56q1.63,3,3.19,6.07l-4.55-.56q-1.56-3.12-3.19-6.07"/><path class="cls-23" d="M1173.92,55.64l4.55.56q1.59,3.19,3.09,6.52l-4.54-.57q-1.51-3.33-3.1-6.51"/><path class="cls-24" d="M1177,62.15l4.54.57q1.55,3.41,3,7l-4.55-.56c-1-2.37-2-4.69-3-7"/><path class="cls-25" d="M1180,69.11l4.55.56c1,2.46,2,5,2.92,7.54l-4.55-.56q-1.41-3.86-2.92-7.54"/><path class="cls-26" d="M1182.92,76.65l4.55.56q1.42,3.92,2.76,8l-4.55-.57q-1.34-4.07-2.76-8"/><path class="cls-27" d="M1185.68,84.62l4.55.57q1.39,4.31,2.69,8.78l-4.55-.57q-1.27-4.47-2.69-8.78"/><path class="cls-28" d="M1188.37,93.4l4.55.57q1.3,4.5,2.47,9.17l-4.54-.57c-.79-3.11-1.61-6.16-2.48-9.17"/><path class="cls-29" d="M1190.85,102.57l4.54.57c.8,3.13,1.54,6.33,2.25,9.57l-4.55-.57q-1-4.86-2.24-9.57"/><path class="cls-30" d="M1193.09,112.14l4.55.57c.67,3.05,1.29,6.15,1.88,9.29l-4.55-.57c-.59-3.14-1.21-6.24-1.88-9.29"/><path class="cls-31" d="M1195,121.43l4.55.57c.58,3.06,1.11,6.16,1.61,9.31l-4.54-.57c-.5-3.14-1-6.25-1.62-9.31"/><path class="cls-32" d="M1196.59,130.74l4.54.57c.43,2.66.82,5.34,1.19,8.06l-4.55-.57c-.36-2.71-.76-5.4-1.18-8.06"/><path class="cls-33" d="M1197.77,138.8l4.55.57q.56,4.06,1,8.21l-4.55-.57c-.31-2.76-.66-5.5-1-8.21"/><path class="cls-34" d="M1198.8,147l4.55.57q.39,3.49.74,7l-4.55-.57c-.23-2.37-.47-4.71-.74-7.05"/><path class="cls-35" d="M1199.54,154.06l4.55.57q.33,3.52.61,7.11l-4.55-.57c-.18-2.38-.39-4.75-.61-7.11"/><path class="cls-36" d="M1200.15,161.17l4.55.57q.27,3.49.48,7l-4.54-.57q-.23-3.54-.49-7"/><path class="cls-37" d="M1200.64,168.2l4.54.57c.14,2.31.27,4.62.37,7l-4.55-.57q-.15-3.49-.36-7"/><path class="cls-38" d="M1201,175.16l4.55.57q.15,3.5.25,7l-4.55-.57c-.06-2.35-.15-4.7-.25-7"/><path class="cls-39" d="M1201.25,182.19l4.55.57c.08,3,.14,6.09.16,9.16l-4.55-.56c0-3.08-.07-6.13-.16-9.17"/><path class="cls-40" d="M1201.41,191.36l4.55.56c0,3.11,0,6.23,0,9.38l-4.54-.57c0-3.14,0-6.27,0-9.37"/><path class="cls-41" d="M1201.38,200.73l4.54.57q-.18,13.9-1.24,28.22l-4.55-.57q1.06-14.3,1.25-28.22"/><path class="cls-40" d="M1200.13,229l4.55.57q-.45,6.1-1.07,12.26l-4.54-.56q.6-6.16,1.06-12.27"/><path class="cls-39" d="M1199.07,241.22l4.54.56c-.23,2.35-.48,4.69-.75,7.05l-4.55-.57q.4-3.52.76-7"/><path class="cls-38" d="M1198.31,248.26l4.55.57q-.4,3.53-.86,7.07l-4.55-.57q.45-3.54.86-7.07"/><path class="cls-37" d="M1197.45,255.33l4.55.57q-.39,3-.83,6.07l-4.55-.56q.44-3,.83-6.08"/><path class="cls-36" d="M1196.62,261.41l4.55.56c-.26,1.87-.54,3.73-.83,5.6l-4.54-.56c.28-1.87.56-3.74.82-5.6"/><path class="cls-35" d="M1195.8,267l4.54.56q-.42,2.81-.89,5.61l-4.55-.56q.46-2.82.9-5.61"/><path class="cls-34" d="M1194.9,272.62l4.55.56c-.25,1.5-.5,3-.76,4.48-.07.37-.13.73-.2,1.09l-4.54-.56c.06-.37.12-.73.19-1.09.26-1.5.51-3,.76-4.48"/><path class="cls-33" d="M1194,278.19l4.54.56c-.32,1.84-.66,3.66-1,5.48l-4.55-.57c.35-1.82.68-3.64,1-5.47"/><path class="cls-32" d="M1192.94,283.66l4.55.57q-.52,2.77-1.08,5.54l-4.55-.57c.37-1.84.73-3.68,1.08-5.54"/><path class="cls-31" d="M1191.86,289.2l4.55.57q-.59,2.89-1.2,5.75l-4.55-.56q.61-2.86,1.2-5.76"/><path class="cls-30" d="M1190.66,295l4.55.56c-.44,2-.88,4-1.34,6l-4.55-.57c.46-2,.91-4,1.34-6"/><path class="cls-29" d="M1189.32,301l4.55.57q-.72,3.18-1.49,6.33l-4.55-.57c.51-2.09,1-4.21,1.49-6.33"/><path class="cls-28" d="M1187.83,307.31l4.55.57q-.83,3.39-1.7,6.73l-4.55-.57c.58-2.22,1.15-4.47,1.7-6.73"/><path class="cls-27" d="M1186.13,314l4.55.57q-.93,3.6-1.92,7.14l-4.54-.57q1-3.54,1.91-7.14"/><path class="cls-26" d="M1184.22,321.18l4.54.57c-.7,2.54-1.43,5.06-2.17,7.56l-4.54-.57c.74-2.5,1.46-5,2.17-7.56"/><path class="cls-25" d="M1182.05,328.74l4.54.57q-1.18,4-2.43,7.91l-4.55-.56q1.25-3.93,2.44-7.92"/><path class="cls-24" d="M1179.61,336.66l4.55.56-1.05,3.26c-.55,1.67-1.1,3.34-1.66,5l-4.55-.57c.56-1.65,1.12-3.31,1.66-5,.36-1.08.71-2.16,1-3.25"/><path class="cls-23" d="M1176.9,344.9l4.55.57c-.93,2.71-1.87,5.39-2.84,8l-4.55-.57c1-2.65,1.91-5.33,2.84-8"/><path class="cls-22" d="M1174.06,352.94l4.55.57q-1.48,4-3,8L1171,361q1.55-3.94,3-8"/><path class="cls-21" d="M1171,361l4.54.57q-1.56,4-3.2,7.91l-4.54-.56q1.62-3.9,3.2-7.92"/><path class="cls-20" d="M1167.84,368.87l4.54.56c-1.1,2.64-2.22,5.23-3.36,7.79l-4.55-.57c1.14-2.56,2.27-5.15,3.37-7.78"/><path class="cls-19" d="M1164.47,376.65l4.55.57c-1.16,2.58-2.33,5.13-3.53,7.64l-4.55-.57c1.2-2.51,2.38-5.05,3.53-7.64"/><path class="cls-18" d="M1160.94,384.29l4.55.57q-1.83,3.83-3.72,7.52l-4.55-.57q1.89-3.69,3.72-7.52"/><path class="cls-17" d="M1157.22,391.81l4.55.57c-1.29,2.52-2.59,5-3.92,7.42l-4.55-.56q2-3.64,3.92-7.43"/><path class="cls-11" d="M1153.3,399.24l4.55.56q-2.05,3.75-4.16,7.34l-4.55-.56c1.41-2.4,2.79-4.85,4.16-7.34"/><path class="cls-10" d="M1149.14,406.58l4.55.56q-2.19,3.74-4.44,7.29l-4.55-.56q2.25-3.57,4.44-7.29"/><path class="cls-9" d="M1144.7,413.87l4.55.56q-1.35,2.15-2.72,4.21l-4.55-.56q1.37-2.08,2.72-4.21"/></g></g></g><path class="cls-46" d="M1097.93,193.53a48,48,0,1,0,30.2,60.86A47.88,47.88,0,0,0,1097.93,193.53Z"/><polygon class="cls-47" points="1157.43 163.27 1156.33 166.96 1124.84 187.87 1125.94 184.18 1157.43 163.27"/><g class="cls-2"><g class="cls-48"><g class="cls-2"><path class="cls-13" d="M1125.94,184.17l-1.1,3.7q-5.29-2.75-10.93-5.06l1.1-3.7c3.75,1.54,7.4,3.24,10.93,5.06"/><path class="cls-12" d="M1115,179.11l-1.1,3.7c-3.48-1.43-7.06-2.73-10.71-3.89l1.09-3.69q5.49,1.72,10.72,3.88"/><path class="cls-7" d="M1104.29,175.23l-1.09,3.69-1.74-.53q-4.77-1.45-9.67-2.57l1.09-3.7q4.92,1.13,9.68,2.57c.58.18,1.16.35,1.73.54"/><path class="cls-8" d="M1092.88,172.12l-1.09,3.7c-3.91-.89-7.89-1.62-11.91-2.16L1081,170c4,.55,8,1.28,11.91,2.16"/><path class="cls-9" d="M1081,170l-1.09,3.7q-2.12-.28-4.23-.51c-3.31-.35-6.56-.56-9.75-.66l1.09-3.69q4.8.13,9.75.65,2.13.23,4.23.51"/><path class="cls-10" d="M1067,168.8l-1.09,3.69a116.6,116.6,0,0,0-19.12,1l1.09-3.7a116.74,116.74,0,0,1,19.12-1"/><path class="cls-11" d="M1047.87,169.76l-1.09,3.7a88.46,88.46,0,0,0-30.35,9.51l1.1-3.7a88.62,88.62,0,0,1,30.34-9.51"/><path class="cls-10" d="M1017.53,179.27l-1.1,3.7a62.62,62.62,0,0,0-12.79,9.07l1.1-3.7a63.4,63.4,0,0,1,12.79-9.07"/><path class="cls-9" d="M1004.74,188.34l-1.1,3.7a51.69,51.69,0,0,0-6.76,7.57l1.09-3.7a52.29,52.29,0,0,1,6.77-7.57"/><path class="cls-8" d="M998,195.91l-1.09,3.7a45.59,45.59,0,0,0-4.36,7.27l1.09-3.7a47.28,47.28,0,0,1,4.36-7.27"/><path class="cls-7" d="M993.61,203.18l-1.09,3.7A44.2,44.2,0,0,0,990,213.5l1.1-3.7a44.16,44.16,0,0,1,2.55-6.62"/></g></g></g><g class="cls-2"><g class="cls-49"><g class="cls-2"><path class="cls-4" d="M942.53,222.55l-1.1,3.69a69.35,69.35,0,0,1,2.46-26.43l1.09-3.7a69.6,69.6,0,0,0-2.45,26.44"/></g></g></g><path class="cls-5" d="M942.53,222.55c-5.31-56.12,53.35-95.06,131-87a209.26,209.26,0,0,1,38.72,7.84,204.47,204.47,0,0,1,45.17,19.85l-31.49,20.9a137,137,0,0,0-23.38-9.48,138.56,138.56,0,0,0-25.82-5.24c-51.76-5.39-90.86,20.57-87.32,58a57.51,57.51,0,0,0,5.29,18.85,78,78,0,0,0,11.42,17.44l-31.49,20.91a122.2,122.2,0,0,1-24.15-33.8A86.48,86.48,0,0,1,942.53,222.55Z"/><polygon class="cls-47" points="1006.13 263.72 1005.03 267.41 973.54 288.32 974.64 284.63 1006.13 263.72"/><g class="cls-2"><g class="cls-50"><g class="cls-2"><path class="cls-4" d="M974.64,284.63l-1.1,3.69a121.87,121.87,0,0,1-24.14-33.8,86.12,86.12,0,0,1-8-28.28l1.1-3.69a86.48,86.48,0,0,0,8,28.28,122.2,122.2,0,0,0,24.15,33.8"/></g></g></g><path class="cls-46" d="M1098.42,192.09A48,48,0,1,0,1128.61,253,47.95,47.95,0,0,0,1098.42,192.09Z"/><path class="cls-51" d="M1098.42,192.09A48,48,0,1,0,1128.61,253,47.95,47.95,0,0,0,1098.42,192.09Z"/><g class="cls-52"><circle class="cls-53" cx="1077.19" cy="213.43" r="11.79"/></g><circle class="cls-53" cx="1072.86" cy="202.72" r="4.27"/><g class="cls-52"><circle class="cls-53" cx="1089.03" cy="220.32" r="9.04"/></g><path class="cls-53" d="M340.54,154.81c-8.83,0-16-3.16-16-13.47V7.52h11.36v130c0,4.84,2.1,7.16,8,7.16h84.37v10.1Z"/><path class="cls-53" d="M439.61,23.92V7.52H451.4v16.4ZM440,43.29H451V154.81H440Z"/><path class="cls-53" d="M474.12,61c0-10.73,3.37-17.67,15.14-17.67h41c23.14,0,32.19,12.41,32.19,34.29v77.23H551.55V77.58c0-13.47-4.42-24.41-21.25-24.41H491.79c-4.21,0-6.73.85-6.73,8v93.64H474.12Z"/><path class="cls-53" d="M643.9,43.29c18.52,0,26.72,10.31,26.72,28v68.81c0,9.89-2.73,14.73-16.21,14.73H611.5c-22.1,0-30.1-10.52-30.1-33.67s8.22-33,30.1-33h48.17V69.38c0-8.42-4-16.21-15.77-16.21H589.82V43.29ZM608.55,98c-13.47,0-15.79,9.68-15.79,23.15s2.32,23.77,15.79,23.77h45.86c3.79,0,5.26-2.52,5.26-5V98Z"/><path class="cls-53" d="M693.33,81.58c0-25.25,12-38.29,37.24-38.29h7.57v9.88h-7.57c-18.94,0-26.3,9.9-26.3,30.93v70.71H693.33Z"/><path class="cls-53" d="M851.75,98.83c0,40-15.15,57.24-55.13,57.24S741.5,138.81,741.5,98.83,756.64,42,796.62,42,851.75,58.86,851.75,98.83Zm-55.13,47.35c31.57,0,43.77-11.57,43.77-47.35s-12.2-46.92-43.77-46.92-43.76,11.16-43.76,46.92S765.07,146.18,796.62,146.18Z"/><path class="cls-46" d="M74.23,343C15.51,343,0,301.62,0,252.47S14.74,162,76.82,162h67.5v12.41H76.82c-46.55,0-61.81,29-61.81,78.11s14.21,78.11,59.48,78.11h72.68V343Z"/><path class="cls-46" d="M292,274.2c0,49.14-18.63,70.35-67.77,70.35s-67.77-21.21-67.77-70.35,18.62-69.84,67.77-69.84S292,225.06,292,274.2Zm-67.77,58.2c38.8,0,53.79-14.23,53.79-58.2s-15-57.68-53.79-57.68-53.8,13.71-53.8,57.68S185.45,332.4,224.24,332.4Z"/><path class="cls-46" d="M315.26,227.64c0-13.19,4.15-21.72,18.63-21.72h50.43c28.46,0,39.58,15.26,39.58,42.16V343H410.45V248.08c0-16.55-5.43-30-26.13-30H337c-5.18,0-8.29,1-8.29,9.82V343H315.26Z"/><path class="cls-46" d="M451.82,227.64c0-13.19,4.14-21.72,18.62-21.72h50.43c28.46,0,39.58,15.26,39.58,42.16V343H547V248.08c0-16.55-5.43-30-26.13-30H473.55c-5.18,0-8.28,1-8.28,9.82V343H451.82Z"/><path class="cls-46" d="M631.05,343c-37.76,0-47.33-28.45-47.33-67.51,0-46.3,12.42-71.13,58.71-71.13,33.89,0,59,13.45,59,52.25,0,15.78-4.13,22.5-19.65,22.5H597.68c0,24.06,4.14,51.74,33.37,51.74H698.3V343Zm50.7-76c4.39,0,5.69-3.62,5.69-6.21v-1.81c0-33.62-16.56-42.42-44.75-42.42-30.52,0-45,11.12-45,50.44Z"/><path class="cls-46" d="M777.94,343C731.39,343,720,318.43,720,274.46c0-41.38,11.38-68.54,57.93-68.54h46v12.16h-46c-36.2,0-44,20.17-44,56.38,0,38.8,7.77,56.39,44,56.39h49.15V343Z"/><path class="cls-46" d="M895.09,343c-37.23,0-37.23-21.72-37.23-43.45V218.08H836.39V205.92h21.47V162h13.45v44H908v12.16H871.31v85.35c0,21.47,5.68,27.42,26.89,27.42H908V343Z"/><path class="cls-54" d="M908.42,432.71c0-33.43-11.27-44.91-42.94-45.18v0H54.24v0c-31.28.34-42.72,11.84-42.72,45.18S23,477.56,54.24,477.9v0H865.48v0C897.15,477.64,908.42,466.16,908.42,432.71Z"/><path class="cls-55" d="M56.8,470.06l-2.49,0c-24.14-.27-34.91-5.72-34.91-37.32s10.77-37,34.92-37.3l3,0H862.8l2.62,0c30.24.26,35.12,11.21,35.12,37.3s-4.88,37.06-35.13,37.32l-3.22,0Z"/><path class="cls-53" d="M80.54,413.54,65.75,450.28H58.86L44.08,413.54H50.2a2.61,2.61,0,0,1,1.61.47,2.83,2.83,0,0,1,.93,1.2l7.95,21.17c.3.8.6,1.66.9,2.6s.57,1.92.82,2.95c.22-1,.46-2,.72-2.95s.55-1.8.85-2.6l7.9-21.17a2.84,2.84,0,0,1,.9-1.15,2.47,2.47,0,0,1,1.61-.52Z"/><path class="cls-53" d="M108.8,450.28h-7.64V413.54h7.64Z"/><path class="cls-53" d="M163,450.28h-6.86a3,3,0,0,1-2.79-1.46l-7-11.27a2.46,2.46,0,0,0-2.49-1.27h-2.58v14h-7.6V413.54h11.55a23.35,23.35,0,0,1,6.58.8,12.74,12.74,0,0,1,4.49,2.21,8.6,8.6,0,0,1,2.55,3.38,11,11,0,0,1,.82,4.32,11.54,11.54,0,0,1-.52,3.46,10.15,10.15,0,0,1-1.51,3,10.78,10.78,0,0,1-2.43,2.38,12.58,12.58,0,0,1-3.29,1.68,7.17,7.17,0,0,1,1.36,1,6.1,6.1,0,0,1,1.14,1.36Zm-17.8-19.34a9.75,9.75,0,0,0,3.19-.47,5.85,5.85,0,0,0,2.2-1.29,5,5,0,0,0,1.27-1.94,7,7,0,0,0,.41-2.43,5,5,0,0,0-1.74-4.05,8.1,8.1,0,0,0-5.28-1.45h-4v11.63Z"/><path class="cls-53" d="M209,419.67H198.25v30.61h-7.63V419.67H179.89v-6.13H209Z"/><path class="cls-53" d="M245.83,444.21a8.54,8.54,0,0,0,3.32-.62,6.83,6.83,0,0,0,2.48-1.76,7.74,7.74,0,0,0,1.55-2.76,11.82,11.82,0,0,0,.53-3.65V413.54h7.59v21.88a16.92,16.92,0,0,1-1.07,6.14,13.68,13.68,0,0,1-7.94,8,18.9,18.9,0,0,1-12.93,0,13.89,13.89,0,0,1-4.87-3.17,13.74,13.74,0,0,1-3.08-4.82,16.92,16.92,0,0,1-1.08-6.14V413.54h7.6v21.88a11.82,11.82,0,0,0,.53,3.65,7.74,7.74,0,0,0,1.55,2.76,6.83,6.83,0,0,0,2.48,1.76A8.57,8.57,0,0,0,245.83,444.21Z"/><path class="cls-53" d="M317,450.28h-5.9a2.63,2.63,0,0,1-1.61-.46,2.9,2.9,0,0,1-.92-1.21l-2.48-7H291.44l-2.48,7a2.83,2.83,0,0,1-.89,1.15,2.4,2.4,0,0,1-1.59.52h-6l14.35-36.74h7.78Zm-12.76-13.95-4-11.24c-.23-.59-.48-1.29-.74-2.08s-.51-1.65-.75-2.58c-.24.94-.49,1.82-.75,2.62s-.51,1.5-.74,2.09l-4,11.19Z"/><path class="cls-53" d="M359.41,444.11v6.17h-21.8V413.54h7.59v30.57Z"/><path class="cls-53" d="M504.39,419.49v10.15h13.22v6H504.39v14.66h-7.65V413.54h23.4v5.95Z"/><path class="cls-53" d="M571.75,450.28h-5.9a2.61,2.61,0,0,1-1.61-.46,2.9,2.9,0,0,1-.92-1.21l-2.48-7H546.2l-2.48,7a2.83,2.83,0,0,1-.89,1.15,2.42,2.42,0,0,1-1.6.52h-6l14.36-36.74h7.78ZM559,436.33l-4-11.24c-.24-.59-.48-1.29-.75-2.08s-.51-1.65-.74-2.58c-.24.94-.49,1.82-.75,2.62s-.51,1.5-.75,2.09l-3.95,11.19Z"/><path class="cls-53" d="M614.17,444.11v6.17H592.36V413.54H600v30.57Z"/><path class="cls-53" d="M657.83,444.11v6.17H636V413.54h7.6v30.57Z"/><path class="cls-53" d="M728.35,443.88a2.46,2.46,0,0,1,1.79.63,2.23,2.23,0,0,1,.64,1.67v4.1H705.31V448a4.21,4.21,0,0,1,.28-1.44,3.58,3.58,0,0,1,.93-1.4l10.89-10.92c.93-.92,1.75-1.82,2.46-2.67a18.1,18.1,0,0,0,1.77-2.5,11.08,11.08,0,0,0,1.07-2.5,10,10,0,0,0,.35-2.66,5,5,0,0,0-1.27-3.73,4.76,4.76,0,0,0-3.57-1.28,5.85,5.85,0,0,0-1.86.29,5.25,5.25,0,0,0-1.52.8,5,5,0,0,0-1.15,1.19,4.76,4.76,0,0,0-.71,1.49,2.9,2.9,0,0,1-1.23,1.69,3.49,3.49,0,0,1-2.19.18l-3.69-.65a13.88,13.88,0,0,1,1.51-4.71,11.14,11.14,0,0,1,2.79-3.37,11.47,11.47,0,0,1,3.82-2,15.77,15.77,0,0,1,4.64-.67,13.8,13.8,0,0,1,4.75.78,10.9,10.9,0,0,1,3.66,2.15,9.55,9.55,0,0,1,2.35,3.33,10.74,10.74,0,0,1,.84,4.3,11.56,11.56,0,0,1-.59,3.75,14.36,14.36,0,0,1-1.58,3.28,23.92,23.92,0,0,1-2.32,3c-.87,1-1.8,2-2.78,3l-7.8,8a22,22,0,0,1,2.56-.6,14.47,14.47,0,0,1,2.38-.21Z"/><path class="cls-53" d="M778.39,431.9a29.65,29.65,0,0,1-1,8.36,17.15,17.15,0,0,1-2.86,5.86,11.4,11.4,0,0,1-4.32,3.44,13.35,13.35,0,0,1-10.75,0,11.36,11.36,0,0,1-4.28-3.44,17.48,17.48,0,0,1-2.82-5.86,34.4,34.4,0,0,1,0-16.71,17.37,17.37,0,0,1,2.82-5.84,11.29,11.29,0,0,1,4.28-3.45,13.35,13.35,0,0,1,10.75,0,11.34,11.34,0,0,1,4.32,3.45,17,17,0,0,1,2.86,5.84A29.53,29.53,0,0,1,778.39,431.9Zm-7.22,0a31.67,31.67,0,0,0-.54-6.43,13,13,0,0,0-1.43-4,5.23,5.23,0,0,0-2-2.06,5.31,5.31,0,0,0-2.37-.58,5.13,5.13,0,0,0-2.34.58,5.22,5.22,0,0,0-2,2.06,13.35,13.35,0,0,0-1.41,4,39.45,39.45,0,0,0,0,12.89,13.45,13.45,0,0,0,1.41,4,5.19,5.19,0,0,0,2,2.05,5,5,0,0,0,2.34.58,4.93,4.93,0,0,0,4.41-2.63,13.15,13.15,0,0,0,1.43-4A31.85,31.85,0,0,0,771.17,431.9Z"/><path class="cls-53" d="M821.54,443.88a2.46,2.46,0,0,1,1.79.63,2.23,2.23,0,0,1,.64,1.67v4.1H798.5V448a4.21,4.21,0,0,1,.28-1.44,3.69,3.69,0,0,1,.93-1.4l10.89-10.92c.93-.92,1.75-1.82,2.46-2.67a18.1,18.1,0,0,0,1.77-2.5,11.08,11.08,0,0,0,1.07-2.5,10,10,0,0,0,.35-2.66,5,5,0,0,0-1.27-3.73,4.76,4.76,0,0,0-3.57-1.28,5.85,5.85,0,0,0-1.86.29,5.38,5.38,0,0,0-1.52.8,5.2,5.2,0,0,0-1.15,1.19,4.76,4.76,0,0,0-.71,1.49,2.9,2.9,0,0,1-1.23,1.69,3.49,3.49,0,0,1-2.19.18l-3.69-.65a13.88,13.88,0,0,1,1.52-4.71,11.11,11.11,0,0,1,2.78-3.37,11.42,11.42,0,0,1,3.83-2,15.65,15.65,0,0,1,4.63-.67,13.8,13.8,0,0,1,4.75.78,10.9,10.9,0,0,1,3.66,2.15,9.42,9.42,0,0,1,2.35,3.33,10.74,10.74,0,0,1,.84,4.3,11.84,11.84,0,0,1-.58,3.75,14.82,14.82,0,0,1-1.59,3.28,23.83,23.83,0,0,1-2.31,3c-.88,1-1.81,2-2.79,3l-7.8,8a22,22,0,0,1,2.56-.6,14.47,14.47,0,0,1,2.38-.21Z"/><path class="cls-53" d="M869.73,445.14v5.14H849.12v-5.14h7.29V425q0-.66,0-1.35c0-.45,0-.92.08-1.39l-4.81,4a2.38,2.38,0,0,1-1,.48,2.21,2.21,0,0,1-.92,0,2.14,2.14,0,0,1-.76-.31,2.21,2.21,0,0,1-.5-.44l-2.2-3,11.29-9.58h5.75v31.63Z"/><circle class="cls-53" cx="425.54" cy="431.32" r="9.41"/></g></svg>