<svg id="Layer_1" data-name="Layer 1" xmlns="http://www.w3.org/2000/svg" viewBox="0 0 125.31 76.24"><defs><style>.cls-1{fill:#fff;}</style></defs><path class="cls-1" d="M121.75,0H3.56A3.56,3.56,0,0,0,0,3.56V72.68a3.56,3.56,0,0,0,3.56,3.56H121.75a3.56,3.56,0,0,0,3.56-3.56V3.56A3.56,3.56,0,0,0,121.75,0Zm2,68a2,2,0,0,1-2,2H3.55a2,2,0,0,1-2-2V3.55a2,2,0,0,1,2-2H121.76a2,2,0,0,1,2,2Z"/><path class="cls-1" d="M100.78,59.28H24.16v-49h76.62ZM24.84,58.6h75.25V11H24.84Z"/><polygon class="cls-1" points="79.63 35.3 51.32 18.96 51.32 51.65 79.63 35.3"/></svg>