<svg xmlns="http://www.w3.org/2000/svg" xmlns:xlink="http://www.w3.org/1999/xlink" viewBox="0 0 513.81 218.93"><defs><style>.cls-1{fill:none;}.cls-2{isolation:isolate;}.cls-3{clip-path:url(#clip-path);}.cls-4{fill:#617c1f;}.cls-5{fill:#8bb02d;}.cls-6{clip-path:url(#clip-path-2);}.cls-7{fill:#6b8623;}.cls-8{fill:#6e8923;}.cls-9{fill:#718c24;}.cls-10{fill:#738f25;}.cls-11{fill:#769226;}.cls-12{fill:#698322;}.cls-13{fill:#668021;}.cls-14{fill:#637f20;}.cls-15{fill:#93b930;}.cls-16{clip-path:url(#clip-path-3);}.cls-17{fill:#789527;}.cls-18{fill:#7b9827;}.cls-19{fill:#7d9b28;}.cls-20{fill:#809e29;}.cls-21{fill:#80a12a;}.cls-22{fill:#81a42a;}.cls-23{fill:#84a72b;}.cls-24{fill:#86a92c;}.cls-25{fill:#88ac2c;}.cls-26{fill:#8aaf2d;}.cls-27{fill:#8db22e;}.cls-28{fill:#8fb52e;}.cls-29{fill:#91b72f;}.cls-30{fill:#93ba30;}.cls-31{fill:#96bd30;}.cls-32{fill:#98c031;}.cls-33{fill:#a6c64c;}.cls-34{fill:#acc958;}.cls-35{fill:#b0cb61;}.cls-36{fill:#b3cd68;}.cls-37{fill:#b6cf6e;}.cls-38{fill:#b9d174;}.cls-39{fill:#bcd27a;}.cls-40{fill:#bed47f;}.cls-41{fill:#c0d580;}.cls-42{clip-path:url(#clip-path-4);}.cls-43{clip-path:url(#clip-path-5);}.cls-44{fill:#698f23;}.cls-45{clip-path:url(#clip-path-6);}.cls-46{fill:#9bc331;}.cls-47{fill:#7a9727;}.cls-48{clip-path:url(#clip-path-7);}.cls-49{clip-path:url(#clip-path-8);}.cls-50{clip-path:url(#clip-path-9);}.cls-51{fill:url(#radial-gradient);}.cls-52{opacity:0.2;}.cls-53,.cls-54{fill:#fff;}.cls-54{font-size:31.69px;font-family:Lato-Regular, Lato;letter-spacing:0.31em;}.cls-55{letter-spacing:0.29em;}.cls-56{letter-spacing:0.29em;}.cls-57{letter-spacing:0.28em;}</style><clipPath id="clip-path"><path class="cls-1" d="M484.51,120.76l-.44,1.49a18.53,18.53,0,0,0,.66-7.1,23,23,0,0,0-2.23-7.77,31.18,31.18,0,0,0-4.07-6.31l.45-1.49a31.56,31.56,0,0,1,4.06,6.31,23.08,23.08,0,0,1,2.23,7.78A18.48,18.48,0,0,1,484.51,120.76Z"/></clipPath><clipPath id="clip-path-2"><path class="cls-1" d="M503,126.27l-.44,1.48c-4.94,16.63-25.66,27.06-51.7,24.35a83.73,83.73,0,0,1-16-3.27,82.8,82.8,0,0,1-17.13-7.49l.44-1.49a82.65,82.65,0,0,0,17.14,7.49,84.25,84.25,0,0,0,16,3.28C477.37,153.33,498.09,142.89,503,126.27Z"/></clipPath><clipPath id="clip-path-3"><path class="cls-1" d="M438.6,187.29l-1.83-.23a19.78,19.78,0,0,1-3.72-.85c-20.23-6.82-30.68-46.29-23.35-88.17a146.43,146.43,0,0,1,5.18-20.71,106.92,106.92,0,0,1,10.48-22.88l1.83.22a106.79,106.79,0,0,0-10.48,22.89,146.29,146.29,0,0,0-5.18,20.7c-7.33,41.89,3.12,81.36,23.35,88.18A19.78,19.78,0,0,0,438.6,187.29Z"/></clipPath><clipPath id="clip-path-4"><path class="cls-1" d="M455.9,33.69l1.83.22a19.63,19.63,0,0,0-6.78.37c-5.11,1.15-10.17,4.27-14.91,9l-1.83-.22c4.74-4.76,9.8-7.88,14.91-9A19.64,19.64,0,0,1,455.9,33.69Z"/></clipPath><clipPath id="clip-path-5"><path class="cls-1" d="M436.2,206.46l-1.83-.22a24.81,24.81,0,0,0,8.82-.54c6.54-1.57,13-5.73,19-12l1.83.23c-6,6.25-12.5,10.4-19,12A24.36,24.36,0,0,1,436.2,206.46Z"/></clipPath><clipPath id="clip-path-6"><path class="cls-1" d="M460.19,14.87l5.2,1.24c25.28,8.51,37.71,57.55,28.54,109.9a183.4,183.4,0,0,1-6.26,25.27A131.15,131.15,0,0,1,473,182.72l-1.83-.23a130.77,130.77,0,0,0,14.72-31.44,183.25,183.25,0,0,0,6.26-25.26"/></clipPath><clipPath id="clip-path-7"><path class="cls-1" d="M410,100.21l.44-1.49c3.29-11.08,17.11-18,34.46-16.23a56.23,56.23,0,0,1,19.79,5.92l-.44,1.49a54.89,54.89,0,0,0-9.4-3.82A55.79,55.79,0,0,0,444.44,84C427.09,82.17,413.27,89.12,410,100.21Z"/></clipPath><clipPath id="clip-path-8"><path class="cls-1" d="M391.45,94.7l.44-1.49a27.93,27.93,0,0,0-1,10.64l-.44,1.48A27.89,27.89,0,0,1,391.45,94.7Z"/></clipPath><clipPath id="clip-path-9"><path class="cls-1" d="M403.82,128.82l-.44,1.48a48.94,48.94,0,0,1-9.72-13.59,34.86,34.86,0,0,1-3.2-11.38l.44-1.48a34.52,34.52,0,0,0,3.21,11.37A49.08,49.08,0,0,0,403.82,128.82Z"/></clipPath><radialGradient id="radial-gradient" cx="-2303.96" cy="1461.77" fx="-2313.9468910930195" fy="1442.8160357942813" r="21.43" gradientTransform="translate(3096.08 -538.41) rotate(18.61)" gradientUnits="userSpaceOnUse"><stop offset="0" stop-color="#698f23" stop-opacity="0"/><stop offset="0.13" stop-color="#698f23" stop-opacity="0.03"/><stop offset="0.26" stop-color="#698f23" stop-opacity="0.11"/><stop offset="0.39" stop-color="#698f23" stop-opacity="0.25"/><stop offset="0.52" stop-color="#698f23" stop-opacity="0.44"/><stop offset="0.64" stop-color="#698f23" stop-opacity="0.69"/><stop offset="0.77" stop-color="#698f23" stop-opacity="0.99"/><stop offset="0.77" stop-color="#698f23"/></radialGradient></defs><title>LVC20 logo (Linaro_white)</title><g id="map"><g class="cls-2"><g class="cls-3"><g class="cls-2"><path class="cls-4" d="M484.51,120.76l-.44,1.49a18.53,18.53,0,0,0,.66-7.1,23,23,0,0,0-2.23-7.77,31.18,31.18,0,0,0-4.07-6.31l.45-1.49a31.56,31.56,0,0,1,4.06,6.31,23.08,23.08,0,0,1,2.23,7.78,18.48,18.48,0,0,1-.66,7.09"/></g></g></g><path class="cls-5" d="M418.22,139.85l12.71-8.44a54.7,54.7,0,0,0,8.46,3.39A55.29,55.29,0,0,0,450,137c20.82,2.17,36.55-8.27,35.13-23.32a23.08,23.08,0,0,0-2.23-7.78,31.56,31.56,0,0,0-4.06-6.31l12.7-8.44a49.3,49.3,0,0,1,9.1,12.83A34.62,34.62,0,0,1,504,115.63c2.14,22.58-21.46,38.24-52.69,35a84.25,84.25,0,0,1-16-3.28A82.65,82.65,0,0,1,418.22,139.85Z"/><g class="cls-2"><g class="cls-6"><g class="cls-2"><path class="cls-7" d="M503,126.27l-.44,1.48a26.86,26.86,0,0,1-1.54,4l.44-1.49a26.75,26.75,0,0,0,1.54-4"/><path class="cls-8" d="M501.49,130.26l-.44,1.49a29.31,29.31,0,0,1-2.63,4.39l.44-1.49a28.81,28.81,0,0,0,2.63-4.39"/><path class="cls-9" d="M498.86,134.65l-.44,1.49a31.79,31.79,0,0,1-4.08,4.56l.44-1.48a31.8,31.8,0,0,0,4.08-4.57"/><path class="cls-10" d="M494.78,139.22l-.44,1.48a38.64,38.64,0,0,1-7.72,5.48l.44-1.49a38.6,38.6,0,0,0,7.72-5.47"/><path class="cls-11" d="M487.06,144.69l-.44,1.49a53.72,53.72,0,0,1-18.31,5.74l.44-1.49a53.5,53.5,0,0,0,18.31-5.74"/><path class="cls-10" d="M468.75,150.43l-.44,1.49a72.17,72.17,0,0,1-11.54.58l.44-1.49a69.92,69.92,0,0,0,11.54-.58"/><path class="cls-9" d="M457.21,151l-.44,1.49q-2.89-.09-5.88-.4c-.86-.09-1.71-.19-2.56-.31l.44-1.48c.85.11,1.7.22,2.56.31q3,.3,5.88.39"/><path class="cls-8" d="M448.77,150.31l-.44,1.48c-2.44-.33-4.86-.77-7.23-1.31l.44-1.49c2.37.54,4.79,1,7.23,1.32"/><path class="cls-7" d="M441.54,149l-.44,1.49q-3.15-.72-6.19-1.65l-.55-.18.45-1.48.55.17c2,.63,4.09,1.18,6.18,1.65"/><path class="cls-12" d="M434.81,147.17l-.45,1.48c-2.23-.7-4.42-1.5-6.56-2.38l.44-1.48q3.21,1.32,6.57,2.38"/><path class="cls-13" d="M428.24,144.79l-.44,1.48c-2.36-1-4.66-2-6.87-3.19l.44-1.49c2.21,1.16,4.51,2.23,6.87,3.2"/><path class="cls-14" d="M421.37,141.59l-.44,1.49q-1.6-.84-3.15-1.74l.44-1.49q1.54.9,3.15,1.74"/></g></g></g><polygon class="cls-15" points="421.21 38.76 423.04 38.98 427.19 54.67 425.36 54.45 421.21 38.76"/><g class="cls-2"><g class="cls-16"><g class="cls-2"><path class="cls-10" d="M425.36,54.45l1.83.22c-.4.64-.8,1.3-1.19,2l-1.83-.22c.39-.67.79-1.32,1.19-2"/><path class="cls-11" d="M424.17,56.41l1.83.22c-.45.77-.9,1.56-1.33,2.36l-1.83-.22c.44-.81.88-1.59,1.33-2.36"/><path class="cls-17" d="M422.84,58.77l1.83.22c-.43.78-.85,1.58-1.27,2.39l-1.83-.23c.42-.81.84-1.6,1.27-2.38"/><path class="cls-18" d="M421.57,61.15l1.83.23-1.2,2.43-1.82-.23c.39-.82.79-1.63,1.19-2.43"/><path class="cls-19" d="M420.38,63.58l1.82.23c-.38.8-.76,1.62-1.13,2.46L419.24,66q.56-1.25,1.14-2.46"/><path class="cls-20" d="M419.24,66l1.83.23c-.37.82-.73,1.66-1.09,2.5l-1.83-.22c.36-.85.72-1.69,1.09-2.51"/><path class="cls-21" d="M418.15,68.55l1.83.22c-.35.84-.69,1.69-1,2.56l-1.83-.23c.34-.86.68-1.71,1-2.55"/><path class="cls-22" d="M417.12,71.1l1.83.23c-.33.85-.66,1.71-1,2.58l-1.83-.23c.32-.87.64-1.73,1-2.58"/><path class="cls-23" d="M416.15,73.68l1.83.23c-.32.85-.62,1.72-.92,2.59l-1.83-.23c.3-.87.61-1.73.92-2.59"/><path class="cls-24" d="M415.23,76.27l1.83.23c-.12.35-.23.7-.35,1.06s-.34,1-.5,1.53l-1.83-.23c.17-.52.33-1,.5-1.53s.23-.71.35-1.06"/><path class="cls-25" d="M414.38,78.86l1.83.23q-.4,1.26-.78,2.55l-1.83-.23q.38-1.29.78-2.55"/><path class="cls-26" d="M413.6,81.41l1.83.23c-.24.8-.47,1.61-.7,2.43l-1.83-.23c.23-.82.46-1.63.7-2.43"/><path class="cls-27" d="M412.9,83.84l1.83.23c-.21.76-.42,1.53-.62,2.31l-1.83-.23c.2-.77.41-1.54.62-2.31"/><path class="cls-28" d="M412.28,86.15l1.83.23c-.19.72-.37,1.44-.55,2.16l-1.83-.22c.18-.73.36-1.45.55-2.17"/><path class="cls-29" d="M411.73,88.32l1.83.22-.48,2-1.83-.23q.24-1,.48-2"/><path class="cls-30" d="M411.25,90.36l1.83.23c-.15.64-.29,1.28-.43,1.93l-1.83-.23c.14-.65.29-1.29.43-1.93"/><path class="cls-31" d="M410.82,92.29l1.83.23c-.13.62-.26,1.23-.38,1.85l-1.83-.23c.12-.62.25-1.23.38-1.85"/><path class="cls-32" d="M410.44,94.14l1.83.23c-.12.6-.24,1.19-.35,1.8l-1.83-.23c.11-.6.23-1.2.35-1.8"/><path class="cls-33" d="M410.09,95.94l1.83.23c-.11.57-.22,1.16-.32,1.74l-1.83-.23c.1-.58.21-1.16.32-1.74"/><path class="cls-34" d="M409.77,97.68l1.83.23c0,.12-.05.24-.07.35l-.24,1.45-1.83-.23L409.7,98c0-.12.05-.24.07-.36"/><path class="cls-35" d="M409.46,99.48l1.83.23c-.1.6-.2,1.2-.29,1.8l-1.83-.23c.09-.6.19-1.2.29-1.8"/><path class="cls-36" d="M409.17,101.28l1.83.23-.27,1.8-1.83-.22.27-1.81"/><path class="cls-37" d="M408.9,103.09l1.83.22c-.09.66-.18,1.31-.26,2l-1.83-.23c.08-.65.17-1.3.26-2"/><path class="cls-38" d="M408.64,105l1.83.23c-.1.76-.19,1.52-.28,2.27l-1.83-.22c.09-.76.18-1.52.28-2.28"/><path class="cls-39" d="M408.36,107.32l1.83.22c-.09.76-.17,1.52-.24,2.27l-1.83-.23c.07-.75.15-1.51.24-2.26"/><path class="cls-40" d="M408.12,109.58l1.83.23c-.13,1.32-.25,2.64-.35,4l-1.83-.23c.1-1.31.22-2.63.35-4"/><path class="cls-41" d="M407.77,113.53l1.83.23c-.22,3.06-.36,6.1-.4,9.08l-1.83-.23q.08-4.47.4-9.08"/><path class="cls-40" d="M407.37,122.61l1.83.23c0,1,0,2,0,3l-1.83-.23c0-1,0-2,0-3"/><path class="cls-39" d="M407.36,125.63l1.83.23c0,1,0,2,.05,2.94l-1.83-.22c0-1,0-2-.05-3"/><path class="cls-38" d="M407.41,128.58l1.83.22c0,.76.05,1.52.08,2.27l-1.82-.23c0-.75-.06-1.51-.09-2.26"/><path class="cls-37" d="M407.5,130.84l1.82.23.12,2.24-1.83-.23c0-.74-.08-1.49-.11-2.24"/><path class="cls-36" d="M407.61,133.08l1.83.23c.05.75.1,1.51.16,2.26l-1.83-.23c-.06-.75-.11-1.5-.16-2.26"/><path class="cls-35" d="M407.77,135.34l1.83.23c.06.77.12,1.53.2,2.29l-1.83-.23c-.08-.76-.14-1.52-.2-2.29"/><path class="cls-34" d="M408,137.63l1.83.23c.07.76.15,1.51.23,2.26l-1.83-.22c-.08-.76-.16-1.51-.23-2.27"/><path class="cls-33" d="M408.2,139.9l1.83.22c.1.89.21,1.77.33,2.65l-1.83-.23q-.18-1.32-.33-2.64"/><path class="cls-32" d="M408.53,142.54l1.83.23c.12.87.25,1.73.39,2.59l-1.83-.23c-.14-.85-.27-1.72-.39-2.59"/><path class="cls-31" d="M408.92,145.13l1.83.23c.16,1,.33,2,.51,3l-1.83-.22q-.27-1.49-.51-3"/><path class="cls-30" d="M409.43,148.13l1.83.22c.19,1,.4,2,.61,3l-1.83-.23c-.21-1-.42-2-.61-3"/><path class="cls-29" d="M410,151.11l1.83.23c.23,1,.47,2.07.72,3.08l-1.83-.23c-.25-1-.49-2-.72-3.08"/><path class="cls-28" d="M410.76,154.19l1.83.23c.25,1,.52,2,.8,3l-1.83-.23c-.28-1-.55-1.95-.8-2.95"/><path class="cls-27" d="M411.56,157.14l1.83.23c.27,1,.56,1.9.86,2.83l-1.82-.23c-.31-.93-.6-1.87-.87-2.83"/><path class="cls-26" d="M412.43,160l1.82.23c.29.87.59,1.72.89,2.56l-1.83-.23c-.3-.83-.6-1.69-.88-2.56"/><path class="cls-25" d="M413.31,162.53l1.83.23c.3.83.62,1.64.94,2.43l-1.83-.23c-.32-.79-.63-1.6-.94-2.43"/><path class="cls-24" d="M414.25,165l1.83.23c.31.76.63,1.51,1,2.24l-1.83-.23c-.33-.73-.65-1.48-1-2.24"/><path class="cls-23" d="M415.21,167.2l1.83.23c.33.71.66,1.41,1,2.09l-1.83-.22c-.34-.69-.67-1.39-1-2.1"/><path class="cls-22" d="M416.21,169.3l1.83.22c.33.67.67,1.32,1,2l-1.83-.23c-.35-.64-.7-1.29-1-1.95"/><path class="cls-21" d="M417.24,171.25l1.83.23c.34.62.7,1.24,1.06,1.83l-1.83-.23c-.36-.59-.72-1.2-1.06-1.83"/><path class="cls-20" d="M418.3,173.08l1.83.23c.36.59.72,1.17,1.1,1.73l-1.83-.23c-.37-.56-.74-1.14-1.1-1.73"/><path class="cls-19" d="M419.4,174.81l1.83.23c.37.55.76,1.1,1.15,1.62l-1.83-.23c-.39-.52-.77-1.06-1.15-1.62"/><path class="cls-18" d="M420.55,176.43l1.83.23q.58.79,1.2,1.53l-1.83-.23q-.62-.74-1.2-1.53"/><path class="cls-17" d="M421.75,178l1.83.23c.41.5.83,1,1.26,1.45l-1.83-.23c-.43-.46-.85-.95-1.26-1.45"/><path class="cls-11" d="M423,179.41l1.83.23c.43.47.88.92,1.33,1.35l-1.83-.23c-.45-.43-.89-.88-1.33-1.35"/><path class="cls-10" d="M424.34,180.76l1.83.23c.47.44.94.87,1.43,1.28l-1.83-.23c-.49-.41-1-.83-1.43-1.28"/><path class="cls-9" d="M425.77,182l1.83.23c.49.41,1,.8,1.5,1.16l-1.83-.22q-.76-.56-1.5-1.17"/><path class="cls-8" d="M427.27,183.21l1.83.22c.56.4,1.13.78,1.71,1.12l-1.83-.23q-.87-.51-1.71-1.11"/><path class="cls-7" d="M429,184.32l1.83.23c.6.36,1.22.69,1.85,1l-1.83-.23a17.34,17.34,0,0,1-1.85-1"/><path class="cls-12" d="M430.83,185.31l1.83.23a20.8,20.8,0,0,0,2.09.85l-1.83-.23a19.49,19.49,0,0,1-2.09-.85"/><path class="cls-13" d="M432.92,186.16l1.83.23.13.05a20.44,20.44,0,0,0,2.35.63l-1.83-.23a20.44,20.44,0,0,1-2.35-.63l-.13-.05"/><path class="cls-14" d="M435.4,186.84l1.83.23c.46.09.91.16,1.37.22l-1.83-.23c-.46-.06-.91-.13-1.37-.22"/></g></g></g><g class="cls-2"><g class="cls-42"><g class="cls-2"><path class="cls-4" d="M455.9,33.69l1.83.22a19.63,19.63,0,0,0-6.78.37,27.57,27.57,0,0,0-10.63,5.25l-1.83-.23a27.57,27.57,0,0,1,10.63-5.25,19.64,19.64,0,0,1,6.78-.36"/><path class="cls-14" d="M438.49,39.3l1.83.23a40.2,40.2,0,0,0-3.22,2.75l-1.83-.23a40.2,40.2,0,0,1,3.22-2.75"/><path class="cls-13" d="M435.27,42.05l1.83.23c-.36.33-.71.67-1.06,1l-1.83-.22c.35-.35.7-.7,1.06-1"/></g></g></g><g class="cls-2"><g class="cls-43"><g class="cls-2"><path class="cls-13" d="M462.23,193.72l1.83.23c-.68.7-1.36,1.38-2.05,2l-1.83-.23c.69-.65,1.37-1.33,2.05-2"/><path class="cls-14" d="M460.18,195.75,462,196a52.92,52.92,0,0,1-4.06,3.46l-1.83-.22a53.1,53.1,0,0,0,4.06-3.47"/><path class="cls-4" d="M456.12,199.22l1.83.22A34.9,34.9,0,0,1,445,205.92a24.36,24.36,0,0,1-8.82.54l-1.83-.22a24.81,24.81,0,0,0,8.82-.54,35.05,35.05,0,0,0,12.93-6.48"/></g></g></g><path class="cls-44" d="M421.21,38.76l4.15,15.69a106.92,106.92,0,0,0-10.48,22.88A146.43,146.43,0,0,0,409.7,98c-7.33,41.88,3.12,81.35,23.35,88.17a19.27,19.27,0,0,0,10.77.42c4.88-1.17,9.71-4.14,14.26-8.6l4.15,15.69c-6,6.25-12.5,10.41-19,12a23.93,23.93,0,0,1-13.46-.53c-25.28-8.51-38.35-57.86-29.18-110.22A181.25,181.25,0,0,1,407,69.07,131.07,131.07,0,0,1,421.21,38.76Z"/><polygon class="cls-15" points="458.08 178.03 459.91 178.26 464.06 193.95 462.23 193.72 458.08 178.03"/><path class="cls-44" d="M462.92,15.58c25.28,8.51,38.35,57.85,29.18,110.21a183.25,183.25,0,0,1-6.26,25.26,130.77,130.77,0,0,1-14.72,31.44L467,166.81a106.59,106.59,0,0,0,11-23.9,146.7,146.7,0,0,0,5-20.21c7.33-41.87-3.12-81.35-23.34-88.17a19.22,19.22,0,0,0-10.49-.48c-5.11,1.15-10.17,4.27-14.91,9L430.06,27.4c6.24-6.59,13-10.9,19.75-12.43A23.9,23.9,0,0,1,462.92,15.58Z"/><g class="cls-2"><g class="cls-45"><g class="cls-2"><path class="cls-12" d="M459.71,14.75l3.61.86c1.12.45,3.35.91,4.2,1.31l-1.83-.22c-.85-.41-3.16-1.2-4-1.5"/><path class="cls-7" d="M465.69,16.7l1.83.22c.79.38,1.56.79,2.32,1.24L468,17.93c-.77-.45-1.54-.86-2.33-1.23"/><path class="cls-8" d="M468,17.93l1.82.23c.73.43,1.44.9,2.13,1.4l-1.83-.23c-.69-.5-1.4-1-2.12-1.4"/><path class="cls-9" d="M470.14,19.33l1.83.23c.64.45,1.26.94,1.88,1.45L472,20.78c-.61-.51-1.24-1-1.88-1.45"/><path class="cls-10" d="M472,20.78l1.83.23c.61.51,1.21,1,1.79,1.61l-1.83-.23c-.58-.56-1.18-1.1-1.79-1.61"/><path class="cls-11" d="M473.81,22.39l1.83.23c.56.53,1.12,1.1,1.66,1.68l-1.83-.23c-.54-.58-1.1-1.14-1.66-1.68"/><path class="cls-17" d="M475.47,24.07l1.83.23c.53.58,1.06,1.18,1.58,1.81l-1.83-.23c-.52-.62-1-1.23-1.58-1.81"/><path class="cls-18" d="M477.05,25.88l1.83.23c.51.61,1,1.25,1.49,1.91l-1.82-.23c-.49-.66-1-1.29-1.5-1.91"/><path class="cls-19" d="M478.55,27.79l1.82.23c.49.65,1,1.33,1.44,2L480,29.82c-.47-.7-1-1.37-1.43-2"/><path class="cls-20" d="M480,29.82l1.83.23c.47.7.93,1.42,1.38,2.15L481.36,32q-.67-1.11-1.38-2.16"/><path class="cls-21" d="M481.36,32l1.83.22c.45.75.89,1.51,1.33,2.3l-1.83-.23c-.44-.78-.88-1.55-1.33-2.29"/><path class="cls-22" d="M482.69,34.27l1.83.23c.43.79.86,1.61,1.28,2.44L484,36.71c-.42-.83-.85-1.64-1.28-2.44"/><path class="cls-23" d="M484,36.71l1.83.23c.42.85.84,1.73,1.24,2.62l-1.82-.23c-.41-.89-.82-1.76-1.25-2.62"/><path class="cls-24" d="M485.22,39.33l1.82.23c.42.91.82,1.85,1.21,2.8l-1.83-.23c-.39-1-.79-1.88-1.2-2.8"/><path class="cls-25" d="M486.42,42.13l1.83.23q.6,1.48,1.17,3l-1.83-.23q-.57-1.54-1.17-3"/><path class="cls-26" d="M487.59,45.16l1.83.23Q490,47,490.53,48.6l-1.83-.23q-.54-1.63-1.11-3.21"/><path class="cls-27" d="M488.7,48.37l1.83.23c.38,1.15.74,2.33,1.08,3.53l-1.83-.23c-.34-1.2-.7-2.38-1.08-3.53"/><path class="cls-28" d="M489.78,51.9l1.83.23c.35,1.21.68,2.44,1,3.69l-1.83-.23c-.32-1.25-.65-2.48-1-3.69"/><path class="cls-29" d="M490.78,55.59l1.83.23c.32,1.26.62,2.54.9,3.85l-1.83-.23c-.28-1.3-.58-2.59-.9-3.85"/><path class="cls-30" d="M491.68,59.44l1.83.23c.27,1.22.52,2.47.76,3.73l-1.83-.22c-.24-1.27-.49-2.51-.76-3.74"/><path class="cls-31" d="M492.44,63.18l1.83.22c.23,1.24.44,2.48.65,3.75l-1.83-.23c-.21-1.26-.42-2.51-.65-3.74"/><path class="cls-32" d="M493.09,66.92l1.83.23c.17,1.07.32,2.15.47,3.24l-1.83-.23c-.14-1.09-.3-2.17-.47-3.24"/><path class="cls-33" d="M493.56,70.16l1.83.23q.23,1.64.42,3.3L494,73.47c-.13-1.12-.27-2.22-.42-3.31"/><path class="cls-34" d="M494,73.47l1.83.22c.1.94.2,1.89.29,2.84l-1.83-.23c-.09-1-.19-1.9-.29-2.83"/><path class="cls-35" d="M494.27,76.3l1.83.23c.09.94.18,1.9.25,2.86l-1.83-.23c-.07-1-.16-1.91-.25-2.86"/><path class="cls-36" d="M494.52,79.16l1.83.23c.07.94.14,1.88.19,2.83L494.72,82c-.06-.95-.13-1.89-.2-2.83"/><path class="cls-37" d="M494.72,82l1.82.23c.06.92.11,1.86.15,2.79l-1.83-.22c0-.94-.09-1.87-.14-2.8"/><path class="cls-38" d="M494.86,84.79l1.83.22c0,.94.08,1.89.1,2.83L495,87.62c0-1-.06-1.9-.1-2.83"/><path class="cls-39" d="M495,87.62l1.83.22c0,1.22.06,2.45.07,3.69L495,91.3c0-1.24,0-2.46-.07-3.68"/><path class="cls-40" d="M495,91.3l1.83.23c0,1.25,0,2.51,0,3.77L495,95.07c0-1.26,0-2.52,0-3.77"/><path class="cls-41" d="M495,95.07l1.83.23c0,3.73-.21,7.52-.5,11.35l-1.83-.23c.29-3.83.45-7.62.5-11.35"/><path class="cls-40" d="M494.51,106.42l1.83.23c-.12,1.64-.26,3.28-.43,4.93l-1.83-.22c.17-1.66.31-3.3.43-4.94"/><path class="cls-39" d="M494.08,111.36l1.83.22c-.09,1-.19,1.89-.3,2.84l-1.83-.23c.11-1,.21-1.89.3-2.83"/><path class="cls-38" d="M493.78,114.19l1.83.23c-.11.94-.22,1.89-.35,2.84l-1.83-.23c.13-1,.24-1.9.35-2.84"/><path class="cls-37" d="M493.43,117l1.83.23c-.1.81-.21,1.63-.33,2.44l-1.83-.22c.12-.82.23-1.64.33-2.45"/><path class="cls-36" d="M493.1,119.48l1.83.22L494.6,122l-1.83-.23c.11-.75.23-1.5.33-2.25"/><path class="cls-35" d="M492.77,121.73l1.83.23-.36,2.25-1.83-.23.36-2.25"/><path class="cls-34" d="M492.41,124l1.83.23c-.1.6-.2,1.2-.31,1.8,0,.15-.05.3-.08.44l-1.83-.23c0-.14.06-.29.08-.43.11-.6.21-1.21.31-1.81"/><path class="cls-33" d="M492,126.22l1.83.23c-.13.74-.26,1.47-.4,2.2l-1.83-.22c.14-.73.27-1.47.4-2.21"/><path class="cls-32" d="M491.62,128.43l1.83.22c-.14.75-.29,1.49-.44,2.23l-1.83-.22c.15-.74.3-1.49.44-2.23"/><path class="cls-31" d="M491.18,130.66l1.83.22c-.15.78-.31,1.55-.48,2.32L490.7,133q.26-1.16.48-2.31"/><path class="cls-30" d="M490.7,133l1.83.23c-.17.81-.35,1.62-.54,2.42l-1.82-.23c.18-.8.36-1.61.53-2.42"/><path class="cls-29" d="M490.17,135.39l1.82.23c-.19.86-.39,1.7-.6,2.55l-1.83-.23c.21-.84.41-1.69.61-2.55"/><path class="cls-28" d="M489.56,137.94l1.83.23c-.22.91-.45,1.81-.68,2.7l-1.83-.22c.24-.9.46-1.8.68-2.71"/><path class="cls-27" d="M488.88,140.65l1.83.22c-.25,1-.51,1.93-.77,2.88l-1.83-.23c.26-1,.52-1.91.77-2.87"/><path class="cls-26" d="M488.11,143.52l1.83.23c-.28,1-.57,2-.87,3l-1.83-.23c.3-1,.59-2,.87-3"/><path class="cls-25" d="M487.24,146.56l1.83.23c-.32,1.07-.65,2.13-1,3.18l-1.83-.23c.33-1.05.66-2.11,1-3.18"/><path class="cls-24" d="M486.26,149.74l1.83.23-.42,1.31-.67,2-1.83-.23c.22-.67.45-1.34.67-2l.42-1.31"/><path class="cls-23" d="M485.17,153.06l1.83.23c-.37,1.09-.76,2.16-1.14,3.23l-1.83-.23c.39-1.06.77-2.14,1.14-3.23"/><path class="cls-22" d="M484,156.29l1.83.23c-.4,1.09-.81,2.16-1.22,3.22l-1.83-.23c.41-1.06.82-2.13,1.22-3.22"/><path class="cls-21" d="M482.81,159.51l1.83.23c-.42,1.08-.85,2.14-1.29,3.19l-1.83-.23c.44-1,.87-2.11,1.29-3.19"/><path class="cls-20" d="M481.52,162.7l1.83.23c-.44,1-.89,2.1-1.35,3.13l-1.83-.23c.46-1,.91-2.07,1.35-3.13"/><path class="cls-19" d="M480.17,165.83l1.83.23c-.47,1-.94,2.06-1.42,3.07l-1.83-.23c.48-1,.95-2,1.42-3.07"/><path class="cls-18" d="M478.75,168.9l1.83.23c-.49,1-1,2-1.5,3l-1.83-.23q.76-1.49,1.5-3"/><path class="cls-17" d="M477.25,171.93l1.83.23c-.51,1-1,2-1.57,3l-1.83-.23c.53-1,1.06-2,1.57-3"/><path class="cls-11" d="M475.68,174.91l1.83.23c-.55,1-1.11,2-1.68,3l-1.83-.22c.57-1,1.13-2,1.68-3"/><path class="cls-10" d="M474,177.87l1.83.22c-.58,1-1.18,2-1.78,2.94l-1.83-.23c.6-1,1.2-1.94,1.78-2.93"/><path class="cls-9" d="M472.22,180.8l1.83.23-1.1,1.69-1.83-.23,1.1-1.69"/></g></g></g><path class="cls-46" d="M453.41,92.18a19.32,19.32,0,1,0,9.76,29.23,18.94,18.94,0,0,0,2.38-4.76A19.31,19.31,0,0,0,453.41,92.18Z"/><polygon class="cls-47" points="477.34 80 476.89 81.49 464.23 89.9 464.67 88.41 477.34 80"/><g class="cls-2"><g class="cls-48"><g class="cls-2"><path class="cls-13" d="M464.67,88.41l-.44,1.49q-2.13-1.11-4.4-2l.44-1.48q2.26.93,4.4,2"/><path class="cls-12" d="M460.27,86.38l-.44,1.48c-1.4-.57-2.84-1.1-4.31-1.56l.45-1.49c1.47.47,2.9,1,4.3,1.57"/><path class="cls-7" d="M456,84.81l-.45,1.49-.69-.22c-1.28-.38-2.58-.73-3.9-1l.45-1.48c1.31.29,2.61.64,3.89,1l.7.21"/><path class="cls-8" d="M451.38,83.57l-.45,1.48c-1.57-.36-3.17-.65-4.79-.87l.45-1.48c1.62.22,3.21.51,4.79.87"/><path class="cls-9" d="M446.59,82.7l-.45,1.48c-.56-.08-1.13-.14-1.7-.2-1.33-.14-2.63-.23-3.92-.27l.44-1.48c1.29,0,2.6.12,3.92.26q.86.09,1.71.21"/><path class="cls-10" d="M441,82.23l-.44,1.48a46.93,46.93,0,0,0-7.69.39l.44-1.49a47,47,0,0,1,7.69-.38"/><path class="cls-11" d="M433.27,82.61l-.44,1.49a35.39,35.39,0,0,0-12.2,3.83l.44-1.49a35.83,35.83,0,0,1,12.2-3.83"/><path class="cls-10" d="M421.07,86.44l-.44,1.49a25.42,25.42,0,0,0-5.15,3.64l.44-1.48a25.45,25.45,0,0,1,5.15-3.65"/><path class="cls-9" d="M415.92,90.09l-.44,1.48a21.61,21.61,0,0,0-2.72,3.05l.44-1.49a21,21,0,0,1,2.72-3"/><path class="cls-8" d="M413.2,93.13l-.44,1.49A18.5,18.5,0,0,0,411,97.54l.44-1.48a19.38,19.38,0,0,1,1.75-2.93"/><path class="cls-7" d="M411.45,96.06,411,97.54a16.93,16.93,0,0,0-1,2.67l.44-1.49a17.43,17.43,0,0,1,1-2.66"/></g></g></g><g class="cls-2"><g class="cls-49"><g class="cls-2"><path class="cls-4" d="M390.9,103.85l-.44,1.48a27.89,27.89,0,0,1,1-10.63l.44-1.49a27.93,27.93,0,0,0-1,10.64"/></g></g></g><path class="cls-5" d="M390.9,103.85c-2.13-22.57,21.46-38.24,52.7-35A83.77,83.77,0,0,1,459.17,72a82.93,82.93,0,0,1,18.17,8l-12.67,8.41a56.23,56.23,0,0,0-19.79-5.92c-20.82-2.17-36.54,8.27-35.12,23.32a23.15,23.15,0,0,0,2.13,7.58,31.47,31.47,0,0,0,4.59,7l-12.66,8.41a49.08,49.08,0,0,1-9.71-13.6A34.52,34.52,0,0,1,390.9,103.85Z"/><polygon class="cls-47" points="416.48 120.41 416.04 121.89 403.38 130.3 403.82 128.82 416.48 120.41"/><g class="cls-2"><g class="cls-50"><g class="cls-2"><path class="cls-4" d="M403.82,128.82l-.44,1.48a48.94,48.94,0,0,1-9.72-13.59,34.86,34.86,0,0,1-3.2-11.38l.44-1.48a34.52,34.52,0,0,0,3.21,11.37,49.08,49.08,0,0,0,9.71,13.6"/></g></g></g><path class="cls-46" d="M453.6,91.6a19.3,19.3,0,0,0-22,7.27,18.86,18.86,0,0,0-2.45,4.87,19.32,19.32,0,0,0,12.14,24.48,19.1,19.1,0,0,0,5.37,1,19.34,19.34,0,0,0,16.73-8.38,19.63,19.63,0,0,0,2.38-4.76A19.32,19.32,0,0,0,453.6,91.6Z"/><path class="cls-51" d="M453.6,91.6a19.3,19.3,0,0,0-22,7.27,18.86,18.86,0,0,0-2.45,4.87,19.32,19.32,0,0,0,12.14,24.48,19.1,19.1,0,0,0,5.37,1,19.34,19.34,0,0,0,16.73-8.38,19.63,19.63,0,0,0,2.38-4.76A19.32,19.32,0,0,0,453.6,91.6Z"/><g class="cls-52"><circle class="cls-53" cx="445.06" cy="100.18" r="4.74"/></g><circle class="cls-53" cx="443.32" cy="95.87" r="1.72"/><g class="cls-52"><circle class="cls-53" cx="449.82" cy="102.95" r="3.64"/></g><path class="cls-53" d="M148.77,76.6c-3.55,0-6.43-1.27-6.43-5.42V17.36h4.57v52.3c0,2,.85,2.88,3.22,2.88h33.94V76.6Z"/><path class="cls-53" d="M188.62,24v-6.6h4.74V24Zm.17,7.79h4.41V76.6h-4.41Z"/><path class="cls-53" d="M202.5,38.85c0-4.31,1.36-7.1,6.09-7.1H225.1c9.31,0,13,5,13,13.79V76.6h-4.4V45.54c0-5.42-1.78-9.82-8.55-9.82H209.61c-1.7,0-2.71.34-2.71,3.22V76.6h-4.4Z"/><path class="cls-53" d="M270.79,31.75c7.45,0,10.75,4.14,10.75,11.25V70.68c0,4-1.1,5.92-6.52,5.92H257.76c-8.89,0-12.11-4.23-12.11-13.54S249,49.77,257.76,49.77h19.37V42.24c0-3.39-1.6-6.52-6.34-6.52H249v-4Zm-14.22,22c-5.42,0-6.35,3.89-6.35,9.31s.93,9.56,6.35,9.56H275a1.92,1.92,0,0,0,2.11-2V53.75Z"/><path class="cls-53" d="M290.67,47.15c0-10.16,4.82-15.4,15-15.4h3v4h-3c-7.62,0-10.58,4-10.58,12.44V76.6h-4.4Z"/><path class="cls-53" d="M354.39,54.09c0,16.08-6.09,23-22.17,23s-22.17-6.94-22.17-23,6.09-22.85,22.17-22.85S354.39,38,354.39,54.09Zm-22.17,19c12.69,0,17.6-4.65,17.6-19s-4.91-18.88-17.6-18.88-17.6,4.49-17.6,18.88S319.52,73.13,332.22,73.13Z"/><path class="cls-46" d="M41.66,152.29c-23.62,0-29.85-16.64-29.85-36.41S17.74,79.47,42.7,79.47H69.85v5H42.7c-18.72,0-24.86,11.65-24.86,31.41s5.72,31.42,23.92,31.42H71v5Z"/><path class="cls-46" d="M129.25,124.62c0,19.77-7.49,28.3-27.25,28.3s-27.26-8.53-27.26-28.3S82.23,96.53,102,96.53,129.25,104.86,129.25,124.62ZM102,148c15.6,0,21.63-5.72,21.63-23.41s-6-23.2-21.63-23.2-21.64,5.52-21.64,23.2S86.39,148,102,148Z"/><path class="cls-46" d="M138.61,105.9c0-5.31,1.67-8.74,7.49-8.74h20.28c11.45,0,15.92,6.13,15.92,17v38.17h-5.41V114.12c0-6.66-2.18-12.07-10.51-12.07h-19c-2.08,0-3.33.41-3.33,4v46.29h-5.41Z"/><path class="cls-46" d="M193.53,105.9c0-5.31,1.67-8.74,7.49-8.74h20.29c11.44,0,15.92,6.13,15.92,17v38.17h-5.41V114.12c0-6.66-2.19-12.07-10.51-12.07h-19c-2.08,0-3.33.41-3.33,4v46.29h-5.41Z"/><path class="cls-46" d="M265.62,152.29c-15.19,0-19-11.44-19-27.15,0-18.62,5-28.61,23.62-28.61,13.63,0,23.72,5.41,23.72,21,0,6.34-1.67,9-7.91,9H252.2c0,9.67,1.66,20.81,13.42,20.81h27.05v4.88ZM286,121.71a2.27,2.27,0,0,0,2.29-2.5v-.73c0-13.52-6.66-17.06-18-17.06-12.27,0-18.1,4.48-18.1,20.29Z"/><path class="cls-46" d="M324.7,152.29c-18.72,0-23.3-9.88-23.3-27.56,0-16.65,4.58-27.57,23.3-27.57h18.52v4.89H324.7c-14.56,0-17.68,8.11-17.68,22.68,0,15.6,3.12,22.68,17.68,22.68h19.77v4.88Z"/><path class="cls-46" d="M371.82,152.29c-15,0-15-8.73-15-17.47V102.05h-8.64V97.16h8.64V79.47h5.41V97.16H377v4.89H362.26v34.33c0,8.63,2.28,11,10.81,11h4v4.88Z"/><path class="cls-46" d="M34.15,170.19v36.38c-13,0-17.71-4.59-17.71-18.2S21.16,170.2,34.15,170.19Z"/><path class="cls-46" d="M377.18,188.37c0,13.62-4.63,18.2-17.73,18.2h0V170.19h0C372.55,170.19,377.18,174.77,377.18,188.37Z"/><rect class="cls-46" x="33.62" y="170.19" width="326.29" height="36.37"/><text class="cls-54" transform="translate(39.77 199.12)">VI<tspan class="cls-55" x="49.97" y="0">R</tspan><tspan x="78.9" y="0">T</tspan><tspan class="cls-56" x="107.43" y="0">U</tspan><tspan x="140.04" y="0">A</tspan><tspan class="cls-57" x="171.31" y="0">L</tspan><tspan x="196.45" y="0" xml:space="preserve"> 2020</tspan></text></g></svg>