<svg id="Layer_1" data-name="Layer 1" xmlns="http://www.w3.org/2000/svg" viewBox="0 0 125.31 76.24"><defs><style>.cls-1{fill:#fff;}</style></defs><path class="cls-1" d="M59.43,70.06H6.71c.06-1.46.16-2.91.34-4.35,1.18-9.27,9-15.8,18.36-16.23,5-.23,10-.23,15.05,0A19.49,19.49,0,0,1,59.33,68C59.37,68.67,59.4,69.37,59.43,70.06Z"/><path class="cls-1" d="M48.58,30.31A15.56,15.56,0,0,1,32.63,45.55a15.3,15.3,0,0,1-15.06-16,15.57,15.57,0,0,1,15.81-15A15.82,15.82,0,0,1,48.58,30.31Z"/><path class="cls-1" d="M121.75,0H3.56A3.56,3.56,0,0,0,0,3.56V72.68a3.56,3.56,0,0,0,3.56,3.56H121.75a3.56,3.56,0,0,0,3.56-3.56V3.56A3.56,3.56,0,0,0,121.75,0Zm2,68a2,2,0,0,1-2,2H3.55a2,2,0,0,1-2-2V3.55a2,2,0,0,1,2-2H121.76a2,2,0,0,1,2,2Z"/><path class="cls-1" d="M118.45,46.17H57.31V7.06h61.14Zm-60.59-.55h60v-38h-60Z"/><path class="cls-1" d="M86.6,26.22a11,11,0,1,1-4.8-9.1l-6.23,9.1,11-.53C86.6,25.87,86.6,26,86.6,26.22Z"/><path class="cls-1" d="M89.3,24.26l-11,.54,6.23-9.11A11,11,0,0,1,89.3,24.26Z"/><rect class="cls-1" x="92.69" y="25.01" width="17.67" height="1.61"/><rect class="cls-1" x="92.69" y="30.01" width="17.67" height="1.61"/><rect class="cls-1" x="92.69" y="35.01" width="17.67" height="1.61"/></svg>